<svg id="Слой_1" data-name="Слой 1" xmlns="http://www.w3.org/2000/svg" viewBox="0 0 127.16 44.94">
  <defs>
    <style>
      .cls-1 {
        fill: #fff;
      }
    </style>
  </defs>
  <title>01_clients-inversed</title>
  <g>
    <path class="cls-1" d="M28.14,13.77a13.92,13.92,0,0,1,5.31,5.88,19.54,19.54,0,0,1,1.89,8.79,19.34,19.34,0,0,1-1.83,8.64,13.51,13.51,0,0,1-5.22,5.76,14.89,14.89,0,0,1-7.83,2,12.9,12.9,0,0,1-5.55-1.17,11.56,11.56,0,0,1-4.23-3.39v4.24H0V0H10.68V16.26a11.45,11.45,0,0,1,9.54-4.56A15,15,0,0,1,28.14,13.77ZM22.62,34a8.5,8.5,0,0,0,2-5.82,8.61,8.61,0,0,0-2-5.85,6.39,6.39,0,0,0-5.07-2.25,6.24,6.24,0,0,0-5,2.25,8.69,8.69,0,0,0-1.92,5.85,8.58,8.58,0,0,0,2,5.82,6.27,6.27,0,0,0,5,2.22A6.43,6.43,0,0,0,22.62,34Z"/>
    <path class="cls-1" d="M65.82,13.77a15.14,15.14,0,0,1,6.24,5.82,18.16,18.16,0,0,1,0,17.4,15.13,15.13,0,0,1-6.24,5.82,21.92,21.92,0,0,1-18.6,0A14.92,14.92,0,0,1,41,37a18.37,18.37,0,0,1,0-17.4,14.93,14.93,0,0,1,6.21-5.82A21.93,21.93,0,0,1,65.82,13.77ZM51.48,22.52a8.58,8.58,0,0,0-1.92,5.82,8.67,8.67,0,0,0,1.92,5.88,6.34,6.34,0,0,0,5,2.22,6.41,6.41,0,0,0,5.1-2.22,8.67,8.67,0,0,0,1.92-5.88,8.5,8.5,0,0,0-2-5.82,6.43,6.43,0,0,0-5.07-2.22A6.34,6.34,0,0,0,51.48,22.52Z"/>
    <path class="cls-1" d="M77.62,0h10.7V44.52H77.62V0Z"/>
    <path class="cls-1" d="M127.14,0V44.52H116.46v-4.2a11,11,0,0,1-4.11,3.45,12.49,12.49,0,0,1-5.49,1.17,14.82,14.82,0,0,1-7.92-2.1,14.12,14.12,0,0,1-5.31-5.91,19.53,19.53,0,0,1-1.89-8.79,19.08,19.08,0,0,1,1.88-8.62,13.76,13.76,0,0,1,5.22-5.76,14.74,14.74,0,0,1,7.8-2,12.77,12.77,0,0,1,5.61,1.2,11.88,11.88,0,0,1,4.23,3.42V0h10.66Zm-12.6,34.29a9.92,9.92,0,0,0,0-11.73,6.83,6.83,0,0,0-9.65-.46q-0.24.22-.46,0.46a9.75,9.75,0,0,0,0,11.7,6.39,6.39,0,0,0,5.07,2.25,6.31,6.31,0,0,0,5-2.22h0Z"/>
  </g>
</svg>
