<svg id="Слой_1" data-name="Слой 1" xmlns="http://www.w3.org/2000/svg" viewBox="0 0 208.41 103.35">
  <title>serenity-logo</title>
  <g>
    <path d="M381.78,233.9a0.53,0.53,0,0,1-.6,0l-0.06-.06a8.48,8.48,0,0,0-3.3-1.32c-1.32-.3-2.64-0.66-4-0.9l-7.68-1.26-5.82-.72-5-.54c-1.56-.12-3.12-0.3-4.68-0.42l-4.92-.36c-3.72-.24-7.56-0.3-11.4-0.24l-3.36.18c-1.92.12-3.84,0.3-5.7,0.42a17.06,17.06,0,0,0-1.74.18,1,1,0,0,0-.9.84,2,2,0,0,0-.36.6,24.46,24.46,0,0,1-2.58,3.9v0.12a14,14,0,0,1-4,4,37.74,37.74,0,0,1-10.14,5.46A43.81,43.81,0,0,1,297.9,246a49,49,0,0,1-10.2.78,27,27,0,0,1-6.6-1,11.14,11.14,0,0,1-3.6-1.74,4.75,4.75,0,0,1-1.26-1.44,2.22,2.22,0,0,1,.24-2.4,3.17,3.17,0,0,1,.72-0.84A12.38,12.38,0,0,1,280,237.5a40.48,40.48,0,0,1,5.52-2.4,80.71,80.71,0,0,1,10.44-3.24c2.28-.6,4.62-1.2,6.9-1.68,3.18-.66,6.42-1.2,9.6-1.8l5-.84,1.74-.18,1.2-.18c0.12-.24.24-0.42,0.36-0.66a16.43,16.43,0,0,0,.6-2.88,16.61,16.61,0,0,0-1.86-10.56,29,29,0,0,0-5-6.72,60.85,60.85,0,0,0-7.32-6.24l-6.48-4.8a33.77,33.77,0,0,1-3.84-3.3,14.33,14.33,0,0,1-2-2.58,7.4,7.4,0,0,1-.9-2,6,6,0,0,1,.66-4.92,10.38,10.38,0,0,1,2.34-3c1-1,2.1-1.8,3.18-2.64,0.18-.18.36-0.24,0.48-0.36l2-1.26a38.51,38.51,0,0,1,4.86-2.7l5.7-2.7a79.66,79.66,0,0,1,18.72-5.7,41.18,41.18,0,0,1,8.52-.54,11.2,11.2,0,0,1,3.48.66,4,4,0,0,1,1.8,1.14,1.3,1.3,0,0,1,0,1.8,0.41,0.41,0,0,1-.24.18c0.06-.24.06-0.42,0.12-0.6a1.3,1.3,0,0,0-.78-1.62,7.26,7.26,0,0,0-2-.48,20.76,20.76,0,0,0-4.74-.06,53.54,53.54,0,0,0-10,1.8q-3.42.9-6.84,2.16A102.32,102.32,0,0,0,310.8,173a74.13,74.13,0,0,0-7.68,4.32c-0.9.6-1.74,1.26-2.58,1.92-0.3.24-.6,0.54-1,0.78a13.07,13.07,0,0,0-1.68,1.5,7.9,7.9,0,0,0-1.74,2.88,7.69,7.69,0,0,0-.42,2,5.33,5.33,0,0,0,.6,2.76,12,12,0,0,0,2.4,2.82c0.9,0.78,1.86,1.62,2.82,2.34l7.74,5.7a62.84,62.84,0,0,1,7.32,6.48,34.3,34.3,0,0,1,4.44,5.76,17,17,0,0,1,1.68,3.48,6.23,6.23,0,0,0,.24.6,17.43,17.43,0,0,1,1.2,7.08c-0.06.78-.18,1.62-0.3,2.4a1.18,1.18,0,0,0,.06.9c0.12,0,.3.06,0.48,0.06,3.66-.36,7.26-0.48,10.86-0.48,1.8,0,3.54,0,5.34.06,2,0.12,4.14.3,6.18,0.42l6.3,0.54c1.68,0.18,3.36.36,5,.6l4.8,0.54c1.86,0.24,3.66.54,5.52,0.84,2.46,0.36,4.92.84,7.32,1.38,1,0.24,1.92.54,2.82,0.78a9.86,9.86,0,0,1,2.4,1.14,3.49,3.49,0,0,1,.72.6A0.43,0.43,0,0,1,381.78,233.9Zm-104.1,6.3c-0.06-.12-0.12-0.18-0.24-0.06a1.92,1.92,0,0,0-.3.36c0.18,0,.24.06,0.36,0.06a0.85,0.85,0,0,0,.12-0.36h0.06Zm1.14,0.24a1.21,1.21,0,0,0-.66.9A1.34,1.34,0,0,0,278.82,240.44Zm37.86-6.84a35.52,35.52,0,0,0,2.52-3.6,1.75,1.75,0,0,0,.18-0.6c-0.24,0-.42-0.06-0.6-0.06l-1.38.18c-2.46.36-4.92,0.72-7.44,1.14s-5.1,1-7.68,1.56c-2.82.6-5.7,1.38-8.52,2.16s-5.34,1.68-8,2.7a32,32,0,0,0-5,2.46,9.72,9.72,0,0,0-2,1.8,1.27,1.27,0,0,0-.18.42,1.89,1.89,0,0,0,.72,1.74,4.65,4.65,0,0,0,2.22,1,37.52,37.52,0,0,0,7.38.6,17,17,0,0,0,1.74-.12c0.84-.06,1.68-0.12,2.52-0.24a46.1,46.1,0,0,0,6.84-1.38,42.44,42.44,0,0,0,10.32-4.5A29.5,29.5,0,0,0,316.68,233.6Zm-20.16-52.74h0.24a1.59,1.59,0,0,1,.36-0.3v-0.3h0.06v0.3a3.85,3.85,0,0,1,.48-0.54c0.36-.36.78-0.72,1.2-1.08l0.84-.84c0.06-.06.24-0.18,0.06-0.3a14.63,14.63,0,0,0-2.7,2.4A1.47,1.47,0,0,0,296.52,180.86Zm3.36-1.86a17.08,17.08,0,0,0-2.58,2.52,1.23,1.23,0,0,0-.3.54l0.36-.3a26.34,26.34,0,0,1,2.64-2.52,1.05,1.05,0,0,1,.24-0.3h-0.12Zm0.9-1.8,0.06-.06h-0.06v0.06Zm0.48,0.9s0,0.06.06,0a0.22,0.22,0,0,0,.12-0.12l-0.06-.06Zm16.26,56a0.75,0.75,0,0,1-.06.36l0.48-.54,0.42-.42a3.75,3.75,0,0,0,.84-1.14,1.27,1.27,0,0,0,.24-0.36l0.18-.3h-0.18c0.06-.18.06-0.36,0.12-0.48a2.81,2.81,0,0,0-.42.42,36.7,36.7,0,0,1-2.7,3.36,0.64,0.64,0,0,0-.18.24,0.06,0.06,0,0,0,.06.06l1.14-.9A0.45,0.45,0,0,0,317.52,234.08Zm4.14-3.84c-0.66,1-1.26,1.92-1.92,2.82s-1.38,1.8-2.1,2.64A12.6,12.6,0,0,0,321.66,230.24ZM318,233.6a2.59,2.59,0,0,1-.06.3h-0.18A0.59,0.59,0,0,0,318,233.6Zm0.3-.18h-0.06l0.06-.06v0.06Zm1.2-1.74a0.45,0.45,0,0,0-.06.3h-0.18A0.6,0.6,0,0,1,319.5,231.68Zm1.8,0.6-0.06.06A0.06,0.06,0,0,1,321.3,232.28Zm0.18-.3,0.06-.06V232a1.06,1.06,0,0,0-.24.3A1.35,1.35,0,0,1,321.48,232Zm1.08-2.28a0.22,0.22,0,0,0,.18.06C322.62,229.94,322.56,229.82,322.56,229.7Z" transform="translate(-275.99 -151.35)"/>
    <path d="M354.12,209.6a19,19,0,0,0-4.2,2.28c-0.6.42-1.26,0.78-1.86,1.14-1.08.84-2.34,1.5-3.48,2.28s-2.1,1.5-3.12,2.34c-0.48.36-1,.78-1.44,1.2H340c-0.72.54-1.44,1-2.16,1.5a33.87,33.87,0,0,1-3.72,2.22,5.94,5.94,0,0,1-2.22.66,2.91,2.91,0,0,1-2.4-.84,3.81,3.81,0,0,1-1-3.48,16.18,16.18,0,0,1,1.56-4.62,25.86,25.86,0,0,1,2.22-3.66,1.89,1.89,0,0,0,.3-0.6,3.12,3.12,0,0,1,1.2-1.44,3.22,3.22,0,0,0,.9-0.9,20.08,20.08,0,0,1,2.4-2.1,13.51,13.51,0,0,1,1.32-.66,1.65,1.65,0,0,1,1.86.36c0.84,0.84.9,1.56-.12,2.64a16,16,0,0,1-2.58,2.34,8,8,0,0,1-3,1.38,1,1,0,0,0-.78.48,2.65,2.65,0,0,0-.48.66,31.2,31.2,0,0,0-1.8,3.42c-0.06.12-.06,0.24-0.12,0.36v0.18a4.38,4.38,0,0,0-.48,1.5,9.21,9.21,0,0,0-.36,1.86,3.66,3.66,0,0,0,0,1.14,0.34,0.34,0,0,0,.48.3,4.07,4.07,0,0,0,1.2-.42,17.17,17.17,0,0,0,2.52-1.44c1.44-.9,2.82-1.86,4.2-2.76,2.16-1.44,4.26-2.88,6.42-4.26,1.68-1.08,3.36-2.16,5.1-3.12,0.42-.24.9-0.48,1.38-0.72a5.48,5.48,0,0,1,.84-0.42,0.84,0.84,0,0,1,.9.24A1.14,1.14,0,0,1,354.12,209.6Zm-18.36-.06a1.86,1.86,0,0,0,1.08-.54,10.33,10.33,0,0,0,.84-0.66c0.42-.36.78-0.78,1.2-1.2a0.18,0.18,0,0,0,0-.24,0.11,0.11,0,0,0-.18,0,3.31,3.31,0,0,0-1.56,1.14h-0.06a0.13,0.13,0,0,1-.12.12v0.06A4.21,4.21,0,0,0,335.76,209.54Zm0.36,10.08a0.13,0.13,0,0,0-.12.12A0.23,0.23,0,0,1,336.12,219.62Zm0.06-.06a0.45,0.45,0,0,0,.42-0.24A0.61,0.61,0,0,0,336.18,219.56Zm0.3-12.72h0.18v-0.12A0.32,0.32,0,0,0,336.48,206.84Zm16.14,3a0.52,0.52,0,0,0-.42.3,0.44,0.44,0,0,0-.36.12,1.26,1.26,0,0,0-.42.18,34.27,34.27,0,0,0-3.48,2.22,4.91,4.91,0,0,0-1.2.72c-0.24.18-.54,0.3-0.78,0.48-1.08.72-2.16,1.44-3.12,2.22l-0.6.36c-1.38,1-2.76,2-4.14,3a2.14,2.14,0,0,0-.66.6,0.53,0.53,0,0,0-.48.3,1.3,1.3,0,0,0-.48.3,0.83,0.83,0,0,0,.48-0.3,0.61,0.61,0,0,0,.48-0.3,2.61,2.61,0,0,0,.9-0.48c0.9-.6,1.74-1.26,2.64-1.86,0.66-.48,1.26-1,1.92-1.5,1.38-.84,2.64-1.74,4-2.7a3.51,3.51,0,0,0,1.14-.78,1,1,0,0,0,.36-0.18c1-.6,2.1-1.26,3.12-1.92a0.94,0.94,0,0,0,.36-0.3l0.36-.18A0.56,0.56,0,0,0,352.62,209.84Zm-15.06-.9a10,10,0,0,0-1,.72,0.81,0.81,0,0,0,.72-0.3A0.4,0.4,0,0,0,337.56,208.94Zm-0.9-2.28h0.18v0.18a0.32,0.32,0,0,1,.12-0.18l0.18-.12a1.31,1.31,0,0,0,.48-0.3,3.41,3.41,0,0,0,.48-0.3,0.22,0.22,0,0,1,.06-0.18,0.19,0.19,0,0,1-.06-0.12,2.64,2.64,0,0,0-1.08.72l-0.18.18Zm0,1.32c0.78-.54,1.44-1.08,2.22-1.62A4.12,4.12,0,0,0,336.66,208Zm0.18-1.32v-0.12H337a0.22,0.22,0,0,0,.06-0.18l0.12,0.18H337c0,0.06-.06.06-0.06,0.12h-0.12Zm0,12.48a0.45,0.45,0,0,0,.42-0.3A0.69,0.69,0,0,0,336.84,219.14Zm0.24-10.92a0.21,0.21,0,0,1-.12-0.06H337Zm0.36,1.8a0.61,0.61,0,0,0-.42.24A0.4,0.4,0,0,0,337.44,210Zm-0.12,8.82a1.12,1.12,0,0,1,.42-0.12c0.06-.12.18-0.18,0.24-0.3h0.24l0.18-.18v0.12a0.32,0.32,0,0,0,.18-0.12H338.4a0.32,0.32,0,0,1,.18-0.12c0-.06.06-0.06,0.06-0.12l0.24-.06c0.06-.06.12-0.06,0.18-0.12v0.12l0.12-.12h-0.12v-0.06a0.32,0.32,0,0,0,.18-0.12v0.12a0.22,0.22,0,0,0,.12-0.12,1,1,0,0,1,.3-0.12l0.18-.18h-0.12l0.18-.12v0.12a0.13,0.13,0,0,1,.12-0.12,1.32,1.32,0,0,0,.48-0.3V216.8l0.06,0.06,0.06-.06v-0.06h0.06a0.83,0.83,0,0,0,.48-0.3v-0.06h0.06v0.06a0.13,0.13,0,0,1,.12-0.12l0.18-.18a0.61,0.61,0,0,0,.48-0.3,0.31,0.31,0,0,1,.18-0.12,1.31,1.31,0,0,0,.48-0.3l0.18-.18a0.63,0.63,0,0,1,.3-0.12l0.18-.18a0.32,0.32,0,0,1,.18-0.12,0.18,0.18,0,0,0-.12-0.06V214.7c0.06,0,.06.06,0.12,0.06a0.64,0.64,0,0,0,.3-0.12l0.18-.18c0.18-.06.3-0.18,0.48-0.24l0.18-.18a1.31,1.31,0,0,0,.48-0.3,0.32,0.32,0,0,1,.18-0.12,0.19,0.19,0,0,0-.12-0.06V213.5c0.06,0,.06.06,0.12,0.06a0.64,0.64,0,0,0,.3-0.12,0.32,0.32,0,0,1,.18-0.12H345.6a0.22,0.22,0,0,0,.06-0.18,0.23,0.23,0,0,0,.12.12,0.72,0.72,0,0,0,.3-0.3h0.18c0.18-.06.3-0.18,0.48-0.24l0.18-.18a1.43,1.43,0,0,0,.3-0.3,0.12,0.12,0,0,0,.06-0.12l0.12,0.12c0.12-.12.24-0.18,0.36-0.3v-0.12a0.23,0.23,0,0,1,.12.12,2.45,2.45,0,0,1,.54-0.3h-0.06a2.41,2.41,0,0,1,.54-0.3h-0.06a3.28,3.28,0,0,0,.48-0.3l0.54-.3a3.37,3.37,0,0,1,.48-0.3,1.4,1.4,0,0,0,.3-0.3,0.12,0.12,0,0,0,.06-0.12l0.12,0.12c0.12-.12.24-0.18,0.36-0.3a0.22,0.22,0,0,1-.06-0.18,0.92,0.92,0,0,0-.42.3,1,1,0,0,0-.54.3,0.56,0.56,0,0,0-.42.3,0.81,0.81,0,0,0-.54.3,4.48,4.48,0,0,0-1.44.9,0.82,0.82,0,0,0-.48.3,1,1,0,0,0-.54.3,3.51,3.51,0,0,0-1.14.78,0.72,0.72,0,0,0-.48.3,1.56,1.56,0,0,0-.66.42,3.52,3.52,0,0,0-1.14.78,1166.14,1166.14,0,0,0-1.32.84,1.7,1.7,0,0,0-.66.48,8.58,8.58,0,0,0-1.32.9,3.64,3.64,0,0,0-.84.6,2.13,2.13,0,0,0-.6.42,2.64,2.64,0,0,0-.66.48A1.2,1.2,0,0,0,337.32,218.84Zm1.26-9.72a0.21,0.21,0,0,0-.12.06,2.9,2.9,0,0,0-.84.66,0.23,0.23,0,0,1-.12.12,0.13,0.13,0,0,0,.12-0.12,1.24,1.24,0,0,0,.84-0.6A0.23,0.23,0,0,0,338.58,209.12Zm0.36-.3a0.13,0.13,0,0,0-.12.12A0.22,0.22,0,0,0,338.94,208.82Zm0.36,8.7a0.21,0.21,0,0,0,.06.12h-0.12A0.21,0.21,0,0,0,339.3,217.52ZM340,217v0.18H339.9A0.32,0.32,0,0,0,340,217Zm1.32-.84v0.12a0.12,0.12,0,0,0-.12-0.06C341.28,216.26,341.28,216.2,341.34,216.2Zm0.06-.12c0.06,0,.06.06,0.12,0.06A0.12,0.12,0,0,1,341.4,216.08Zm0.6-.24v-0.12C342.06,215.78,342.06,215.78,342,215.84Zm0.18-.12a0.19,0.19,0,0,0-.12-0.06V215.6A0.23,0.23,0,0,1,342.18,215.72Zm0.54-.6,0.12,0.12h-0.18C342.72,215.24,342.72,215.18,342.72,215.12Zm0.6-.3v0.12h-0.18Zm1.2-.9,0.12,0.12h-0.18A0.12,0.12,0,0,0,344.52,213.92Zm2.28-1.5,0.12,0.12h-0.18A0.12,0.12,0,0,0,346.8,212.42Zm4.38-2.76a0.29,0.29,0,0,0,.3-0.12Zm0.36-.12a0.46,0.46,0,0,0,.24-0.12A0.24,0.24,0,0,0,351.54,209.54Zm0.3-.18H352l0.06-.06c0-.06-0.06-0.06-0.12-0.06A0.21,0.21,0,0,1,351.84,209.36Zm1.08,0.36a0.24,0.24,0,0,0-.24.12A0.46,0.46,0,0,1,352.92,209.72Z" transform="translate(-275.99 -151.35)"/>
    <path d="M367.38,208.88c-0.12.12-.18-0.06-0.36-0.06a0.12,0.12,0,0,1-.12-0.06,1.12,1.12,0,0,0-1.32-.42c-0.36.12-.66,0.18-1,0.3-1,.36-1.86.84-2.76,1.26a9.83,9.83,0,0,0-1.32.84,6.59,6.59,0,0,1-.66.36,0.49,0.49,0,0,0-.36.24,1.53,1.53,0,0,1-.66.54l-0.12.12v0.06c-0.18.06-.36,0.18-0.54,0.24v0.06a0.23,0.23,0,0,0-.12.12c0-.06-0.06-0.06-0.06-0.12V212.3a0.58,0.58,0,0,0-.36.3c-0.12.12-.3,0.18-0.42,0.3a2.26,2.26,0,0,0-.42.36l-0.12.12a1.08,1.08,0,0,0-.42.3h0.06a0.32,0.32,0,0,0-.12.18,0.64,0.64,0,0,0-.3.12l-0.12.18a1,1,0,0,0-.54.42l-0.12.18a0.87,0.87,0,0,0-.6.6h-0.06a0.12,0.12,0,0,1,.06.12,0.12,0.12,0,0,1-.06-0.12l-0.12.12a0.31,0.31,0,0,1-.12.18,0.47,0.47,0,0,0-.36.3,0.55,0.55,0,0,0-.3.3c0,0.06-.06.06-0.06,0.12a3.09,3.09,0,0,0-1.08,1.08h0.3c-0.12.18-.3,0.36-0.48,0.6a0.45,0.45,0,0,0-.06-0.3,1.64,1.64,0,0,0-.48.6,5.59,5.59,0,0,0-1.32,1.8l-0.12.12a0.32,0.32,0,0,0-.12.18,0.19,0.19,0,0,1-.12.06,0.45,0.45,0,0,1-.24.42,1.16,1.16,0,0,1-.78,0,1.4,1.4,0,0,1-1-.78,1.22,1.22,0,0,0-.36-0.42,0.85,0.85,0,0,1-.24-1c0.54-1.62,1-3.24,1.5-4.92,0.48-1.44,1-2.82,1.44-4.26a10.35,10.35,0,0,1,.66-1.92l0.18-.36a0.2,0.2,0,0,1,.3-0.06,1.42,1.42,0,0,1,.66.78,2.93,2.93,0,0,1,.06,1.44,27.19,27.19,0,0,0-.72,3.6,3.87,3.87,0,0,1-.12.42,0.33,0.33,0,0,0,.12.3,0.2,0.2,0,0,0,.3-0.06l0.6-.54a23.94,23.94,0,0,1,3.12-2.4c0.84-.6,1.68-1,2.58-1.56,1.14-.66,2.34-1.26,3.6-1.86a9.2,9.2,0,0,1,2.58-.78,2.47,2.47,0,0,1,2.22.78,5.72,5.72,0,0,1,1,1.14A0.31,0.31,0,0,1,367.38,208.88Zm-17.1,11.58h-0.12C350.16,220.4,350.22,220.4,350.28,220.46Zm13.92-12.18a8,8,0,0,0-2,.78,38.66,38.66,0,0,0-6.36,4.14c-2,1.68-3.48,3.78-5.34,5.64a0.81,0.81,0,0,0-.3.54v0.06h0.06a3.66,3.66,0,0,0,.78-0.9,33.92,33.92,0,0,1,5.46-5.52,24.86,24.86,0,0,1,7.14-4.38A1.08,1.08,0,0,0,364.2,208.28Zm-13.92,12h0.12a0.31,0.31,0,0,1-.12.18v-0.18Zm0.12,0v-0.12h0.12Zm0.12-.12a0.22,0.22,0,0,1,.12-0.12A0.23,0.23,0,0,1,350.52,220.16Zm0.18-.24a0.21,0.21,0,0,1-.06.12C350.64,220,350.7,220,350.7,219.92Zm0.12-.06a0.21,0.21,0,0,1-.12.06,0.22,0.22,0,0,0,.12-0.12l0.12-.12Zm0.24-.3-0.12.12c0-.06.06-0.06,0.06-0.12l0.12-.12A0.12,0.12,0,0,1,351.06,219.56Zm0.06-.12,0.06-.06A0.06,0.06,0,0,1,351.12,219.44Zm0.06-.06c0-.06.06-0.06,0.06-0.12l0.18-.18a0.32,0.32,0,0,0-.12.18A0.23,0.23,0,0,1,351.18,219.38Zm0.24-.3,0.12-.18h0.06l-0.06.06A0.23,0.23,0,0,0,351.42,219.08Zm0.6-4.2a0.56,0.56,0,0,0,.36-0.24A0.64,0.64,0,0,0,352,214.88Zm0.12,3.3,0.12-.12A0.23,0.23,0,0,1,352.14,218.18Zm0.66-.72h-0.06a0.32,0.32,0,0,0,.12-0.18C352.86,217.34,352.8,217.4,352.8,217.46Zm0.24-.3-0.18.12,0.12-.12,0.12-.18,0.12-.12,0.18-.18a0.32,0.32,0,0,0-.12.18,0.23,0.23,0,0,0-.12.12A0.32,0.32,0,0,0,353,217.16ZM352.92,214a0.46,0.46,0,0,0,.36-0.3A1.55,1.55,0,0,0,352.92,214Zm0.48,2.7a0.13,0.13,0,0,1,.12-0.12A0.22,0.22,0,0,0,353.4,216.68Zm0.06-3.18h0.3c0-.06.06-0.18,0.06-0.24A0.41,0.41,0,0,0,353.46,213.5Zm0.06,2.88h0.12a0.23,0.23,0,0,1-.12.12v-0.12Zm0.12-.12h0.12l-0.12.12v-0.12Zm0.12-.18h0.12l-0.12.18v-0.18Zm0.12-2.88a0.21,0.21,0,0,1,.12-0.06,0.36,0.36,0,0,1,.24-0.06,0.21,0.21,0,0,0,.06.12,0.4,0.4,0,0,0,.36-0.24h-0.3a1.48,1.48,0,0,1,.12-0.3h0.3v0.12l0.3-.12h-0.3a0.46,0.46,0,0,1,.12-0.3h0.3v0.12a0.46,0.46,0,0,1,.24-0.12H355.2a0.31,0.31,0,0,1,.12-0.24,0.36,0.36,0,0,1,.24-0.06,0.21,0.21,0,0,1,.06.12,0.31,0.31,0,0,0,.24-0.12h-0.3c0.06-.12.12-0.18,0.18-0.3H356v0.12a0.46,0.46,0,0,0,.3-0.12,0.62,0.62,0,0,0,.36-0.3h-0.3a0.12,0.12,0,0,0,.06-0.12l0.24-.06a0.22,0.22,0,0,0,.06.18,0.63,0.63,0,0,0,.24-0.18,0.69,0.69,0,0,0,.42-0.3,0.31,0.31,0,0,0,.24-0.12,1.12,1.12,0,0,0,.66-0.48v-0.12a0.12,0.12,0,0,0,.06.12,0.46,0.46,0,0,0,.24-0.12c0.12-.06.24-0.06,0.24-0.18h-0.24c0.06-.06.18-0.06,0.24-0.12a0.12,0.12,0,0,0,.06.12,0.46,0.46,0,0,0,.24-0.12l-0.24-.06a0.86,0.86,0,0,0,.24-0.12v0.12a0.86,0.86,0,0,0,.66-0.42l0.3-.12a0.37,0.37,0,0,0,.24-0.18,0.46,0.46,0,0,0,.3-0.12,2.27,2.27,0,0,0,.42-0.36v0.06l0.24-.18v-0.12a0.54,0.54,0,0,0,.3-0.06v-0.12a0.64,0.64,0,0,0,.66-0.18V208h0.3c0-.06,0-0.12-0.06-0.12a0.24,0.24,0,0,0-.24.12,0.81,0.81,0,0,0-.72.3,0.28,0.28,0,0,0-.3.12,18,18,0,0,0-3,1.62,3.46,3.46,0,0,0-1.2.78,1.43,1.43,0,0,0-.72.42,2.64,2.64,0,0,0-.66.48,1.82,1.82,0,0,0-.42.3,0.53,0.53,0,0,0-.36.36,0.38,0.38,0,0,0-.36.3,0.76,0.76,0,0,0-.54.42C353.94,213.14,353.88,213.14,353.88,213.2Zm0,2.76h0.24a0.86,0.86,0,0,1-.24.12V216Zm0.24,0,0.18-.18a0.32,0.32,0,0,0-.12.18h-0.06Zm0.12-.3h0.18a0.23,0.23,0,0,0-.12.12C354.3,215.72,354.24,215.72,354.24,215.66Zm0.12-.18h0.18c-0.06.06-.06,0.12-0.12,0.18A0.22,0.22,0,0,0,354.36,215.48Zm0.54-.24,0.12-.18c0,0.06-.06.12-0.06,0.18H354.9Zm0.3-.36c0-.06-0.06-0.06-0.06-0.12h0.12C355.26,214.82,355.2,214.82,355.2,214.88Zm0.06-.3h0.3a0.82,0.82,0,0,0-.24.18C355.32,214.7,355.26,214.64,355.26,214.58Zm0.42-.12a0.23,0.23,0,0,1-.12.12A0.22,0.22,0,0,1,355.68,214.46Zm0,0,0.12-.18A0.32,0.32,0,0,1,355.68,214.46Zm0.12-.3h0.12l-0.12.12v-0.12Zm0.12-.18h0.3l-0.3.18V214Zm0,0.18h0Zm0.36-2.58v0.18H356A1.3,1.3,0,0,1,356.28,211.58Zm-0.06,2.28h0.12a0.23,0.23,0,0,0-.12.12v-0.12Zm0.12-.18h0.24l-0.24.18v-0.18Zm0.24,0,0.18-.18v0.06a0.23,0.23,0,0,0-.12.12h-0.06Zm0.36-2.58v0.18h-0.3Zm-0.18,2.4a0.21,0.21,0,0,1-.06-0.12h0.18Zm0.54-2.64a0.21,0.21,0,0,1,.06.12h-0.3v-0.12h0.24Zm0.3-.18v0.18h-0.3Zm0.06,1.92v0.18C357.66,212.66,357.6,212.66,357.66,212.6Zm0.06,0.24-0.06-.06A0.06,0.06,0,0,1,357.72,212.84Zm0.78-2.76a0.22,0.22,0,0,1,.06.18,0.36,0.36,0,0,0-.24-0.06v-0.06A0.22,0.22,0,0,0,358.5,210.08Zm4-2.28a0.38,0.38,0,0,0,.36-0.12A0.5,0.5,0,0,0,362.52,207.8Z" transform="translate(-275.99 -151.35)"/>
    <path d="M388.32,209.6a19,19,0,0,0-4.2,2.28c-0.6.42-1.26,0.78-1.86,1.14-1.08.84-2.34,1.5-3.48,2.28s-2.1,1.5-3.12,2.34c-0.48.36-1,.78-1.44,1.2h-0.06c-0.72.54-1.44,1-2.16,1.5a33.87,33.87,0,0,1-3.72,2.22,5.93,5.93,0,0,1-2.22.66,2.91,2.91,0,0,1-2.4-.84,3.81,3.81,0,0,1-1-3.48,16.18,16.18,0,0,1,1.56-4.62,26,26,0,0,1,2.22-3.66,1.91,1.91,0,0,0,.3-0.6,3.12,3.12,0,0,1,1.2-1.44,3.22,3.22,0,0,0,.9-0.9,20,20,0,0,1,2.4-2.1,13.51,13.51,0,0,1,1.32-.66,1.65,1.65,0,0,1,1.86.36c0.84,0.84.9,1.56-.12,2.64a16,16,0,0,1-2.58,2.34,8,8,0,0,1-3,1.38,1,1,0,0,0-.78.48,2.65,2.65,0,0,0-.48.66,31.2,31.2,0,0,0-1.8,3.42c-0.06.12-.06,0.24-0.12,0.36v0.18a4.38,4.38,0,0,0-.48,1.5,9.21,9.21,0,0,0-.36,1.86,3.6,3.6,0,0,0,0,1.14,0.34,0.34,0,0,0,.48.3,4.06,4.06,0,0,0,1.2-.42,17.17,17.17,0,0,0,2.52-1.44c1.44-.9,2.82-1.86,4.2-2.76,2.16-1.44,4.26-2.88,6.42-4.26,1.68-1.08,3.36-2.16,5.1-3.12,0.42-.24.9-0.48,1.38-0.72a5.48,5.48,0,0,1,.84-0.42,0.84,0.84,0,0,1,.9.24A1.14,1.14,0,0,1,388.32,209.6ZM370,209.54A1.86,1.86,0,0,0,371,209a10.33,10.33,0,0,0,.84-0.66c0.42-.36.78-0.78,1.2-1.2a0.18,0.18,0,0,0,0-.24,0.11,0.11,0,0,0-.18,0,3.31,3.31,0,0,0-1.56,1.14h-0.06a0.13,0.13,0,0,1-.12.12v0.06A4.21,4.21,0,0,0,370,209.54Zm0.36,10.08a0.13,0.13,0,0,0-.12.12A0.23,0.23,0,0,1,370.32,219.62Zm0.06-.06a0.45,0.45,0,0,0,.42-0.24A0.61,0.61,0,0,0,370.38,219.56Zm0.3-12.72h0.18v-0.12A0.32,0.32,0,0,0,370.68,206.84Zm16.14,3a0.52,0.52,0,0,0-.42.3,0.44,0.44,0,0,0-.36.12,1.26,1.26,0,0,0-.42.18,34.27,34.27,0,0,0-3.48,2.22,4.91,4.91,0,0,0-1.2.72c-0.24.18-.54,0.3-0.78,0.48-1.08.72-2.16,1.44-3.12,2.22l-0.6.36c-1.38,1-2.76,2-4.14,3a2.14,2.14,0,0,0-.66.6,0.53,0.53,0,0,0-.48.3,1.3,1.3,0,0,0-.48.3,0.83,0.83,0,0,0,.48-0.3,0.61,0.61,0,0,0,.48-0.3,2.61,2.61,0,0,0,.9-0.48c0.9-.6,1.74-1.26,2.64-1.86,0.66-.48,1.26-1,1.92-1.5,1.38-.84,2.64-1.74,4-2.7a3.51,3.51,0,0,0,1.14-.78,1,1,0,0,0,.36-0.18c1-.6,2.1-1.26,3.12-1.92a0.94,0.94,0,0,0,.36-0.3l0.36-.18A0.56,0.56,0,0,0,386.82,209.84Zm-15.06-.9a10,10,0,0,0-1,.72,0.81,0.81,0,0,0,.72-0.3A0.4,0.4,0,0,0,371.76,208.94Zm-0.9-2.28H371v0.18a0.32,0.32,0,0,1,.12-0.18l0.18-.12a1.31,1.31,0,0,0,.48-0.3,3.41,3.41,0,0,0,.48-0.3,0.22,0.22,0,0,1,.06-0.18,0.19,0.19,0,0,1-.06-0.12,2.64,2.64,0,0,0-1.08.72l-0.18.18Zm0,1.32c0.78-.54,1.44-1.08,2.22-1.62A4.13,4.13,0,0,0,370.86,208Zm0.18-1.32v-0.12h0.12a0.22,0.22,0,0,0,.06-0.18l0.12,0.18h-0.12c0,0.06-.06.06-0.06,0.12H371Zm0,12.48a0.45,0.45,0,0,0,.42-0.3A0.69,0.69,0,0,0,371,219.14Zm0.24-10.92a0.21,0.21,0,0,1-.12-0.06h0.06Zm0.36,1.8a0.61,0.61,0,0,0-.42.24A0.4,0.4,0,0,0,371.64,210Zm-0.12,8.82a1.12,1.12,0,0,1,.42-0.12c0.06-.12.18-0.18,0.24-0.3h0.24l0.18-.18v0.12a0.32,0.32,0,0,0,.18-0.12H372.6a0.32,0.32,0,0,1,.18-0.12c0-.06.06-0.06,0.06-0.12l0.24-.06c0.06-.06.12-0.06,0.18-0.12v0.12l0.12-.12h-0.12v-0.06a0.31,0.31,0,0,0,.18-0.12v0.12a0.22,0.22,0,0,0,.12-0.12,1,1,0,0,1,.3-0.12l0.18-.18h-0.12l0.18-.12v0.12a0.13,0.13,0,0,1,.12-0.12,1.32,1.32,0,0,0,.48-0.3V216.8l0.06,0.06,0.06-.06v-0.06h0.06a0.82,0.82,0,0,0,.48-0.3v-0.06h0.06v0.06a0.13,0.13,0,0,1,.12-0.12l0.18-.18a0.61,0.61,0,0,0,.48-0.3,0.32,0.32,0,0,1,.18-0.12,1.31,1.31,0,0,0,.48-0.3l0.18-.18a0.63,0.63,0,0,1,.3-0.12l0.18-.18a0.32,0.32,0,0,1,.18-0.12,0.18,0.18,0,0,0-.12-0.06V214.7c0.06,0,.06.06,0.12,0.06a0.64,0.64,0,0,0,.3-0.12l0.18-.18c0.18-.06.3-0.18,0.48-0.24l0.18-.18a1.31,1.31,0,0,0,.48-0.3,0.32,0.32,0,0,1,.18-0.12,0.19,0.19,0,0,0-.12-0.06V213.5c0.06,0,.06.06,0.12,0.06a0.64,0.64,0,0,0,.3-0.12,0.32,0.32,0,0,1,.18-0.12H379.8a0.22,0.22,0,0,0,.06-0.18,0.23,0.23,0,0,0,.12.12,0.72,0.72,0,0,0,.3-0.3h0.18c0.18-.06.3-0.18,0.48-0.24l0.18-.18a1.43,1.43,0,0,0,.3-0.3,0.12,0.12,0,0,0,.06-0.12l0.12,0.12c0.12-.12.24-0.18,0.36-0.3v-0.12a0.23,0.23,0,0,1,.12.12,2.45,2.45,0,0,1,.54-0.3h-0.06a2.43,2.43,0,0,1,.54-0.3H383a3.28,3.28,0,0,0,.48-0.3l0.54-.3a3.37,3.37,0,0,1,.48-0.3,1.43,1.43,0,0,0,.3-0.3,0.12,0.12,0,0,0,.06-0.12l0.12,0.12c0.12-.12.24-0.18,0.36-0.3a0.22,0.22,0,0,1-.06-0.18,0.92,0.92,0,0,0-.42.3,1,1,0,0,0-.54.3,0.56,0.56,0,0,0-.42.3,0.81,0.81,0,0,0-.54.3,4.49,4.49,0,0,0-1.44.9,0.82,0.82,0,0,0-.48.3,1,1,0,0,0-.54.3,3.51,3.51,0,0,0-1.14.78,0.72,0.72,0,0,0-.48.3,1.57,1.57,0,0,0-.66.42,3.52,3.52,0,0,0-1.14.78,11405339.17,11405339.17,0,0,1-1.32.84,1.7,1.7,0,0,0-.66.48,8.58,8.58,0,0,0-1.32.9,3.64,3.64,0,0,0-.84.6,2.13,2.13,0,0,0-.6.42,2.64,2.64,0,0,0-.66.48A1.2,1.2,0,0,0,371.52,218.84Zm1.26-9.72a0.21,0.21,0,0,0-.12.06,2.89,2.89,0,0,0-.84.66,0.23,0.23,0,0,1-.12.12,0.13,0.13,0,0,0,.12-0.12,1.24,1.24,0,0,0,.84-0.6A0.23,0.23,0,0,0,372.78,209.12Zm0.36-.3a0.13,0.13,0,0,0-.12.12A0.22,0.22,0,0,0,373.14,208.82Zm0.36,8.7a0.21,0.21,0,0,0,.06.12h-0.12A0.21,0.21,0,0,0,373.5,217.52Zm0.72-.48v0.18H374.1A0.32,0.32,0,0,0,374.22,217Zm1.32-.84v0.12a0.12,0.12,0,0,0-.12-0.06C375.48,216.26,375.48,216.2,375.54,216.2Zm0.06-.12c0.06,0,.06.06,0.12,0.06A0.12,0.12,0,0,1,375.6,216.08Zm0.6-.24v-0.12C376.26,215.78,376.26,215.78,376.2,215.84Zm0.18-.12a0.19,0.19,0,0,0-.12-0.06V215.6A0.23,0.23,0,0,1,376.38,215.72Zm0.54-.6,0.12,0.12h-0.18C376.92,215.24,376.92,215.18,376.92,215.12Zm0.6-.3v0.12h-0.18Zm1.2-.9,0.12,0.12h-0.18A0.12,0.12,0,0,0,378.72,213.92Zm2.28-1.5,0.12,0.12h-0.18A0.12,0.12,0,0,0,381,212.42Zm4.38-2.76a0.29,0.29,0,0,0,.3-0.12Zm0.36-.12a0.46,0.46,0,0,0,.24-0.12A0.24,0.24,0,0,0,385.74,209.54Zm0.3-.18h0.12l0.06-.06c0-.06-0.06-0.06-0.12-0.06A0.21,0.21,0,0,1,386,209.36Zm1.08,0.36a0.24,0.24,0,0,0-.24.12A0.46,0.46,0,0,1,387.12,209.72Z" transform="translate(-275.99 -151.35)"/>
    <path d="M408.6,210.2h0.3a0.72,0.72,0,0,1-.3.3,8.69,8.69,0,0,1-.78.48,39.33,39.33,0,0,0-3.48,1.92l-0.78.42c-1.14.72-2.34,1.38-3.48,2.1-0.72.42-1.38,0.78-2.1,1.14a9.18,9.18,0,0,1-1.2.36,2.08,2.08,0,0,1-2.34-.78,4.61,4.61,0,0,1-.48-0.66,1.67,1.67,0,0,1-.3-1.5,8.87,8.87,0,0,1,.78-2.1l0.36-1c0.06-.18-0.06-0.3-0.3-0.24a4.58,4.58,0,0,0-.66.24c-0.9.42-1.8,0.9-2.7,1.38a13.29,13.29,0,0,1-1.38.9,1.3,1.3,0,0,0-.3.24,8.48,8.48,0,0,0-.9.66h0.06c-1,.78-1.92,1.56-2.94,2.28a2.94,2.94,0,0,1-1.2.66,1.75,1.75,0,0,1-2-.48l-0.3-.36a1.22,1.22,0,0,1-.36-1.38,9,9,0,0,1,.9-2.22c0.36-.6.66-1.14,1-1.74a40.36,40.36,0,0,1,2.64-3.9c0.72-1,1.56-1.92,2.4-2.88,0.36-.36.78-0.72,1.2-1.08,0.18-.12.3-0.18,0.48,0.06s0.3,0,.3.24a1.08,1.08,0,0,1-.06.6l-0.36.48c-0.84,1.26-1.68,2.4-2.52,3.66a2,2,0,0,0-.36.72,11.91,11.91,0,0,0-1.5,2.34,0.45,0.45,0,0,1-.06.24c-0.06.12-.12,0.12-0.18,0.24v0.18c-0.06.12-.18,0.24-0.24,0.36a0.37,0.37,0,0,0-.12.42,1.24,1.24,0,0,0-.24.36,0.51,0.51,0,0,0-.3.66,0.22,0.22,0,0,0,.3.12c0.24-.12.42-0.36,0.72-0.54a23.65,23.65,0,0,1,4.26-3,21.24,21.24,0,0,1,2.88-1.38,4.38,4.38,0,0,1,1.14-.42,2,2,0,0,1,2,.42,6.39,6.39,0,0,1,1,1.2,1.68,1.68,0,0,1,.12,1.2,6.61,6.61,0,0,1-.54,1.86c-0.18.42-.3,0.9-0.54,1.38a0.22,0.22,0,0,0,.06.18h0.24c0.18-.06.36-0.18,0.54-0.24,0.9-.48,1.8-0.9,2.58-1.32,1.56-.78,3.12-1.5,4.56-2.34,0.6-.3,1.26-0.54,1.8-0.78,0.3-.18.6-0.3,0.84-0.42a5.61,5.61,0,0,0,.6-0.3,1.2,1.2,0,0,1,1.44.42,0.2,0.2,0,0,1,.06.3A0.42,0.42,0,0,0,408.6,210.2Zm-23.52,4.56a1.46,1.46,0,0,0,.66-0.54h0.18c0.06,0,.06.06,0.06,0.12a0.13,0.13,0,0,1,.12-0.12l0.12-.12H386.1l0.12-.18a0.22,0.22,0,0,0,.06.18,0.51,0.51,0,0,1,.18-0.18h-0.24a0.71,0.71,0,0,1,.42-0.24v0.12c0.06,0,.06-0.06.06-0.12h-0.06a0.19,0.19,0,0,0,.06-0.12,0.32,0.32,0,0,1,.18-0.12v0.12h-0.12v0.12a0.23,0.23,0,0,1,.12-0.12,0.77,0.77,0,0,0,.36-0.24H387a0.45,0.45,0,0,1,.42-0.3v0.12a0.19,0.19,0,0,0,.06-0.12h-0.06a0.23,0.23,0,0,0,.12-0.12,0.72,0.72,0,0,1,.3-0.3,0.87,0.87,0,0,1,.24-0.12,0.49,0.49,0,0,1,.36-0.24v0.12l0.12-.12h-0.12a0.13,0.13,0,0,0,.12-0.12l0.18-.24H389a1.6,1.6,0,0,0,.12-0.3,1380.34,1380.34,0,0,0,.72-0.48,0.43,0.43,0,0,0-.36.24,3903.11,3903.11,0,0,0-.84.48,2.92,2.92,0,0,0-.84.66,9.59,9.59,0,0,0-2.1,1.68,1.31,1.31,0,0,0-.6.54l-0.18.18A0.32,0.32,0,0,1,385.08,214.76Zm5.82-2.88a0.75,0.75,0,0,0-.66.36,0.65,0.65,0,0,0-.42.18,36.12,36.12,0,0,0-3.84,2.94,1.61,1.61,0,0,0-.12.3,0.51,0.51,0,0,0-.36.18,0.52,0.52,0,0,0,.36-0.18,2.28,2.28,0,0,0,.84-0.66c1.14-.84,2.22-1.8,3.42-2.58l0.12-.18A0.91,0.91,0,0,0,390.9,211.88Zm-5,2.34c0.06-.06.12-0.06,0.18-0.12v0.12h-0.18Zm2.7-2.1v0.12l0.18-.12h-0.18Zm12.06,2.34a0.55,0.55,0,0,0-.36.24A1.24,1.24,0,0,0,400.68,214.46Zm0.6-.36a1.24,1.24,0,0,0-.36.24,0.46,0.46,0,0,0-.18.12l0.18-.12A0.56,0.56,0,0,0,401.28,214.1Zm0.24-.18a0.2,0.2,0,0,1-.18.12C401.46,214,401.52,214,401.52,213.92Zm0.72-.36a0.55,0.55,0,0,0-.36.24A0.5,0.5,0,0,0,402.24,213.56Zm0.24-.12a0.26,0.26,0,0,0-.18.06A0.29,0.29,0,0,0,402.48,213.44Zm0.24-1.32-0.18.12A0.17,0.17,0,0,0,402.72,212.12Zm0,1.2a0.32,0.32,0,0,0-.18.12Zm0.66-.42a0.87,0.87,0,0,0-.6.42A2.16,2.16,0,0,0,403.38,212.9Zm0.3-.12a0.23,0.23,0,0,0-.24.12A0.86,0.86,0,0,0,403.68,212.78Zm0.18-.12a0.3,0.3,0,0,0-.18.06A0.27,0.27,0,0,0,403.86,212.66Zm0.72-.42c-0.06.06-.18,0.06-0.24,0.12A0.31,0.31,0,0,0,404.58,212.24Zm0.24-.06c-0.06,0-.18,0-0.18.06A0.61,0.61,0,0,1,404.82,212.18Zm1.2-.72a0.31,0.31,0,0,0-.24.12,1,1,0,0,0-.66.42,1.14,1.14,0,0,0,.66-0.42A0.86,0.86,0,0,1,406,211.46Zm1.14-.66c-0.06,0-.06.06-0.12,0.06l-0.06.06c0,0.06.06,0.06,0.12,0A0.12,0.12,0,0,1,407.16,210.8Z" transform="translate(-275.99 -151.35)"/>
    <path d="M422,208.22a1.43,1.43,0,0,1-.12.48,0.32,0.32,0,0,1-.12.18c-1,.78-2,1.56-3,2.34-1.38,1.08-2.82,2.16-4.14,3.24-2.34,1.74-4.62,3.54-7,5.28a17.48,17.48,0,0,1-2.22,1.44,3.38,3.38,0,0,1-1.08.42,1.25,1.25,0,0,1-1.14-.3l-0.3-.18a1.5,1.5,0,0,1-.66-1.62,8.46,8.46,0,0,1,.66-2.7,4,4,0,0,0,.54-1.14,31.76,31.76,0,0,1,2-3.72c0.72-1.32,1.44-2.58,2.22-3.84s1.68-2.46,2.64-3.66a1,1,0,0,1,.48-0.36,0.83,0.83,0,0,1,.48,1.32,11.66,11.66,0,0,1-1,2.16c-0.3.48-.54,1-0.78,1.44a0.46,0.46,0,0,0-.12.24h0.12a0.41,0.41,0,0,0-.18.3,2.57,2.57,0,0,0-.54.6,8.48,8.48,0,0,1-.78,1.44,2.11,2.11,0,0,1-.24.54,0.85,0.85,0,0,0-.12.24,0.12,0.12,0,0,0,.12.06h-0.12a2.21,2.21,0,0,0-.66,1.14,1.58,1.58,0,0,0-.42.9,1.89,1.89,0,0,0-.48.9,2.72,2.72,0,0,0-.6,1.26,0.17,0.17,0,0,1-.12.18,8.94,8.94,0,0,0-1,2.34,2.9,2.9,0,0,0-.06.72,0.28,0.28,0,0,0,.3.18,1.35,1.35,0,0,0,.3-0.18l1.14-.72c0.54-.36,1-0.78,1.56-1.14,1.26-1,2.58-1.92,3.84-2.82,1-.72,1.92-1.32,2.82-2,1.38-1,2.82-2,4.2-3.12l2.52-1.8a0.73,0.73,0,0,1,.9-0.12Zm-17.16,8.64v0Zm0.3-.66a1,1,0,0,0,.18-0.36,1.48,1.48,0,0,1,.12-0.3v-0.06c-0.06.12-.06,0.24-0.12,0.36a0.79,0.79,0,0,1-.18.3v0.06Zm0.6-1.26a0.12,0.12,0,0,0,.12-0.06,0.06,0.06,0,0,1-.06-0.06C405.78,214.88,405.72,214.88,405.72,214.94Zm0.72-1.2c0-.12.06-0.18,0.06-0.3A2.59,2.59,0,0,0,406.44,213.74Zm6.84-12.66a1,1,0,0,1-.3-0.9,3,3,0,0,1,.3-0.78,20.06,20.06,0,0,1,2.16-2.88,3.14,3.14,0,0,1,.66-0.6,0.55,0.55,0,0,1,.72,0,3.3,3.3,0,0,0,.54.42,5.13,5.13,0,0,1-.48.6,1,1,0,0,0-.54.54,0.41,0.41,0,0,0-.3.42,0.85,0.85,0,0,1,.36-0.42,3.93,3.93,0,0,1,.48-0.54c0.24-.06.36-0.12,0.66-0.18a2.42,2.42,0,0,0-.24.3,4.15,4.15,0,0,0-1.38,1.32,11.88,11.88,0,0,0-1.14,1.86,6.51,6.51,0,0,1-.78,1A0.63,0.63,0,0,1,413.28,201.08Zm2.82-4.5h0.06a0.24,0.24,0,0,0,.3-0.24H416.4c-0.12-.06-0.18-0.06-0.24.06A0.22,0.22,0,0,0,416.1,196.58Z" transform="translate(-275.99 -151.35)"/>
    <path d="M484.37,175a0.31,0.31,0,0,1-.48-0.06,8.77,8.77,0,0,0-3-.72q-2.07-.27-4.14-0.36c-4.2-.24-8.4-0.3-12.54-0.24h-7l-7.86.18c-3.18.06-6.42,0.18-9.6,0.3-0.9,0-1.86.06-2.76,0.06a1.26,1.26,0,0,0-1.08.6c-0.54,1-1,1.92-1.56,2.94v0.12c-0.06.12-.12,0.18-0.18,0.3h0.06c-0.06.12-.12,0.18-0.18,0.3a0.51,0.51,0,0,0-.18.3,0.46,0.46,0,0,0-.12.3,0.51,0.51,0,0,0-.18.3,0.46,0.46,0,0,0-.12.3l-0.18.3a0.45,0.45,0,0,0-.12.3,0.51,0.51,0,0,0-.18.3,0.46,0.46,0,0,1-.12.3,0.79,0.79,0,0,0-.18.3,0.46,0.46,0,0,0-.12.3l-0.18.3a0.45,0.45,0,0,1-.12.3,1.28,1.28,0,0,1-.18.3,3.23,3.23,0,0,0-.6,1.2,0.46,0.46,0,0,1-.12.3,6.1,6.1,0,0,0-.78,1.68,0.46,0.46,0,0,0-.12.3,0.5,0.5,0,0,0-.18.3,0.63,0.63,0,0,1-.12.3,3.65,3.65,0,0,0-.54,1.08,0.54,0.54,0,0,0-.06.6,1.31,1.31,0,0,0-.18.3l0.06-.06a1.46,1.46,0,0,0-.36.48,0.63,0.63,0,0,1-.12.3,2.22,2.22,0,0,0-.48,1.08v-0.06a0.64,0.64,0,0,1-.12.3,1.26,1.26,0,0,0-.3.78,0.51,0.51,0,0,0-.18.3,1,1,0,0,0-.24.72,1.19,1.19,0,0,0-.36.78l-0.12.3a5.69,5.69,0,0,0-.78,2c-0.06.06-.06,0.18-0.12,0.24s0.12,0,.12.06h-0.12l-0.18.36a0.29,0.29,0,0,0,.06.42l-0.36.36a1.7,1.7,0,0,0-.24.78,0.55,0.55,0,0,0-.18.42,1.27,1.27,0,0,0-.3.78,0.64,0.64,0,0,0-.12.3,0.5,0.5,0,0,0-.18.48,1.32,1.32,0,0,0-.18.3,1.12,1.12,0,0,0-.12.42,2.25,2.25,0,0,0-.36.78,0.64,0.64,0,0,0,.06.48,1.08,1.08,0,0,0-.3.42,0.27,0.27,0,0,0,0,.3l-0.18.42c-0.06-.06-0.06-0.06-0.12,0a2.85,2.85,0,0,0-.36.9l-0.12.48a0.18,0.18,0,0,1,0,.24v0.06a1.88,1.88,0,0,0-.3.6,1.6,1.6,0,0,0-.12.3,0.87,0.87,0,0,0-.12.42,0.45,0.45,0,0,0-.12.24,1.12,1.12,0,0,1-.3.84,1,1,0,0,0-.24.72A11.94,11.94,0,0,0,421,210a1.48,1.48,0,0,0-.3.9,3.64,3.64,0,0,1-.3.72,3.35,3.35,0,0,0-.24.72l-0.18.66a2,2,0,0,0-.3,1v0.18a2.79,2.79,0,0,0-.3.6,2.67,2.67,0,0,0-.3.9,8.32,8.32,0,0,0-.6,2,1.37,1.37,0,0,0-.36.72l-0.54,2c-0.06.12-.12,0.3-0.18,0.42a1.42,1.42,0,0,0-.12.48l-0.18.42c-0.24.78-.48,1.62-0.72,2.4a2.86,2.86,0,0,0-.36,1.08H416l-0.18.48v-0.06a2.65,2.65,0,0,0-.3.9,2.45,2.45,0,0,0-.3,1.08,1.1,1.1,0,0,0-.12.42,1.16,1.16,0,0,0-.18.6,1.42,1.42,0,0,0-.12.48l-0.18.48v-0.06c-0.12.54-.3,1-0.42,1.56V231a2.45,2.45,0,0,0-.3,1.08,2.25,2.25,0,0,0-.3,1.08,1.14,1.14,0,0,0-.3.6L413,235a3.52,3.52,0,0,0-.18,1.14,5.1,5.1,0,0,1-.24,1.32,1.11,1.11,0,0,1-.42.72,0.15,0.15,0,0,1-.24-0.06c-0.06-.12-0.12-0.12-0.18,0-0.3.24-.3,0.24-0.54,0.06a1,1,0,0,0-.6-0.36c-0.36,0-.48-0.24-0.36-0.66,0.3-1.26.6-2.58,1-3.84,0.48-1.62.9-3.3,1.38-4.92,0.6-2,1.08-4,1.8-5.94,0.18-.66.3-1.26,0.54-1.92,0.3-1,.66-2,1-3.12s0.54-1.92.84-2.88,0.72-2.1,1-3.12l1.38-4.26c0.36-1.14.78-2.22,1.14-3.36,0.66-1.8,1.38-3.6,2-5.34,0.42-1.14.9-2.22,1.32-3.3s0.78-1.92,1.2-2.94l1.62-3.6c0.6-1.56,1.44-3.06,2.16-4.62,1-2.22,2.1-4.38,3.24-6.54l1.2-2.28c0.36-.66.24-0.78-0.42-0.72-1.32,0-2.64.12-3.9,0.18l-6.12.36c-0.9.06-1.8,0.18-2.64,0.24l-2,.18c-1.86.18-3.72,0.3-5.52,0.48-2,.24-4,0.42-5.88.66l-4,.54c-1.14.12-2.28,0.3-3.42,0.42s-2.16.3-3.24,0.48-2.4.3-3.6,0.48c-1.44.18-2.82,0.36-4.2,0.6s-2.7.24-4,.36a6.75,6.75,0,0,1-1.92-.12,1.29,1.29,0,0,1-1.14-.66V178.4c0.06,0,.18-0.06.24-0.06a3.39,3.39,0,0,0,1.56.12A30.14,30.14,0,0,0,386,178c2-.3,4.08-0.66,6.06-1,1.2-.18,2.34-0.42,3.48-0.6,2.7-.48,5.46-0.9,8.16-1.32,1.38-.18,2.7-0.36,4.08-0.6,1.14-.18,2.34-0.3,3.48-0.42l3.36-.36c0.9-.12,1.74-0.18,2.64-0.24l4.08-.36c1.14-.12,2.22-0.18,3.3-0.24,1.62-.12,3.24-0.18,4.8-0.3h1.2l3.48-.18a0.69,0.69,0,0,0,.66-0.36,4,4,0,0,0,.54-0.84c0.36-.72.84-1.38,1.26-2.1,0.54-1,1.14-1.92,1.74-2.82s1.2-2,1.86-2.94c0.6-.78,1.08-1.62,1.62-2.4,0.84-1.2,1.68-2.34,2.58-3.54s1.92-2.46,2.94-3.66c0.54-.66,1.14-1.32,1.74-2a0.82,0.82,0,0,1,.24-0.18,0.3,0.3,0,0,1,.42-0.12,0.52,0.52,0,0,1,.36.54,1.42,1.42,0,0,1-.12.48,7.88,7.88,0,0,1-.6.9c-1,1.44-2,2.82-3,4.32s-1.86,2.76-2.76,4.2a8,8,0,0,0-.36.72v0.12a2.48,2.48,0,0,0-.6.78,1.9,1.9,0,0,0-.48.72,3,3,0,0,0-.6.9,7.64,7.64,0,0,0-.9,1.5,14.46,14.46,0,0,0-.78,1.26,3.33,3.33,0,0,0-.54,1,1.31,1.31,0,0,0-.18.3,0.91,0.91,0,0,0-.42.72,2.17,2.17,0,0,0-.6,1.08l-0.18.3a0.29,0.29,0,0,0-.12.3,0.32,0.32,0,0,1-.18.12v0.06c-0.06.06-.06,0.18-0.12,0.24s0.06,0.06.12,0.06a0.79,0.79,0,0,0,.6.18c1.26-.06,2.52-0.06,3.78-0.06,1.56-.06,3.06-0.12,4.62-0.12,4-.12,8-0.12,11.94-0.18,4.56,0,9.06,0,13.62.06,2,0.06,4,.18,6,0.3a21.47,21.47,0,0,1,3.84.66,4.29,4.29,0,0,1,2.1,1.44,0.64,0.64,0,0,1,.12.3A0.37,0.37,0,0,1,484.37,175Zm-72.3,57.84c-0.06.12-.06,0.24-0.12,0.36a0.18,0.18,0,0,0,.12.06v-0.42Zm0.24-.18a1.18,1.18,0,0,1-.06-0.42,1.92,1.92,0,0,0-.18.54C412.26,232.88,412.32,232.82,412.32,232.7Zm0.24-1.5a0.65,0.65,0,0,0-.12.48,1,1,0,0,0-.18.54h0.18v-0.54A1.42,1.42,0,0,0,412.56,231.2Zm0.18-.54a0.68,0.68,0,0,0-.18.48A1.14,1.14,0,0,0,412.74,230.66Zm21.48-53.52a0.25,0.25,0,0,0-.18.24,0.44,0.44,0,0,0-.12.36,0.25,0.25,0,0,0-.18.24,1.56,1.56,0,0,0-.42.66c-1.32,2.58-2.64,5.16-3.84,7.8-1.32,2.82-2.52,5.7-3.72,8.64-1.32,3.36-2.64,6.78-3.84,10.26s-2.46,7.14-3.6,10.74c-1.8,5.46-3.54,11-5.1,16.56a14.64,14.64,0,0,0-.48,1.74,0.79,0.79,0,0,0,0,.54,3.46,3.46,0,0,0,.36-1c0.84-3.18,1.8-6.3,2.76-9.42,0.84-2.64,1.74-5.28,2.58-7.92,1.08-3.42,2.22-6.78,3.42-10.14s2.28-6.54,3.6-9.78c1.08-2.82,2.22-5.58,3.48-8.34,0.66-1.56,1.38-3,2.1-4.5s1.44-3.12,2.22-4.62a3.83,3.83,0,0,0,.48-1.14,0.33,0.33,0,0,0,.18-0.3,0.28,0.28,0,0,0,.12-0.3A0.33,0.33,0,0,0,434.22,177.14ZM412.74,230.6a1.12,1.12,0,0,0,.12-0.48H413c0-.18-0.06-0.36-0.06-0.6h0.18a0.8,0.8,0,0,1,.18-0.48c0-.18-0.06-0.36-0.06-0.54a5,5,0,0,0-.3,1c-0.06.24-.06,0.42-0.12,0.6A0.72,0.72,0,0,0,412.74,230.6Zm0.6-2.16c0.06-.12.18-0.24,0.3-0.42a0.33,0.33,0,0,1,.12-0.3,0.62,0.62,0,0,0,.18-0.24h-0.06a0.86,0.86,0,0,0,.18-0.9V226a1,1,0,0,0-.12.6A4.84,4.84,0,0,0,413.34,228.44Zm0.72-2.52h0.18V226a0.1,0.1,0,0,0,.12-0.12,0.25,0.25,0,0,0,0-.42l0.18-.48a0.29,0.29,0,0,1,.12-0.3,0.72,0.72,0,0,0,.18-0.72,1.14,1.14,0,0,1,.12-0.48,0.9,0.9,0,0,1,.18-0.42v-0.6a0.65,0.65,0,0,0,.12-0.48h0.18a0.86,0.86,0,0,1,.12-0.42v-0.06a0.65,0.65,0,0,1,.18-0.42,0.28,0.28,0,0,1,.12-0.3,0.29,0.29,0,0,0,.12-0.3l0.18-.42a0.36,0.36,0,0,0,0-.48,1.61,1.61,0,0,1,.18-0.48,1.12,1.12,0,0,1,.12-0.42,0.51,0.51,0,0,1,.18-0.3,0.29,0.29,0,0,0,.12-0.3,0.91,0.91,0,0,0,.18-0.42,0.67,0.67,0,0,0,0-.48,0.41,0.41,0,0,1,.18-0.3,0.36,0.36,0,0,0,.06-0.6h0.06a1.42,1.42,0,0,1,.12-0.48,0.62,0.62,0,0,1,.18-0.24,0.33,0.33,0,0,0,.12-0.3,0.65,0.65,0,0,1-.12-0.48h0.12v0.42l0.18-.42a1.1,1.1,0,0,0,.12-0.42,0.72,0.72,0,0,1-.12-0.48H418v0.42a0.29,0.29,0,0,0,0-.42,0.54,0.54,0,0,1,.18-0.42c0.06,0.06.06,0,.12,0h-0.12a1.42,1.42,0,0,1,.12-0.48v0.42a0.9,0.9,0,0,0,.18-0.42,1.12,1.12,0,0,0,.12-0.42h-0.12a0.65,0.65,0,0,1,.12-0.48v0.42a0.89,0.89,0,0,0,.18-0.42,1.12,1.12,0,0,0,.12-0.42h-0.12a1.4,1.4,0,0,1,.12-0.48v0.42a0.89,0.89,0,0,0,.18-0.42,0.36,0.36,0,0,0,0-.42v0.42h-0.18a1.55,1.55,0,0,1,.18-0.48,0.46,0.46,0,0,1,.12-0.24,0.61,0.61,0,0,0,.3-0.6,4.22,4.22,0,0,0,.48-1.38,0.65,0.65,0,0,0,.12-0.48,0.55,0.55,0,0,0,.18-0.42,1.42,1.42,0,0,0,.12-0.48,0.54,0.54,0,0,0,.18-0.42,0.65,0.65,0,0,0,.12-0.48,1.26,1.26,0,0,0,.18-0.42,0.72,0.72,0,0,0,.12-0.48,1.28,1.28,0,0,0,.18-0.42H421v-0.48a1.4,1.4,0,0,0,.3-0.3v0.42a0.54,0.54,0,0,0,.18-0.42,1.12,1.12,0,0,0,.12-0.42,0.8,0.8,0,0,0,.18-0.48c0.18-.24.36-0.42,0.12-0.72L422,202c0.06,0.12.06,0.12,0.12,0a0.65,0.65,0,0,0,.18-0.42h-0.18v-0.48h0.18v0.42a1.31,1.31,0,0,0,.3-0.72,0.57,0.57,0,0,0,.12-0.42,1.26,1.26,0,0,0,.3-0.78l0.18-.42h-0.18V198.8a0.06,0.06,0,0,0-.06.06c-0.3.66-.54,1.26-0.78,1.92-0.06.12,0,.24-0.06,0.36a0.65,0.65,0,0,0-.12.48,0.69,0.69,0,0,0-.3.42c-0.24.66-.48,1.26-0.66,1.92-0.06.12-.06,0.3-0.12,0.48a0.65,0.65,0,0,0-.12.48,0.83,0.83,0,0,0-.3.48L418,213.2a1.53,1.53,0,0,0-.12.72,1,1,0,0,0-.3.9,7,7,0,0,0-.78,2.4,1.47,1.47,0,0,0-.24.54c-0.24.6-.42,1.2-0.6,1.8a1.67,1.67,0,0,1-.06.54,7.16,7.16,0,0,0-.6,1.92,0.65,0.65,0,0,0-.12.48,3.41,3.41,0,0,0-.48,1.5,3.31,3.31,0,0,0-.42,1.5A0.4,0.4,0,0,0,414.06,225.92Zm3.78-11.1h-0.18C417.72,214.76,417.78,214.7,417.84,214.82Zm0.42-1.8c0.06-.12.12-0.3,0.18-0.42V213h-0.18Zm0.3-.9c0.06-.12.12-0.3,0.18-0.42v0.42h-0.18Zm0.72-2.28h0.06l-0.06.06v-0.06Zm0.18,0.06a0.19,0.19,0,0,0-.12-0.06c0-.06,0-0.12.06-0.12S419.46,209.84,419.46,209.9Zm0.48-1.86v0.48a0.22,0.22,0,0,1-.18-0.06A1.29,1.29,0,0,1,419.94,208Zm0.12-.42V208h-0.12A0.57,0.57,0,0,1,420.06,207.62Zm0.18-.48v0.48h-0.18A1.55,1.55,0,0,1,420.24,207.14Zm0.12-.42v0.42h-0.12A0.57,0.57,0,0,1,420.36,206.72Zm0.18-.48v0.48h-0.18Zm-0.18,5.46v-0.06h0.06Zm0.3-5.88v0.42h-0.12A0.57,0.57,0,0,1,420.66,205.82Zm0.18-.48v0.48h-0.18Zm0,0v-0.42H421v0.42h-0.12Zm0.6-1.62v0.42h-0.18A1.29,1.29,0,0,1,421.44,203.72Zm0.12-.48v0.48h-0.12A0.65,0.65,0,0,1,421.56,203.24Zm0.18-.42v0.42h-0.18Zm0.18,4.68-0.06-.06h0.06v0.06ZM422,202v-0.42h0.12V202H422Zm0.6-1.62v0.42h-0.18Zm0.12,0h-0.12C422.7,200.36,422.7,200.36,422.76,200.42Zm0.18-.78a0.51,0.51,0,0,1,.12-0.42v0.42h-0.12Zm0.12-.9a0.4,0.4,0,0,0,.12-0.42A0.87,0.87,0,0,0,423.06,198.74Zm0.36,4.86a0.46,0.46,0,0,1-.24-0.06h0.06A0.22,0.22,0,0,1,423.42,203.6Zm-0.18-5.34a1,1,0,0,0,.3-0.72c0.06-.12.18-0.18,0.24-0.3a1,1,0,0,0,.06-0.42,0.81,0.81,0,0,0-.3.72A1.1,1.1,0,0,0,423.24,198.26Zm0.3,4.38h0.12C423.6,202.7,423.6,202.7,423.54,202.64Zm0.3-5.88,0.24-.24c0-.18.06-0.3,0.06-0.48s0.18-.18.24-0.3a0.88,0.88,0,0,0,.06-0.42c0.12-.12.18-0.24,0.24-0.3a1.31,1.31,0,0,0,.06-0.48,1.41,1.41,0,0,1,.3-0.3c0.06,0.06.12,0.06,0.12,0H425v-0.42a0.81,0.81,0,0,0-.3.72,1.26,1.26,0,0,0-.3.78,0.81,0.81,0,0,0-.3.72A1.25,1.25,0,0,0,423.84,196.76Zm0,0.48c0.06,0.06.12,0.06,0.12,0h-0.12Zm0.78,2.58h0.12C424.68,199.82,424.62,199.88,424.62,199.82Zm0.42-6.06a1,1,0,0,0,.3-0.72,0.28,0.28,0,0,0,.12-0.3,0.46,0.46,0,0,0-.12.3A1.25,1.25,0,0,0,425,193.76Zm0.42-1.08a1.59,1.59,0,0,0,.36-0.3c0-.12-0.06-0.24-0.06-0.36A1.33,1.33,0,0,0,425.46,192.68Zm0.3-.72a0.25,0.25,0,0,0,.18-0.24A0.25,0.25,0,0,0,425.76,192Zm0.06,4.86-0.06-.06h0.06v0.06Zm0.12-5.16h0.12a2,2,0,0,1,.18-0.3v-0.42h0.12v-0.3h0.18v0.3h-0.12v0.42a1.1,1.1,0,0,1,.12-0.42l0.12-.3h-0.12a0.46,0.46,0,0,1,.12-0.3v-0.42a1,1,0,0,0-.3.72,0.45,0.45,0,0,0-.12.3A1.24,1.24,0,0,0,425.94,191.66Zm0.3-.24v0.24c0.06-.06.06-0.18,0.12-0.24h-0.12Zm0.6-1.86,0.12-.18v-0.12a0.12,0.12,0,0,0-.06.12A0.22,0.22,0,0,0,426.84,189.56Zm0.48-1.08a0.88,0.88,0,0,0,.12-0.24A0.46,0.46,0,0,0,427.32,188.48Zm0,4.56h0.12a0.64,0.64,0,0,0-.12.3V193Zm0.12-4.86a0.31,0.31,0,0,0,.12-0.24A0.46,0.46,0,0,0,427.44,188.18Zm0.18-.24h0.12C427.68,187.88,427.62,187.88,427.62,187.94Zm0.3-.78c0.06-.06.06-0.18,0.12-0.24A0.31,0.31,0,0,0,427.92,187.16Zm0.12-.3h0.12a1.35,1.35,0,0,0,.06-0.24A0.82,0.82,0,0,1,428,186.86Zm0.9,2.28h0.12C429.06,189.2,429,189.2,428.94,189.14Zm0.12,0v-0.3a0.54,0.54,0,0,1,.06.3h-0.06Zm1-6.54,0.12-.18A0.32,0.32,0,0,0,430,182.6Zm0.3,3.54h0.12a0.64,0.64,0,0,0-.12.3v-0.3Zm1.2-2.58a0.21,0.21,0,0,0,.12.06,0.46,0.46,0,0,0-.12.24v-0.3Zm0.9-1.5a0.65,0.65,0,0,0-.06-0.3h0.06v0.3Zm3.12-7.32a0.19,0.19,0,0,0-.06-0.12,6.37,6.37,0,0,1-.42.66,9.8,9.8,0,0,0-.84,1.8l0.18-.18A12.27,12.27,0,0,0,435.54,174.74Zm2.1-2.76v-0.24h0.18Zm0.48-.72V171h0.12Zm2-3.42h-0.24A0.18,0.18,0,0,1,440.1,167.84ZM440,166.7c0.06,0,.06-0.06.12-0.06v-0.06c0-.06-0.06-0.06-0.06,0A0.12,0.12,0,0,1,440,166.7Z" transform="translate(-275.99 -151.35)"/>
    <path d="M455.1,210H455a2.45,2.45,0,0,0-1.62.18,11.29,11.29,0,0,0-1.5.66,64.38,64.38,0,0,0-6.54,3.84,8.79,8.79,0,0,0-.78.48,2.62,2.62,0,0,0-1,1l-0.12.3v-0.06a2.57,2.57,0,0,1-.06.3,0.29,0.29,0,0,0-.18.36c0,0.06.06,0.06,0.12,0.06a0.22,0.22,0,0,0-.06.18,0.29,0.29,0,0,1-.06-0.24v0l-0.12.3a2.08,2.08,0,0,1-.3.48c-0.12.3-.3,0.6-0.42,0.9-0.06.12-.06,0.3-0.12,0.42a1.79,1.79,0,0,0-.48,1.08,0.43,0.43,0,0,0-.18.36,2.15,2.15,0,0,0-.66,1.32,1.14,1.14,0,0,0-.48.9H440.4a1.56,1.56,0,0,0-.36.78c0.18,0.12.12,0.18,0.06,0.3a0.46,0.46,0,0,1-.06-0.24c-0.12.12-.18,0.3-0.3,0.42h0.06l-0.36.54a1.52,1.52,0,0,1-.24.42,0.54,0.54,0,0,0-.18.42l-0.18.36a11.28,11.28,0,0,0-.66,1.14,4.63,4.63,0,0,0-.84,1.5L437,229a2.14,2.14,0,0,1-.24.54,0.82,0.82,0,0,0-.3.48,1,1,0,0,0-.3.54,0.81,0.81,0,0,0-.3.54l-0.42.6a3,3,0,0,0-.18.42h0.18c-0.06.12-.06,0.18-0.12,0.3a1.38,1.38,0,0,0-.06-0.24,0.45,0.45,0,0,0-.18.6l-0.48.54h0.06v0.24c0-.06-0.06-0.12-0.06-0.18l-0.12.18a2.59,2.59,0,0,1-.24.42v0.24a0.36,0.36,0,0,1-.06-0.24,0.36,0.36,0,0,0-.06.24,1.43,1.43,0,0,0-.36.48,5.23,5.23,0,0,1-.42,1c-0.3.42-.54,0.9-0.84,1.32-0.54.78-1,1.62-1.56,2.4l-1.68,2.4-0.66.84c-0.06.12-.18,0.18-0.24,0.3a35.77,35.77,0,0,1-3.78,4.68,16.85,16.85,0,0,1-2,2.1c-0.6.6-1.2,1.14-1.86,1.74a20.27,20.27,0,0,1-2.82,2.1,6.46,6.46,0,0,1-3,1.08,3.34,3.34,0,0,1-2.34-.48l-0.36-.18a3.4,3.4,0,0,1-1.86-3.06,9.6,9.6,0,0,1,.12-1.86,16.25,16.25,0,0,1,1.32-4.08,31.84,31.84,0,0,1,1.62-3.18c0.54-1,1.2-1.92,1.8-2.88,1-1.5,2.16-2.88,3.3-4.32,0.9-1.14,1.86-2.22,2.82-3.3,1.14-1.26,2.4-2.46,3.6-3.72a53,53,0,0,1,4.26-3.9c0.84-.72,1.62-1.44,2.46-2.1,1.26-1,2.52-2,3.78-3s2.76-2,4.26-2.94l1.32-.9a3.53,3.53,0,0,0,.48-0.48l0.12-.3a21.06,21.06,0,0,0,1.26-4.32c0.06-.48.06-0.9,0.12-1.38V207.8a0.4,0.4,0,0,0-.42-0.3l-0.48.18a6.93,6.93,0,0,0-1.92,1.2l-2.34,1.86a8.88,8.88,0,0,0-.78.66,15.06,15.06,0,0,1-2.1,1.8l-1.44,1.08a11.13,11.13,0,0,1-2.22,1.14,6.51,6.51,0,0,1-1.5.24,3.1,3.1,0,0,1-2.28-.84,3.37,3.37,0,0,1-1.32-3.18,8.75,8.75,0,0,1,1.08-3.48,12.45,12.45,0,0,1,1.44-2,1.46,1.46,0,0,1,.66-0.54l0.3,0.18a0.73,0.73,0,0,1,.42.42,1,1,0,0,1,.06.72l-0.54,1.2a7.86,7.86,0,0,0-.48,1l-0.3.84a0.86,0.86,0,0,1-.12.36c0,0.06-.12.18-0.12,0.24,0,0.84-.3,1.62-0.24,2.52a0.68,0.68,0,0,0,.18.66,0.63,0.63,0,0,0,.72,0,13.22,13.22,0,0,0,3.3-2c0.54-.48,1-1,1.62-1.44,1.08-.84,2-1.86,3.12-2.7a17.47,17.47,0,0,1,2.46-1.62,4.17,4.17,0,0,1,.78-0.3,3,3,0,0,1,2.7.54,6.07,6.07,0,0,1,1.38,1.14,2.11,2.11,0,0,1,.6,1.14,4.21,4.21,0,0,1,.18,1.92,6.76,6.76,0,0,1-.36,1.5,0.33,0.33,0,0,0,.12.3,0.29,0.29,0,0,0,.24.06l0.84-.48A45.94,45.94,0,0,1,451,209.3a13.44,13.44,0,0,1,1.44-.48,2.54,2.54,0,0,1,2.52.66,0.47,0.47,0,0,1,.24.24A0.16,0.16,0,0,1,455.1,210Zm-43.8,38.58a1,1,0,0,1-.12.3h0.12v-0.3Zm1-2c0.06-.06.06-0.18,0.12-0.24a0.82,0.82,0,0,0,.24-0.66,0.32,0.32,0,0,0,.18-0.36,0.84,0.84,0,0,0,.12-0.24,2.93,2.93,0,0,0,.6-1.32,0.68,0.68,0,0,0,.3-0.48,0.06,0.06,0,0,1,.06-0.06,0.64,0.64,0,0,1,.12-0.3,0.19,0.19,0,0,1,.06-0.12l-0.06.06a0.52,0.52,0,0,0,.24-0.54h0.06a3.38,3.38,0,0,0,.24-0.42h0.06c0.06-.12.12-0.18,0.18-0.3a0.91,0.91,0,0,0,.12-0.24,1.33,1.33,0,0,1,.06-0.48,7.15,7.15,0,0,0,1-1.5,0.42,0.42,0,0,0-.24.18l-0.84,1.26c-0.12.18-.3,0.36-0.42,0.54-0.36.72-.78,1.38-1.14,2a28.51,28.51,0,0,0-1.8,4.2l-0.12.66a1.3,1.3,0,0,0,.3-0.48,0.11,0.11,0,0,0,.18,0l0.06-.24c0-.12.06-0.18,0.06-0.3A0.65,0.65,0,0,0,412.26,246.5Zm2-1.74c0.84-1.62,1.74-3.12,2.7-4.62a1.34,1.34,0,0,0,.18-0.3,0.18,0.18,0,0,0-.24.06,34.87,34.87,0,0,0-2.76,4.5,22.83,22.83,0,0,0-1.62,4,7.7,7.7,0,0,0-.36,2.1,0.19,0.19,0,0,1,.12-0.06v-0.18A22.71,22.71,0,0,1,414.24,244.76Zm24.84-25.5c-0.3,0-.3,0-0.36.06l-0.72.6c-0.84.6-1.68,1.26-2.46,1.86l-3.48,2.94c-0.72.6-1.38,1.2-2.1,1.8-0.36.3-.72,0.6-1,0.9-0.6.6-1.2,1.2-1.86,1.8-1.32,1.32-2.58,2.58-3.84,4a3.61,3.61,0,0,0-.48.48l-2.4,2.76c-0.42.48-.84,1-1.26,1.56l-0.54.78-0.54.72-1.32,1.8a16,16,0,0,1-1.32,2.16c-0.42,1-1,1.86-1.38,2.88a2.42,2.42,0,0,1-.48,1,0.63,0.63,0,0,0-.12.3v0.3a0.86,0.86,0,0,0-.36.72,2.22,2.22,0,0,0-.24.9,1,1,0,0,1-.06.42,1.34,1.34,0,0,0-.18.84,0.66,0.66,0,0,0,.18.54v-0.06l0.12,1.2a1.2,1.2,0,0,0,.24.48c0.12,0.24.24,0.36,0.48,0.24a3.38,3.38,0,0,0,.72-0.24,10.17,10.17,0,0,0,2.46-1.44,42.39,42.39,0,0,0,3.54-3.12c1.56-1.68,3.06-3.36,4.5-5.22,0.78-1,1.56-2.16,2.34-3.24s1.38-1.92,2-2.94c1.2-1.86,2.4-3.72,3.42-5.64l0.18-.3c0.6-1,1.26-2.1,1.86-3.12l3.42-6.24c0.36-.66.72-1.44,1.08-2.16v-0.24ZM416.4,238.88c-0.06-.24.18-0.24,0-0.48C416.4,238.58,416.22,238.58,416.4,238.88Zm0.84-1.38a0.79,0.79,0,0,0,.18-0.3C417.3,237.26,417.18,237.32,417.24,237.5Zm0.6,1.44a2.41,2.41,0,0,0,.3-0.54,0.21,0.21,0,0,0-.12-0.06A0.62,0.62,0,0,0,417.84,238.94Zm2.22-3.06a1.61,1.61,0,0,0,.6-0.78A2,2,0,0,0,420.06,235.88Zm0.06-2.16a0.26,0.26,0,0,0,.3-0.36A1.6,1.6,0,0,1,420.12,233.72Zm1.08-1.14a0.06,0.06,0,0,0,.06.06l0.06-.06-0.06-.06A0.06,0.06,0,0,0,421.2,232.58Zm0.6-.6a1.64,1.64,0,0,0,.78-0.9A1.87,1.87,0,0,0,421.8,232Zm1.74-.12a2.87,2.87,0,0,0-.54.66,3.84,3.84,0,0,0-1.14,1.26,0.61,0.61,0,0,0,.36-0.3c0.3-.3.54-0.6,0.84-1a3.88,3.88,0,0,0,.54-0.48c0.42-.42.84-0.9,1.2-1.32a1.77,1.77,0,0,0,.78-0.84,0.57,0.57,0,0,0,.48-0.42,0.69,0.69,0,0,0-.48.42,2.62,2.62,0,0,0-.84.78C424.32,231.08,423.9,231.44,423.54,231.86Zm-0.6-1.14a1,1,0,0,0,.54-0.54A1,1,0,0,0,422.94,230.72Zm0.9-1a0.23,0.23,0,0,1,.12.12,1.56,1.56,0,0,1,.3-0.36,0.19,0.19,0,0,0-.06-0.12Zm0.72-.66a1.59,1.59,0,0,0,.66-0.54,0.52,0.52,0,0,0,.3-0.42,0.54,0.54,0,0,0-.36.36A1.16,1.16,0,0,0,424.56,229Zm1.74,13.62a1.29,1.29,0,0,0-.54.72A5.71,5.71,0,0,0,426.3,242.66ZM426,227.72a843.51,843.51,0,0,0,1.08-1.08c0.24-.12.24-0.12,0.24-0.3,0,0.06-.12.06-0.12,0.12a0.47,0.47,0,0,0-.12.18,0.85,0.85,0,0,0-.54.48C426.06,227.42,426.06,227.42,426,227.72Zm1.5,0.36a2.59,2.59,0,0,0-1.2,1.08,3.4,3.4,0,0,0,1.2-1.08l0.18-.12,2.16-2c0.06,0,0-.06.06-0.24a1.63,1.63,0,0,0-.3.24l-1.92,1.74Zm-0.36,13.44a0.83,0.83,0,0,1,.18-0.24C427.14,241.28,427,241.34,427.14,241.52Zm0.3,1.8h-0.12a0.06,0.06,0,0,0,.06.06Zm6.48-12.3a2.59,2.59,0,0,1,.06-0.3c0-.06.06-0.06,0.06-0.12v-0.06H434a0.12,0.12,0,0,0-.06.12c-0.18.3-.42,0.6-0.66,1-1.32,2.16-2.7,4.38-4,6.6l-1,1.44a1.53,1.53,0,0,0-.54,1,3.43,3.43,0,0,0,.66-1c0.3-.36.6-0.78,0.9-1.2,0.18,0.12.24,0.06,0.24-.12l0.18-.24a1.1,1.1,0,0,1,.12-0.42,0.55,0.55,0,0,0,.06.3,0.55,0.55,0,0,1,.06-0.3l0.18-.12a0.43,0.43,0,0,1,.06-0.48l0.06,0.24c0.18-.18.42-0.36,0.24-0.66h0.12a0.8,0.8,0,0,0,.48-0.66,0.87,0.87,0,0,0,.42-0.66,0.63,0.63,0,0,0,.3-0.54V234.8a0.76,0.76,0,0,0,.42-0.54,0.52,0.52,0,0,0,.24-0.54,0.19,0.19,0,0,0,.06-0.12,0.66,0.66,0,0,0,.42-0.54l0.3-.48c0.12-.18.18-0.36,0.3-0.54a1,1,0,0,0,.36-0.72C434.1,231.2,434.1,231.14,433.92,231Zm-6.12-5a0.28,0.28,0,0,0,.3-0.24A0.31,0.31,0,0,0,427.8,226Zm0.42-.48-0.12.18a0.31,0.31,0,0,0,.3-0.24A0.46,0.46,0,0,1,428.22,225.5Zm8.1,3.78a0.67,0.67,0,0,0-.3.48,0.63,0.63,0,0,0-.3.54,2.26,2.26,0,0,0-.6.72c-0.24.42-.42,0.78-0.66,1.14-1.74,2.94-3.48,5.88-5.4,8.64-0.12.18-.18,0.42-0.3,0.6a0.88,0.88,0,0,0-.48.78,1,1,0,0,0,.48-0.78,4.46,4.46,0,0,0,.72-0.78c1.08-1.62,2.16-3.24,3.18-4.86s1.92-3.24,2.82-4.86a2.49,2.49,0,0,0,.24-0.6,0.63,0.63,0,0,0,.3-0.54A0.54,0.54,0,0,0,436.32,229.28Zm-6.48-5.16h0.06v-0.06A0.06,0.06,0,0,0,429.84,224.12Zm0.42,1.38a0.69,0.69,0,0,0,.48-0.42,0.67,0.67,0,0,0,.48-0.42,0.79,0.79,0,0,0,.54-0.54,1.54,1.54,0,0,0-.54.54,0.83,0.83,0,0,0-.48.42A0.65,0.65,0,0,0,430.26,225.5Zm0.48-2.1h0.06v-0.06h-0.06v0.06Zm0.3,12.42c0,0.06.06,0.18,0.06,0.24H431ZM431.22,223v-0.06C431.16,222.92,431.22,223,431.22,223Zm0.18,12.42a0.29,0.29,0,0,1,.06-0.24v0.18Zm0.72-13.2h0.06l-0.06-.06v0.06Zm0,11.76a0.45,0.45,0,0,1,.06.24h-0.06V234Zm0.12-10.26a0.06,0.06,0,0,1,.06.06l0.12-.12a0.19,0.19,0,0,1,.12-0.06v-0.06h-0.06a0.19,0.19,0,0,1-.06.12C432.36,223.64,432.3,223.7,432.24,223.7Zm0.42-1.92a0.81,0.81,0,0,0,.42-0.36A0.45,0.45,0,0,0,432.66,221.78Zm0.18,11c0,0.06.06,0.12,0.06,0.18h-0.06v-0.18Zm0.24-11.46a0.33,0.33,0,0,0,.36-0.24,0.52,0.52,0,0,0,.48-0.36,0.75,0.75,0,0,0-.48.36A0.55,0.55,0,0,0,433.08,221.36Zm0,1.68a0.65,0.65,0,0,0,.6-0.48A2.34,2.34,0,0,0,433.08,223Zm0.06,9.24a0.29,0.29,0,0,1,.06.24h-0.06v-0.24Zm0.3-.54a0.46,0.46,0,0,1,.06.24h-0.12A0.29,0.29,0,0,0,433.44,231.74Zm1.08-9.84a1.24,1.24,0,0,0-.78.66,4042.75,4042.75,0,0,0,1.56-1.32,461.22,461.22,0,0,1,.72-0.48,1.81,1.81,0,0,0,.84-0.66l0.3-.3a0.41,0.41,0,0,0,.36-0.24,0.6,0.6,0,0,0,.3-0.24,0.31,0.31,0,0,0-.3.24,0.4,0.4,0,0,0-.36.24,1,1,0,0,1-.42.24,1.41,1.41,0,0,0-.72.72,0.33,0.33,0,0,0-.36.24l-0.36.24A1.42,1.42,0,0,0,434.52,221.9Zm-0.6,9.18v0.24a0.32,0.32,0,0,1-.18.12Zm0.66-20a1,1,0,0,0,.42-0.42,3.36,3.36,0,0,0,.48-0.36c0.18-.12.3-0.24,0.42-0.3,0.36-.24.66-0.48,1-0.72l0.24-.06h-0.24l0.36-.3a1.27,1.27,0,0,1,.24-0.36l0.42-.36c0.12-.12.24-0.18,0.36-0.3s0.18-.18.3-0.24a0.32,0.32,0,0,0,.3-0.3,0.4,0.4,0,0,0-.3.24l-0.42.24a1.41,1.41,0,0,1-.3.3l-0.48.36a12.88,12.88,0,0,0-1.92,1.68,2.79,2.79,0,0,1-.42.42,0.83,0.83,0,0,0-.48.42,0.59,0.59,0,0,0-.42.42H434v0.12a10.45,10.45,0,0,1,.12-0.12A0.75,0.75,0,0,0,434.58,211.1Zm5.22-2.82a1.21,1.21,0,0,1-.48.24l-0.72.6c-1.14,1-2.34,2-3.48,3a3.45,3.45,0,0,1-.42.48c-0.06.06-.06,0-0.12,0.06v0.06h0.06c0.06,0,.06-0.06.06-0.12a0.81,0.81,0,0,0,.54-0.3c1.44-1.26,2.88-2.46,4.32-3.66A1.25,1.25,0,0,0,439.8,208.28Zm-5.16,11.82v0.12l0.06-.06h0.06A0.12,0.12,0,0,0,434.64,220.1ZM435.48,232a0.54,0.54,0,0,0-.06-0.3l0.3-.12Zm0.42-.66c0-.06-0.06-0.18-0.06-0.24a0.86,0.86,0,0,1,.24-0.12Zm0.3-.54a1.37,1.37,0,0,1-.06-0.24,0.89,0.89,0,0,0,.24-0.12Zm1.8-4.5a1.73,1.73,0,0,0-.6,1,0.36,0.36,0,0,0-.18.36,2.25,2.25,0,0,0-.72,1.2,2,2,0,0,0-.18.36,0.43,0.43,0,0,0,.18-0.36,1.93,1.93,0,0,0,.72-1.2,0.36,0.36,0,0,0,.18-0.36A1.62,1.62,0,0,0,438,226.28Zm-1.5,3.78a0.19,0.19,0,0,0,.12-0.06l-0.12.3v-0.24Zm0.3-.3a0.36,0.36,0,0,0-.06-0.24A0.13,0.13,0,0,1,436.8,229.76Zm1.08-10.5a0.27,0.27,0,0,0,.3-0.24A1,1,0,0,1,437.88,219.26Zm0.24,6.84a0.06,0.06,0,0,1-.06-0.06,0.22,0.22,0,0,1-.06.18A0.22,0.22,0,0,0,438.12,226.1Zm0.06,0.9v-0.06l0.06,0.06h-0.06Zm1.08-8.82a1.75,1.75,0,0,0-.78.66l0.72-.48C439.26,218.36,439.26,218.3,439.26,218.18ZM439,207.32a0.19,0.19,0,0,0,.18-0.18Zm0.12,18.12h0.12a0.45,0.45,0,0,0-.06.24A0.29,0.29,0,0,1,439.08,225.44Zm0.18-.36h0.12c0,0.06-.06.12-0.06,0.18A0.22,0.22,0,0,0,439.26,225.08Zm0.18-1.38a0.06,0.06,0,0,0-.06-0.06v0.06h0.06Zm0.06,1.2a0.45,0.45,0,0,0-.06-0.3c0.06,0,.12.06,0.18,0.06A0.45,0.45,0,0,0,439.5,224.9Zm0.3-.48v-0.36a0.12,0.12,0,0,0,.12.06Zm0.3-2.1-0.06.06h0.06v-0.06Zm3.12-5a0.06,0.06,0,0,1,.06-0.06v0.06h-0.06Zm0.18-.66h0.12a0.46,0.46,0,0,1-.06.24A1.35,1.35,0,0,0,443.4,216.68Zm0.06-.24h0.18a0.91,0.91,0,0,0-.12.24A0.46,0.46,0,0,0,443.46,216.44Zm0.12-.06v-0.24a0.55,0.55,0,0,0,.06.3Z" transform="translate(-275.99 -151.35)"/>
  </g>
</svg>
