<svg id="Слой_1" data-name="Слой 1" xmlns="http://www.w3.org/2000/svg" viewBox="0 0 208.39 103.33">
  <defs>
    <style>
      .cls-1 {
        fill: #fff;
      }
    </style>
  </defs>
  <title>02_clients-inversed</title>
  <g>
    <path class="cls-1" d="M105.79,82.55a0.53,0.53,0,0,1-.6,0l-0.06-.06a8.48,8.48,0,0,0-3.3-1.32c-1.32-.3-2.64-0.66-4-0.9L90.15,79l-5.82-.72-5-.54c-1.56-.12-3.12-0.3-4.68-0.42L69.73,77c-3.72-.24-7.56-0.3-11.4-0.24L55,76.91c-1.92.12-3.84,0.3-5.7,0.42a17.06,17.06,0,0,0-1.74.18,1,1,0,0,0-.9.84,2,2,0,0,0-.36.6,24.46,24.46,0,0,1-2.58,3.9V83a14,14,0,0,1-4,4,37.74,37.74,0,0,1-10.14,5.46,43.81,43.81,0,0,1-7.64,2.22,49,49,0,0,1-10.2.78,27,27,0,0,1-6.6-1,11.14,11.14,0,0,1-3.6-1.74A4.75,4.75,0,0,1,.25,91.25a2.22,2.22,0,0,1,.24-2.4A3.17,3.17,0,0,1,1.21,88,12.38,12.38,0,0,1,4,86.15a40.48,40.48,0,0,1,5.52-2.4A80.71,80.71,0,0,1,20,80.51c2.28-.6,4.62-1.2,6.9-1.68,3.18-.66,6.42-1.2,9.6-1.8l5-.84L43.21,76l1.2-.18c0.12-.24.24-0.42,0.36-0.66a16.43,16.43,0,0,0,.6-2.88,16.61,16.61,0,0,0-1.86-10.56,29,29,0,0,0-5-6.72,60.85,60.85,0,0,0-7.32-6.24L24.71,44a33.77,33.77,0,0,1-3.84-3.3,14.33,14.33,0,0,1-2-2.58,7.4,7.4,0,0,1-.9-2,6,6,0,0,1,.66-4.92,10.38,10.38,0,0,1,2.34-3,32.72,32.72,0,0,1,3.18-2.64c0.18-.18.36-0.24,0.48-0.36l2-1.26a38.51,38.51,0,0,1,4.86-2.7l5.7-2.7a79.66,79.66,0,0,1,18.72-5.7,41.18,41.18,0,0,1,8.52-.54,11.2,11.2,0,0,1,3.48.66,4,4,0,0,1,1.8,1.14,1.3,1.3,0,0,1,0,1.8,0.41,0.41,0,0,1-.24.18c0.06-.24.06-0.42,0.12-0.6a1.3,1.3,0,0,0-.78-1.62,7.26,7.26,0,0,0-2-.48,20.76,20.76,0,0,0-4.74-.06,53.54,53.54,0,0,0-10,1.8q-3.42.9-6.84,2.16a102.32,102.32,0,0,0-10.42,4.4A74.13,74.13,0,0,0,27.13,26c-0.9.6-1.74,1.26-2.58,1.92a8.71,8.71,0,0,1-1,.78,13.07,13.07,0,0,0-1.68,1.5,7.9,7.9,0,0,0-1.74,2.88,7.69,7.69,0,0,0-.42,2,5.33,5.33,0,0,0,.6,2.76,12,12,0,0,0,2.4,2.82c0.9,0.78,1.86,1.62,2.82,2.34l7.74,5.7a62.84,62.84,0,0,1,7.32,6.48A34.3,34.3,0,0,1,45,60.91a17,17,0,0,1,1.68,3.48A6.22,6.22,0,0,0,47,65a17.43,17.43,0,0,1,1.2,7.08c-0.06.78-.18,1.62-0.3,2.4a1.18,1.18,0,0,0,.06.9c0.12,0,.3.06,0.48,0.06,3.66-.36,7.26-0.48,10.86-0.48,1.8,0,3.54,0,5.34.06,2,0.12,4.14.3,6.18,0.42L77.07,76c1.68,0.18,3.36.36,5,.6l4.8,0.54c1.86,0.24,3.66.54,5.52,0.84,2.46,0.36,4.92.84,7.32,1.38,1,0.24,1.92.54,2.82,0.78a9.86,9.86,0,0,1,2.4,1.14,3.49,3.49,0,0,1,.72.6A0.43,0.43,0,0,1,105.79,82.55ZM1.69,88.85c-0.06-.12-0.12-0.18-0.24-0.06a1.92,1.92,0,0,0-.3.36c0.18,0,.24.06,0.36,0.06a0.85,0.85,0,0,0,.12-0.36H1.69Zm1.14,0.24a1.21,1.21,0,0,0-.66.9A1.34,1.34,0,0,0,2.83,89.09Zm37.86-6.84a35.52,35.52,0,0,0,2.52-3.6,1.75,1.75,0,0,0,.18-0.6C43.15,78,43,78,42.79,78l-1.38.18c-2.46.36-4.92,0.72-7.44,1.14s-5.1,1-7.68,1.56c-2.82.6-5.7,1.38-8.52,2.16s-5.34,1.68-8,2.7a32,32,0,0,0-5,2.46,9.72,9.72,0,0,0-2,1.8,1.27,1.27,0,0,0-.18.42,1.89,1.89,0,0,0,.72,1.74,4.65,4.65,0,0,0,2.22,1,37.52,37.52,0,0,0,7.38.6,17,17,0,0,0,1.74-.12c0.84-.06,1.68-0.12,2.52-0.24A46.1,46.1,0,0,0,24,92a42.44,42.44,0,0,0,10.32-4.5A29.5,29.5,0,0,0,40.69,82.25ZM20.53,29.51h0.24a1.59,1.59,0,0,1,.36-0.3v-0.3h0.06v0.3a3.85,3.85,0,0,1,.48-0.54c0.36-.36.78-0.72,1.2-1.08l0.84-.84c0.06-.06.24-0.18,0.06-0.3a14.63,14.63,0,0,0-2.7,2.4A1.47,1.47,0,0,0,20.53,29.51Zm3.36-1.86a17.08,17.08,0,0,0-2.58,2.52,1.23,1.23,0,0,0-.3.54l0.36-.3A26.34,26.34,0,0,1,24,27.89a1,1,0,0,1,.24-0.3H24.13Zm0.9-1.8,0.06-.06H24.79v0.06Zm0.48,0.9s0,0.06.06,0a0.22,0.22,0,0,0,.12-0.12l-0.06-.06Zm16.26,56a0.75,0.75,0,0,1-.06.36L42,82.57l0.42-.42A3.75,3.75,0,0,0,43.21,81a1.27,1.27,0,0,0,.24-0.36l0.18-.3H43.45c0.06-.18.06-0.36,0.12-0.48a2.81,2.81,0,0,0-.42.42,36.7,36.7,0,0,1-2.7,3.36,0.64,0.64,0,0,0-.18.24,0.06,0.06,0,0,0,.06.06l1.14-.9a0.45,0.45,0,0,0,.06-0.32v0Zm4.14-3.84c-0.66,1-1.26,1.92-1.92,2.82s-1.38,1.8-2.1,2.64a12.6,12.6,0,0,0,4-5.48v0ZM42,82.25a2.59,2.59,0,0,1-.06.3H41.77A0.59,0.59,0,0,0,42,82.25Zm0.3-.18H42.25L42.31,82v0.06Zm1.2-1.74a0.45,0.45,0,0,0-.06.3H43.27a0.6,0.6,0,0,1,.24-0.3h0Zm1.8,0.6L45.25,81a0.06,0.06,0,0,1,.06-0.06h0Zm0.18-.3,0.06-.06v0.08a1.06,1.06,0,0,0-.24.3,1.35,1.35,0,0,1,.18-0.3v0Zm1.08-2.28a0.22,0.22,0,0,0,.18.06c-0.12.18-.18,0.06-0.18-0.06h0Z" transform="translate(0 -0.03)"/>
    <path class="cls-1" d="M78.13,58.25a19,19,0,0,0-4.2,2.28c-0.6.42-1.26,0.78-1.86,1.14-1.08.84-2.34,1.5-3.48,2.28s-2.1,1.5-3.12,2.34A16.35,16.35,0,0,0,64,67.49h0c-0.72.54-1.44,1-2.16,1.5a33.87,33.87,0,0,1-3.72,2.22,5.94,5.94,0,0,1-2.22.66,2.91,2.91,0,0,1-2.4-.84,3.81,3.81,0,0,1-1-3.48,16.18,16.18,0,0,1,1.56-4.62,25.86,25.86,0,0,1,2.22-3.66,1.89,1.89,0,0,0,.3-0.6,3.12,3.12,0,0,1,1.2-1.44,3.22,3.22,0,0,0,.9-0.9,20.08,20.08,0,0,1,2.4-2.1,13.51,13.51,0,0,1,1.32-.66,1.65,1.65,0,0,1,1.86.36c0.84,0.84.9,1.56-.12,2.64a16,16,0,0,1-2.58,2.34,8,8,0,0,1-3,1.38,1,1,0,0,0-.78.48,2.65,2.65,0,0,0-.48.66,31.2,31.2,0,0,0-1.8,3.42c-0.06.12-.06,0.24-0.12,0.36v0.18a4.38,4.38,0,0,0-.48,1.5,9.21,9.21,0,0,0-.36,1.86,3.66,3.66,0,0,0,0,1.14,0.34,0.34,0,0,0,.35.33l0.13,0a4.07,4.07,0,0,0,1.2-.42,17.17,17.17,0,0,0,2.52-1.44c1.44-.9,2.82-1.86,4.2-2.76,2.16-1.44,4.26-2.88,6.42-4.26,1.68-1.08,3.36-2.16,5.1-3.12,0.42-.24.9-0.48,1.38-0.72a5.48,5.48,0,0,1,.84-0.42,0.84,0.84,0,0,1,.9.24A1.14,1.14,0,0,1,78.13,58.25Zm-18.36-.06a1.86,1.86,0,0,0,1.08-.54A10.33,10.33,0,0,0,61.69,57c0.42-.36.78-0.78,1.2-1.2a0.18,0.18,0,0,0,0-.24,0.11,0.11,0,0,0-.15,0l0,0a3.31,3.31,0,0,0-1.56,1.14H61.09a0.13,0.13,0,0,1-.12.12v0.06a4.21,4.21,0,0,0-1.2,1.32h0Zm0.36,10.08a0.13,0.13,0,0,0-.12.12,0.23,0.23,0,0,1,.12-0.12h0Zm0.06-.06A0.45,0.45,0,0,0,60.61,68a0.61,0.61,0,0,0-.42.24h0Zm0.3-12.72h0.18V55.37a0.32,0.32,0,0,0-.18.12h0Zm16.14,3a0.52,0.52,0,0,0-.42.3,0.44,0.44,0,0,0-.36.12,1.26,1.26,0,0,0-.42.18,34.27,34.27,0,0,0-3.48,2.22,4.91,4.91,0,0,0-1.2.72c-0.24.18-.54,0.3-0.78,0.48-1.08.72-2.16,1.44-3.12,2.22l-0.6.36-4.14,3a2.14,2.14,0,0,0-.66.6A0.53,0.53,0,0,0,61,69a1.3,1.3,0,0,0-.48.3A0.83,0.83,0,0,0,61,69a0.61,0.61,0,0,0,.48-0.3,2.61,2.61,0,0,0,.9-0.48c0.9-.6,1.74-1.26,2.64-1.86,0.66-.48,1.26-1,1.92-1.5,1.38-.84,2.64-1.74,4-2.7A3.51,3.51,0,0,0,72,61.37a1,1,0,0,0,.36-0.18c1-.6,2.1-1.26,3.12-1.92a0.94,0.94,0,0,0,.36-0.3l0.36-.18a0.56,0.56,0,0,0,.38-0.3h0Zm-15.06-.9a10,10,0,0,0-1,.72,0.81,0.81,0,0,0,.72-0.3,0.4,0.4,0,0,0,.28-0.42h0Zm-0.9-2.28h0.18v0.18A0.32,0.32,0,0,1,61,55.31l0.18-.12a1.31,1.31,0,0,0,.48-0.3,3.41,3.41,0,0,0,.48-0.3,0.22,0.22,0,0,1,.06-0.18,0.19,0.19,0,0,1-.06-0.12A2.64,2.64,0,0,0,61,55l-0.18.18Zm0,1.32c0.78-.54,1.44-1.08,2.22-1.62a4.12,4.12,0,0,0-2.22,1.64v0Zm0.18-1.32V55.19H61A0.22,0.22,0,0,0,61.07,55l0.12,0.18H61c0,0.06-.06.06-0.06,0.12h-0.1Zm0,12.48a0.45,0.45,0,0,0,.42-0.3,0.69,0.69,0,0,0-.42.3h0Zm0.24-10.92A0.21,0.21,0,0,1,61,56.81h0Zm0.36,1.8a0.61,0.61,0,0,0-.42.24,0.4,0.4,0,0,0,.42-0.26v0Zm-0.12,8.82a1.12,1.12,0,0,1,.42-0.12c0.06-.12.18-0.18,0.24-0.3h0.24l0.18-.18V67a0.32,0.32,0,0,0,.18-0.12H62.41a0.32,0.32,0,0,1,.18-0.12c0-.06.06-0.06,0.06-0.12l0.24-.06c0.06-.06.12-0.06,0.18-0.12v0.12l0.12-.12H63.07V66.41a0.32,0.32,0,0,0,.18-0.12v0.12a0.22,0.22,0,0,0,.12-0.12,1,1,0,0,1,.3-0.12L63.85,66H63.73l0.18-.12V66A0.13,0.13,0,0,1,64,65.87a1.32,1.32,0,0,0,.48-0.3V65.45l0.06,0.06,0.06-.06V65.39h0.06a0.83,0.83,0,0,0,.48-0.3V65h0.06v0.06A0.13,0.13,0,0,1,65.35,65l0.18-.18a0.61,0.61,0,0,0,.48-0.3,0.31,0.31,0,0,1,.18-0.12,1.31,1.31,0,0,0,.48-0.3l0.18-.18a0.63,0.63,0,0,1,.3-0.12l0.18-.18a0.32,0.32,0,0,1,.18-0.12,0.18,0.18,0,0,0-.12-0.06V63.35c0.06,0,.06.06,0.12,0.06a0.64,0.64,0,0,0,.3-0.12L68,63.11c0.18-.06.3-0.18,0.48-0.24l0.18-.18a1.31,1.31,0,0,0,.48-0.3,0.32,0.32,0,0,1,.18-0.12,0.19,0.19,0,0,0-.12-0.06V62.15c0.06,0,.06.06,0.12,0.06a0.64,0.64,0,0,0,.3-0.12A0.32,0.32,0,0,1,69.79,62H69.61a0.22,0.22,0,0,0,.06-0.18,0.23,0.23,0,0,0,.12.12,0.72,0.72,0,0,0,.3-0.3h0.18c0.18-.06.3-0.18,0.48-0.24l0.18-.18a1.43,1.43,0,0,0,.3-0.3,0.12,0.12,0,0,0,.06-0.12l0.12,0.12c0.12-.12.24-0.18,0.36-0.3V60.47a0.23,0.23,0,0,1,.12.12,2.45,2.45,0,0,1,.54-0.3H72.37a2.41,2.41,0,0,1,.54-0.3H72.85a3.28,3.28,0,0,0,.48-0.3l0.54-.3a3.37,3.37,0,0,1,.48-0.3,1.4,1.4,0,0,0,.3-0.3,0.12,0.12,0,0,0,.06-0.12l0.12,0.12c0.12-.12.24-0.18,0.36-0.3a0.22,0.22,0,0,1-.06-0.18,0.92,0.92,0,0,0-.42.3,1,1,0,0,0-.54.3,0.56,0.56,0,0,0-.42.3,0.81,0.81,0,0,0-.54.3,4.48,4.48,0,0,0-1.44.9,0.82,0.82,0,0,0-.48.3,1,1,0,0,0-.54.3,3.51,3.51,0,0,0-1.14.78,0.72,0.72,0,0,0-.48.3,1.56,1.56,0,0,0-.66.42,3.52,3.52,0,0,0-1.14.78L66,64.13a1.7,1.7,0,0,0-.66.48,8.58,8.58,0,0,0-1.32.9,3.64,3.64,0,0,0-.84.6,2.13,2.13,0,0,0-.6.42,2.64,2.64,0,0,0-.66.48,1.2,1.2,0,0,0-.6.48h0Zm1.26-9.72a0.21,0.21,0,0,0-.12.06,2.9,2.9,0,0,0-.84.66,0.23,0.23,0,0,1-.12.12,0.13,0.13,0,0,0,.12-0.12,1.24,1.24,0,0,0,.84-0.6,0.23,0.23,0,0,0,.12-0.12h0Zm0.36-.3a0.13,0.13,0,0,0-.12.12A0.22,0.22,0,0,0,63,57.47h0Zm0.36,8.7a0.21,0.21,0,0,0,.06.12H63.25a0.21,0.21,0,0,0,.06-0.12h0Zm0.7-.52v0.18h-0.1A0.32,0.32,0,0,0,64,65.65Zm1.32-.84v0.12a0.12,0.12,0,0,0-.12-0.06c0.08,0,.08,0,0.14,0Zm0.06-.12c0.06,0,.06.06,0.12,0.06a0.12,0.12,0,0,1-.1,0Zm0.6-.24V64.33c0.08,0.1.08,0.1,0,.16Zm0.18-.12a0.19,0.19,0,0,0-.12-0.06v0a0.23,0.23,0,0,1,.14.12Zm0.54-.6,0.12,0.12H66.65c0.08,0,.08,0,0.08-0.08Zm0.6-.3v0.12H67.13Zm1.2-.9,0.12,0.12H68.45a0.12,0.12,0,0,0,.08-0.08ZM70.79,61l0.12,0.12H70.73a0.12,0.12,0,0,0,.08-0.08Zm4.38-2.76a0.29,0.29,0,0,0,.3-0.12Zm0.36-.12A0.46,0.46,0,0,0,75.77,58a0.24,0.24,0,0,0-.22.16Zm0.3-.18H76l0.06-.06c0-.06-0.06-0.06-0.12-0.06a0.21,0.21,0,0,1-.1.16Zm1.08,0.36a0.24,0.24,0,0,0-.24.12,0.46,0.46,0,0,1,.26-0.08Z" transform="translate(0 -0.03)"/>
    <path class="cls-1" d="M91.39,57.53c-0.12.12-.18-0.06-0.36-0.06a0.12,0.12,0,0,1-.12-0.06A1.12,1.12,0,0,0,89.59,57c-0.36.12-.66,0.18-1,0.3-1,.36-1.86.84-2.76,1.26a9.83,9.83,0,0,0-1.32.84,6.59,6.59,0,0,1-.66.36,0.49,0.49,0,0,0-.36.24,1.53,1.53,0,0,1-.66.54l-0.12.12v0.06c-0.18.06-.36,0.18-0.54,0.24V61a0.23,0.23,0,0,0-.12.12c0-.06-0.06-0.06-0.06-0.12V60.95a0.58,0.58,0,0,0-.36.3c-0.12.12-.3,0.18-0.42,0.3a2.26,2.26,0,0,0-.42.36L80.67,62a1.08,1.08,0,0,0-.42.3h0.06a0.32,0.32,0,0,0-.12.18,0.64,0.64,0,0,0-.3.12l-0.12.18a1,1,0,0,0-.54.42l-0.12.18a0.87,0.87,0,0,0-.6.6H78.45a0.12,0.12,0,0,1,.06.12A0.12,0.12,0,0,1,78.45,64l-0.12.12a0.31,0.31,0,0,1-.12.18,0.47,0.47,0,0,0-.36.3,0.55,0.55,0,0,0-.3.3c0,0.06-.06.06-0.06,0.12a3.09,3.09,0,0,0-1.08,1.08h0.3c-0.12.18-.3,0.36-0.48,0.6a0.45,0.45,0,0,0-.06-0.3,1.64,1.64,0,0,0-.48.6,5.59,5.59,0,0,0-1.32,1.8l-0.12.12a0.32,0.32,0,0,0-.12.18,0.19,0.19,0,0,1-.12.06,0.45,0.45,0,0,1-.24.42,1.16,1.16,0,0,1-.78,0,1.4,1.4,0,0,1-1-.78,1.22,1.22,0,0,0-.36-0.42,0.85,0.85,0,0,1-.24-1c0.54-1.62,1-3.24,1.5-4.92,0.48-1.44,1-2.82,1.44-4.26A10.35,10.35,0,0,1,75,56.29l0.18-.36a0.2,0.2,0,0,1,.27-0.08l0,0a1.42,1.42,0,0,1,.66.78,2.93,2.93,0,0,1,.06,1.44,27.19,27.19,0,0,0-.72,3.6,3.87,3.87,0,0,1-.12.42,0.33,0.33,0,0,0,.12.3,0.2,0.2,0,0,0,.28,0l0,0,0.6-.54a23.94,23.94,0,0,1,3.12-2.4c0.84-.6,1.68-1,2.58-1.56,1.14-.66,2.34-1.26,3.6-1.86a9.2,9.2,0,0,1,2.58-.78,2.47,2.47,0,0,1,2.22.78,5.72,5.72,0,0,1,1,1.14A0.31,0.31,0,0,1,91.39,57.53ZM74.29,69.11H74.17C74.17,69,74.23,69,74.29,69.11ZM88.21,56.93a8,8,0,0,0-2,.78,38.66,38.66,0,0,0-6.36,4.14c-2,1.68-3.48,3.78-5.34,5.64a0.81,0.81,0,0,0-.3.54v0.06h0.06a3.66,3.66,0,0,0,.78-0.9,33.92,33.92,0,0,1,5.46-5.52,24.86,24.86,0,0,1,7.14-4.38A1.08,1.08,0,0,0,88.21,56.93Zm-13.92,12h0.12a0.31,0.31,0,0,1-.12.18V68.93Zm0.12,0V68.81h0.12Zm0.12-.12a0.22,0.22,0,0,1,.12-0.12A0.23,0.23,0,0,1,74.53,68.81Zm0.18-.24a0.21,0.21,0,0,1-.06.12,0.32,0.32,0,0,0,.06-0.12h0Zm0.12-.06a0.21,0.21,0,0,1-.12.06,0.22,0.22,0,0,0,.12-0.12l0.12-.12Zm0.24-.3-0.12.12c0-.06.06-0.06,0.06-0.12l0.12-.12a0.12,0.12,0,0,1-.06.12h0Zm0.06-.12L75.19,68a0.06,0.06,0,0,1-.06.06h0ZM75.19,68c0-.06.06-0.06,0.06-0.12l0.18-.18a0.32,0.32,0,0,0-.12.18,0.23,0.23,0,0,1-.12.12h0Zm0.24-.3,0.12-.18h0.06l-0.06.06a0.23,0.23,0,0,0-.12.12h0Zm0.6-4.2a0.56,0.56,0,0,0,.36-0.24,0.64,0.64,0,0,0-.38.24h0Zm0.12,3.3,0.12-.12a0.23,0.23,0,0,1-.12.12h0Zm0.66-.72H76.75a0.32,0.32,0,0,0,.12-0.18c0,0.06-.06.12-0.06,0.18h0Zm0.24-.3-0.18.12L77,65.81l0.12-.18,0.12-.12,0.18-.18a0.32,0.32,0,0,0-.12.18,0.23,0.23,0,0,0-.12.12,0.32,0.32,0,0,0-.16.18h0Zm-0.12-3.16a0.46,0.46,0,0,0,.36-0.3A1.55,1.55,0,0,0,76.93,62.65Zm0.48,2.7a0.13,0.13,0,0,1,.12-0.12,0.22,0.22,0,0,0-.12.1v0Zm0.06-3.18h0.3c0-.06.06-0.18,0.06-0.24a0.41,0.41,0,0,0-.36.22v0Zm0.06,2.88h0.12a0.23,0.23,0,0,1-.12.12V65.05Zm0.12-.12h0.12l-0.12.12V64.93Zm0.12-.18h0.12l-0.12.18V64.75Zm0.12-2.88A0.21,0.21,0,0,1,78,61.81a0.36,0.36,0,0,1,.24-0.06,0.21,0.21,0,0,0,.06.12,0.4,0.4,0,0,0,.36-0.24h-0.3a1.48,1.48,0,0,1,.12-0.3h0.3v0.12l0.3-.12h-0.3a0.46,0.46,0,0,1,.12-0.3h0.3v0.12A0.46,0.46,0,0,1,79.45,61H79.21a0.31,0.31,0,0,1,.12-0.24,0.36,0.36,0,0,1,.24-0.06,0.21,0.21,0,0,1,.06.12,0.31,0.31,0,0,0,.24-0.12h-0.3c0.06-.12.12-0.18,0.18-0.3H80v0.12a0.46,0.46,0,0,0,.3-0.12,0.62,0.62,0,0,0,.36-0.3h-0.3A0.12,0.12,0,0,0,80.43,60l0.24-.06a0.22,0.22,0,0,0,.06.18A0.63,0.63,0,0,0,81,59.95a0.69,0.69,0,0,0,.42-0.3,0.31,0.31,0,0,0,.24-0.12,1.12,1.12,0,0,0,.66-0.48V58.93a0.12,0.12,0,0,0,.06.12,0.46,0.46,0,0,0,.24-0.12c0.12-.06.24-0.06,0.24-0.18H82.59c0.06-.06.18-0.06,0.24-0.12a0.12,0.12,0,0,0,.06.12,0.46,0.46,0,0,0,.24-0.12l-0.24-.06a0.86,0.86,0,0,0,.24-0.12v0.12a0.86,0.86,0,0,0,.66-0.42l0.3-.12a0.37,0.37,0,0,0,.24-0.18,0.46,0.46,0,0,0,.3-0.12A2.27,2.27,0,0,0,85,57.37v0.06l0.24-.18V57.13a0.54,0.54,0,0,0,.3-0.06V57a0.64,0.64,0,0,0,.66-0.18V56.65h0.3c0-.06,0-0.12-0.06-0.12a0.24,0.24,0,0,0-.24.12,0.81,0.81,0,0,0-.72.3,0.28,0.28,0,0,0-.3.12,18,18,0,0,0-3,1.62,3.46,3.46,0,0,0-1.2.78,1.43,1.43,0,0,0-.72.42,2.64,2.64,0,0,0-.66.48,1.82,1.82,0,0,0-.42.3,0.53,0.53,0,0,0-.36.36,0.38,0.38,0,0,0-.36.3,0.76,0.76,0,0,0-.54.42,0.2,0.2,0,0,0-.08.1v0Zm0,2.76h0.24a0.86,0.86,0,0,1-.24.12V64.63Zm0.24,0,0.18-.18a0.32,0.32,0,0,0-.12.18H78.13Zm0.12-.3h0.18a0.23,0.23,0,0,0-.12.12,1,1,0,0,0-.06-0.14v0Zm0.12-.18h0.18c-0.06.06-.06,0.12-0.12,0.18a0.22,0.22,0,0,0-.06-0.2v0Zm0.54-.24L79,63.73c0,0.06-.06.12-0.06,0.18H78.91Zm0.3-.36c0-.06-0.06-0.06-0.06-0.12h0.12a0.44,0.44,0,0,0-.06.1v0Zm0.06-.3h0.3a0.82,0.82,0,0,0-.24.18c0-.08-0.06-0.14-0.06-0.2v0Zm0.42-.12a0.23,0.23,0,0,1-.12.12,0.22,0.22,0,0,1,.12-0.14v0Zm0,0L79.81,63a0.32,0.32,0,0,1-.12.16v0Zm0.12-.3h0.12l-0.12.12V62.83Zm0.12-.18h0.3l-0.3.18V62.65h0Zm0,0.18h0Zm0.36-2.58v0.18H80a1.3,1.3,0,0,1,.28-0.2v0Zm-0.06,2.28h0.12a0.23,0.23,0,0,0-.12.12V62.53Zm0.12-.18h0.24l-0.24.18V62.35Zm0.24,0,0.18-.18v0.06a0.23,0.23,0,0,0-.12.12H80.59Zm0.36-2.58v0.18h-0.3Zm-0.18,2.4a0.21,0.21,0,0,1-.06-0.12h0.18Zm0.54-2.64a0.21,0.21,0,0,1,.06.12h-0.3V59.53h0.24Zm0.3-.18v0.18h-0.3Zm0.06,1.92v0.18c0-.14-0.06-0.14,0-0.2v0Zm0.06,0.24-0.06-.06a0.06,0.06,0,0,1,.06,0v0Zm0.78-2.76a0.22,0.22,0,0,1,.06.18,0.36,0.36,0,0,0-.24-0.06V58.81a0.22,0.22,0,0,0,.18-0.08v0Zm4-2.28a0.38,0.38,0,0,0,.36-0.12,0.5,0.5,0,0,0-.34.1Z" transform="translate(0 -0.03)"/>
    <path class="cls-1" d="M112.33,58.25a19,19,0,0,0-4.2,2.28c-0.6.42-1.26,0.78-1.86,1.14-1.08.84-2.34,1.5-3.48,2.28s-2.1,1.5-3.12,2.34a16.35,16.35,0,0,0-1.44,1.2H98.17c-0.72.54-1.44,1-2.16,1.5a33.87,33.87,0,0,1-3.72,2.22,5.93,5.93,0,0,1-2.22.66,2.91,2.91,0,0,1-2.4-.84,3.81,3.81,0,0,1-1-3.48,16.18,16.18,0,0,1,1.56-4.62,26,26,0,0,1,2.22-3.66,1.91,1.91,0,0,0,.3-0.6A3.12,3.12,0,0,1,92,57.23a3.22,3.22,0,0,0,.9-0.9,20,20,0,0,1,2.4-2.1,13.51,13.51,0,0,1,1.32-.66,1.65,1.65,0,0,1,1.86.36c0.84,0.84.9,1.56-.12,2.64a16,16,0,0,1-2.58,2.34,8,8,0,0,1-3,1.38,1,1,0,0,0-.78.48,2.65,2.65,0,0,0-.48.66,31.2,31.2,0,0,0-1.8,3.42c-0.06.12-.06,0.24-0.12,0.36v0.18a4.38,4.38,0,0,0-.48,1.5,9.21,9.21,0,0,0-.36,1.86,3.6,3.6,0,0,0,0,1.14,0.34,0.34,0,0,0,.35.33l0.13,0a4.06,4.06,0,0,0,1.2-.42,17.17,17.17,0,0,0,2.52-1.44c1.44-.9,2.82-1.86,4.2-2.76,2.16-1.44,4.26-2.88,6.42-4.26,1.68-1.08,3.36-2.16,5.1-3.12,0.42-.24.9-0.48,1.38-0.72a5.48,5.48,0,0,1,.84-0.42,0.84,0.84,0,0,1,.9.24A1.14,1.14,0,0,1,112.33,58.25ZM94,58.19a1.86,1.86,0,0,0,1-.54A10.33,10.33,0,0,0,95.85,57c0.42-.36.78-0.78,1.2-1.2a0.18,0.18,0,0,0,0-.24,0.11,0.11,0,0,0-.15,0l0,0a3.31,3.31,0,0,0-1.56,1.14H95.25a0.13,0.13,0,0,1-.12.12v0.06A4.21,4.21,0,0,0,94,58.19Zm0.36,10.08a0.13,0.13,0,0,0-.12.12,0.23,0.23,0,0,1,.08-0.12h0Zm0.06-.06A0.45,0.45,0,0,0,94.85,68a0.61,0.61,0,0,0-.46.24h0Zm0.3-12.72h0.18V55.37a0.32,0.32,0,0,0-.22.12h0Zm16.14,3a0.52,0.52,0,0,0-.42.3,0.44,0.44,0,0,0-.36.12,1.26,1.26,0,0,0-.42.18,34.27,34.27,0,0,0-3.48,2.22A4.91,4.91,0,0,0,105,62c-0.24.18-.54,0.3-0.78,0.48-1.08.72-2.16,1.44-3.12,2.22l-0.6.36-4.14,3a2.14,2.14,0,0,0-.66.6,0.53,0.53,0,0,0-.48.3,1.3,1.3,0,0,0-.48.3,0.83,0.83,0,0,0,.48-0.3,0.61,0.61,0,0,0,.48-0.3,2.61,2.61,0,0,0,.9-0.48c0.9-.6,1.74-1.26,2.64-1.86,0.66-.48,1.26-1,1.92-1.5,1.38-.84,2.64-1.74,4-2.7a3.51,3.51,0,0,0,1.14-.78,1,1,0,0,0,.36-0.18c1-.6,2.1-1.26,3.12-1.92a0.94,0.94,0,0,0,.36-0.3l0.36-.18a0.56,0.56,0,0,0,.34-0.3h0Zm-15.06-.9a10,10,0,0,0-1,.72,0.81,0.81,0,0,0,.72-0.3,0.4,0.4,0,0,0,.24-0.42h0Zm-0.9-2.28H95v0.18a0.32,0.32,0,0,1,.12-0.18l0.18-.12a1.31,1.31,0,0,0,.48-0.3,3.41,3.41,0,0,0,.48-0.3,0.22,0.22,0,0,1,.06-0.18,0.19,0.19,0,0,1-.06-0.12,2.64,2.64,0,0,0-1.08.72L95,55.19Zm0,1.32c0.78-.54,1.44-1.08,2.22-1.62a4.13,4.13,0,0,0-2.26,1.64Zm0.18-1.32V55.19h0.12A0.22,0.22,0,0,0,95.27,55l0.12,0.18H95.27c0,0.06-.06.06-0.06,0.12H95.09Zm0,12.48a0.45,0.45,0,0,0,.42-0.3,0.69,0.69,0,0,0-.5.3h0.08Zm0.24-10.92a0.21,0.21,0,0,1-.12-0.06h0.06Zm0.36,1.8a0.61,0.61,0,0,0-.42.24,0.4,0.4,0,0,0,.38-0.26Zm-0.12,8.82A1.12,1.12,0,0,1,96,67.37c0.06-.12.18-0.18,0.24-0.3h0.24l0.18-.18V67a0.32,0.32,0,0,0,.18-0.12H96.61a0.32,0.32,0,0,1,.18-0.12c0-.06.06-0.06,0.06-0.12l0.24-.06c0.06-.06.12-0.06,0.18-0.12v0.12l0.12-.12H97.27V66.41a0.31,0.31,0,0,0,.18-0.12v0.12a0.22,0.22,0,0,0,.12-0.12,1,1,0,0,1,.3-0.12L98,66H97.93l0.18-.12V66a0.13,0.13,0,0,1,.12-0.12,1.32,1.32,0,0,0,.48-0.3V65.45l0.06,0.06,0.06-.06V65.39h0.06a0.82,0.82,0,0,0,.48-0.3V65h0.06v0.06A0.13,0.13,0,0,1,99.55,65l0.18-.18a0.61,0.61,0,0,0,.48-0.3,0.32,0.32,0,0,1,.18-0.12,1.31,1.31,0,0,0,.48-0.3l0.18-.18a0.63,0.63,0,0,1,.3-0.12l0.18-.18a0.32,0.32,0,0,1,.18-0.12,0.18,0.18,0,0,0-.12-0.06V63.35c0.06,0,.06.06,0.12,0.06a0.64,0.64,0,0,0,.3-0.12l0.18-.18c0.18-.06.3-0.18,0.48-0.24l0.18-.18a1.31,1.31,0,0,0,.48-0.3,0.32,0.32,0,0,1,.18-0.12,0.19,0.19,0,0,0-.12-0.06V62.15c0.06,0,.06.06,0.12,0.06a0.64,0.64,0,0,0,.3-0.12A0.32,0.32,0,0,1,104,62h-0.18a0.22,0.22,0,0,0,.06-0.18,0.23,0.23,0,0,0,.12.12,0.72,0.72,0,0,0,.3-0.3h0.18c0.18-.06.3-0.18,0.48-0.24l0.18-.18a1.43,1.43,0,0,0,.3-0.3,0.12,0.12,0,0,0,.06-0.12l0.12,0.12c0.12-.12.24-0.18,0.36-0.3V60.47a0.23,0.23,0,0,1,.12.12,2.45,2.45,0,0,1,.54-0.3h-0.06a2.43,2.43,0,0,1,.54-0.3H107a3.28,3.28,0,0,0,.48-0.3l0.54-.3a3.37,3.37,0,0,1,.48-0.3,1.43,1.43,0,0,0,.3-0.3,0.12,0.12,0,0,0,.06-0.12L109,58.79c0.12-.12.24-0.18,0.36-0.3a0.22,0.22,0,0,1-.06-0.18,0.92,0.92,0,0,0-.42.3,1,1,0,0,0-.54.3,0.56,0.56,0,0,0-.42.3,0.81,0.81,0,0,0-.54.3,4.49,4.49,0,0,0-1.44.9,0.82,0.82,0,0,0-.48.3,1,1,0,0,0-.54.3,3.51,3.51,0,0,0-1.14.78,0.72,0.72,0,0,0-.48.3,1.57,1.57,0,0,0-.66.42,3.52,3.52,0,0,0-1.14.78c-0.44.28-.9,0.54-1.32,0.84a1.7,1.7,0,0,0-.66.48,8.58,8.58,0,0,0-1.32.9,3.64,3.64,0,0,0-.84.6,2.13,2.13,0,0,0-.6.42,2.64,2.64,0,0,0-.66.48,1.2,1.2,0,0,0-.56.48h0Zm1.26-9.72a0.21,0.21,0,0,0-.12.06,2.89,2.89,0,0,0-.84.66,0.23,0.23,0,0,1-.12.12,0.13,0.13,0,0,0,.12-0.12,1.24,1.24,0,0,0,.84-0.6,0.23,0.23,0,0,0,.08-0.12h0Zm0.36-.3a0.13,0.13,0,0,0-.12.12,0.22,0.22,0,0,0,.08-0.12h0Zm0.36,8.7a0.21,0.21,0,0,0,.06.12H97.49a0.21,0.21,0,0,0,0-.12h0Zm0.72-.48v0.18H98.11a0.32,0.32,0,0,0,.12-0.22Zm1.32-.84V65a0.12,0.12,0,0,0-.12-0.06,0.14,0.14,0,0,1,.08-0.06h0Zm0.06-.12c0.06,0,.06.06,0.12,0.06a0.12,0.12,0,0,1-.16-0.06h0Zm0.6-.24V64.37c0,0.06,0,.06,0,0.12h0Zm0.18-.12a0.19,0.19,0,0,0-.12-0.06V64.25a0.23,0.23,0,0,1,.08.12h0Zm0.54-.6,0.12,0.12h-0.18a0.15,0.15,0,0,0,0-.12h0Zm0.6-.3v0.12h-0.18Zm1.2-.9,0.12,0.12h-0.18a0.12,0.12,0,0,0,0-.12h0Zm2.28-1.5,0.12,0.12H105a0.12,0.12,0,0,0,0-.12h0Zm4.38-2.76a0.29,0.29,0,0,0,.3-0.12Zm0.36-.12a0.46,0.46,0,0,0,.24-0.12,0.24,0.24,0,0,0-.28.12h0Zm0.3-.18h0.12l0.06-.06c0-.06-0.06-0.06-0.12-0.06A0.21,0.21,0,0,1,110,58h0.08Zm1.08,0.36a0.24,0.24,0,0,0-.24.12,0.46,0.46,0,0,1,.2-0.12h0Z" transform="translate(0 -0.03)"/>
    <path class="cls-1" d="M132.61,58.85h0.3a0.72,0.72,0,0,1-.3.3,8.69,8.69,0,0,1-.78.48,39.33,39.33,0,0,0-3.48,1.92l-0.78.42c-1.14.72-2.34,1.38-3.48,2.1-0.72.42-1.38,0.78-2.1,1.14a9.18,9.18,0,0,1-1.2.36,2.08,2.08,0,0,1-2.34-.78,4.61,4.61,0,0,1-.48-0.66,1.67,1.67,0,0,1-.3-1.5,8.87,8.87,0,0,1,.78-2.1l0.36-1c0.06-.18-0.06-0.3-0.3-0.24a4.58,4.58,0,0,0-.66.24c-0.9.42-1.8,0.9-2.7,1.38a13.29,13.29,0,0,1-1.38.9,1.3,1.3,0,0,0-.3.24,8.48,8.48,0,0,0-.9.66h0.06c-1,.78-1.92,1.56-2.94,2.28a2.94,2.94,0,0,1-1.2.66,1.75,1.75,0,0,1-2-.48l-0.3-.36a1.22,1.22,0,0,1-.36-1.38,9,9,0,0,1,.9-2.22c0.36-.6.66-1.14,1-1.74a40.36,40.36,0,0,1,2.64-3.9c0.72-1,1.56-1.92,2.4-2.88,0.36-.36.78-0.72,1.2-1.08,0.18-.12.3-0.18,0.48,0.06s0.3,0,.3.24a1.08,1.08,0,0,1-.06.6l-0.36.48c-0.84,1.26-1.68,2.4-2.52,3.66a2,2,0,0,0-.36.72,11.91,11.91,0,0,0-1.5,2.34,0.45,0.45,0,0,1-.06.24c-0.06.12-.12,0.12-0.18,0.24v0.18c-0.06.12-.18,0.24-0.24,0.36a0.37,0.37,0,0,0-.12.42,1.24,1.24,0,0,0-.24.36,0.51,0.51,0,0,0-.3.66h0a0.22,0.22,0,0,0,.28.13h0c0.24-.12.42-0.36,0.72-0.54a23.65,23.65,0,0,1,4.26-3A21.24,21.24,0,0,1,117,57.37a4.38,4.38,0,0,1,1.14-.42,2,2,0,0,1,2,.42,6.39,6.39,0,0,1,1,1.2,1.68,1.68,0,0,1,.12,1.2,6.61,6.61,0,0,1-.54,1.86c-0.18.42-.3,0.9-0.54,1.38a0.22,0.22,0,0,0,.06.18h0.24c0.18-.06.36-0.18,0.54-0.24,0.9-.48,1.8-0.9,2.58-1.32,1.56-.78,3.12-1.5,4.56-2.34,0.6-.3,1.26-0.54,1.8-0.78,0.3-.18.6-0.3,0.84-0.42a5.61,5.61,0,0,0,.6-0.3,1.2,1.2,0,0,1,1.44.42,0.2,0.2,0,0,1,.08.27l0,0A0.42,0.42,0,0,0,132.61,58.85Zm-23.52,4.56a1.46,1.46,0,0,0,.66-0.54h0.18c0.06,0,.06.06,0.06,0.12a0.13,0.13,0,0,1,.12-0.12l0.12-.12h-0.12l0.12-.18a0.22,0.22,0,0,0,.06.18,0.51,0.51,0,0,1,.18-0.18h-0.24a0.71,0.71,0,0,1,.42-0.24v0.12c0.06,0,.06-0.06.06-0.12h-0.06a0.19,0.19,0,0,0,.06-0.12,0.32,0.32,0,0,1,.18-0.12v0.12h-0.12v0.12a0.23,0.23,0,0,1,.12-0.12,0.77,0.77,0,0,0,.36-0.24H111a0.45,0.45,0,0,1,.42-0.3v0.12a0.19,0.19,0,0,0,.06-0.12h-0.06a0.23,0.23,0,0,0,.12-0.12,0.72,0.72,0,0,1,.3-0.3,0.87,0.87,0,0,1,.24-0.12,0.49,0.49,0,0,1,.36-0.24V61l0.12-.12h-0.12a0.13,0.13,0,0,0,.12-0.12l0.18-.24H113a1.6,1.6,0,0,0,.12-0.3l0.72-.48a0.43,0.43,0,0,0-.36.24l-0.84.48a2.92,2.92,0,0,0-.84.66,9.59,9.59,0,0,0-2.1,1.68,1.31,1.31,0,0,0-.6.54l-0.18.18a0.32,0.32,0,0,1,.16-0.12h0Zm5.82-2.88a0.75,0.75,0,0,0-.66.36,0.65,0.65,0,0,0-.42.18A36.12,36.12,0,0,0,110,64a1.61,1.61,0,0,0-.12.3,0.51,0.51,0,0,0-.36.18,0.52,0.52,0,0,0,.36-0.18,2.28,2.28,0,0,0,.84-0.66c1.14-.84,2.22-1.8,3.42-2.58l0.12-.18a0.91,0.91,0,0,0,.66-0.36h0Zm-5,2.34c0.06-.06.12-0.06,0.18-0.12v0.12h-0.18Zm2.7-2.1v0.12l0.18-.12h-0.18Zm12.06,2.34a0.55,0.55,0,0,0-.36.24,1.24,1.24,0,0,0,.38-0.24h0Zm0.6-.36a1.24,1.24,0,0,0-.36.24,0.46,0.46,0,0,0-.18.12l0.18-.12a0.56,0.56,0,0,0,.38-0.24h0Zm0.24-.18a0.2,0.2,0,0,1-.18.12c0.14,0,.2,0,0.2-0.12h0Zm0.72-.36a0.55,0.55,0,0,0-.36.24,0.5,0.5,0,0,0,.38-0.24h0Zm0.24-.12a0.26,0.26,0,0,0-.18.06,0.29,0.29,0,0,0,.2-0.06h0Zm0.24-1.32-0.18.12a0.17,0.17,0,0,0,.2-0.12h0Zm0,1.2a0.32,0.32,0,0,0-.18.12Zm0.66-.42a0.87,0.87,0,0,0-.6.42,2.16,2.16,0,0,0,.62-0.42h0Zm0.3-.12a0.23,0.23,0,0,0-.24.12,0.86,0.86,0,0,0,.26-0.12h0Zm0.18-.12a0.3,0.3,0,0,0-.18.06,0.27,0.27,0,0,0,.2-0.06h0Zm0.72-.42c-0.06.06-.18,0.06-0.24,0.12a0.31,0.31,0,0,0,.26-0.12h0Zm0.24-.06c-0.06,0-.18,0-0.18.06a0.61,0.61,0,0,1,.2-0.06h0Zm1.2-.72a0.31,0.31,0,0,0-.24.12,1,1,0,0,0-.66.42,1.14,1.14,0,0,0,.66-0.42,0.86,0.86,0,0,1,.24-0.12h0Zm1.14-.66c-0.06,0-.06.06-0.12,0.06l-0.06.06c0,0.06.06,0.06,0.12,0a0.12,0.12,0,0,1,.08-0.12h0Z" transform="translate(0 -0.03)"/>
    <path class="cls-1" d="M146,56.87a1.43,1.43,0,0,1-.12.48,0.32,0.32,0,0,1-.12.18l-3,2.34c-1.38,1.08-2.82,2.16-4.14,3.24-2.34,1.74-4.62,3.54-7,5.28a17.48,17.48,0,0,1-2.22,1.44,3.38,3.38,0,0,1-1.08.42,1.25,1.25,0,0,1-1.14-.3l-0.3-.18a1.5,1.5,0,0,1-.66-1.62,8.46,8.46,0,0,1,.66-2.7,4,4,0,0,0,.54-1.14,31.76,31.76,0,0,1,2-3.72c0.72-1.32,1.44-2.58,2.22-3.84a37.51,37.51,0,0,1,2.64-3.66,1,1,0,0,1,.48-0.36,0.83,0.83,0,0,1,.48,1.32,11.66,11.66,0,0,1-1,2.16c-0.3.48-.54,1-0.78,1.44a0.46,0.46,0,0,0-.12.24h0.12a0.41,0.41,0,0,0-.18.3,2.57,2.57,0,0,0-.54.6,8.48,8.48,0,0,1-.78,1.44,2.11,2.11,0,0,1-.24.54,0.85,0.85,0,0,0-.12.24,0.12,0.12,0,0,0,.12.06h-0.12a2.21,2.21,0,0,0-.66,1.14,1.58,1.58,0,0,0-.42.9,1.89,1.89,0,0,0-.48.9,2.72,2.72,0,0,0-.6,1.26,0.17,0.17,0,0,1-.12.18,8.94,8.94,0,0,0-1,2.34,2.9,2.9,0,0,0-.06.72,0.28,0.28,0,0,0,.3.18,1.35,1.35,0,0,0,.3-0.18l1.14-.72c0.54-.36,1-0.78,1.56-1.14,1.26-1,2.58-1.92,3.84-2.82,1-.72,1.92-1.32,2.82-2,1.38-1,2.82-2,4.2-3.12l2.52-1.8a0.73,0.73,0,0,1,.9-0.12Zm-17.16,8.64h0Zm0.3-.66a1,1,0,0,0,.18-0.36,1.48,1.48,0,0,1,.12-0.3V64.13c-0.06.12-.06,0.24-0.12,0.36a0.79,0.79,0,0,1-.18.3v0.06Zm0.6-1.26a0.12,0.12,0,0,0,.12-0.06,0.06,0.06,0,0,1-.06-0.06,0.42,0.42,0,0,0-.08.12h0Zm0.72-1.2c0-.12.06-0.18,0.06-0.3a2.59,2.59,0,0,0-.08.3h0Zm6.84-12.66a1,1,0,0,1-.3-0.9,3,3,0,0,1,.3-0.78,20.06,20.06,0,0,1,2.16-2.88,3.14,3.14,0,0,1,.66-0.6,0.55,0.55,0,0,1,.72,0,3.3,3.3,0,0,0,.54.42,5.13,5.13,0,0,1-.48.6,1,1,0,0,0-.54.54,0.41,0.41,0,0,0-.3.42,0.85,0.85,0,0,1,.36-0.42,3.93,3.93,0,0,1,.48-0.54c0.24-.06.36-0.12,0.66-0.18a2.42,2.42,0,0,0-.24.3A4.15,4.15,0,0,0,140,47a11.88,11.88,0,0,0-1.14,1.86,6.51,6.51,0,0,1-.78,1,0.63,0.63,0,0,1-.74-0.16h0Zm2.82-4.5h0.06a0.24,0.24,0,0,0,.3-0.24h-0.08c-0.12-.06-0.18-0.06-0.24.06a0.22,0.22,0,0,0-.06.18h0Z" transform="translate(0 -0.03)"/>
    <path class="cls-1" d="M208.38,23.65a0.31,0.31,0,0,1-.44,0l0-.05a8.77,8.77,0,0,0-3-.72q-2.07-.27-4.14-0.36c-4.2-.24-8.4-0.3-12.54-0.24h-7l-7.86.18c-3.18.06-6.42,0.18-9.6,0.3-0.9,0-1.86.06-2.76,0.06a1.26,1.26,0,0,0-1.08.6c-0.54,1-1,1.92-1.56,2.94v0.12c-0.06.12-.12,0.18-0.18,0.3h0.06c-0.06.12-.12,0.18-0.18,0.3a0.51,0.51,0,0,0-.18.3,0.46,0.46,0,0,0-.12.3,0.51,0.51,0,0,0-.18.3,0.46,0.46,0,0,0-.12.3l-0.18.3a0.45,0.45,0,0,0-.12.3,0.51,0.51,0,0,0-.18.3,0.46,0.46,0,0,1-.12.3,0.79,0.79,0,0,0-.18.3,0.46,0.46,0,0,0-.12.3l-0.18.3a0.45,0.45,0,0,1-.12.3,1.28,1.28,0,0,1-.18.3,3.23,3.23,0,0,0-.6,1.2,0.46,0.46,0,0,1-.12.3,6.1,6.1,0,0,0-.78,1.68,0.46,0.46,0,0,0-.12.3,0.5,0.5,0,0,0-.18.3,0.63,0.63,0,0,1-.12.3,3.65,3.65,0,0,0-.54,1.08,0.54,0.54,0,0,0-.06.6,1.31,1.31,0,0,0-.18.3l0.06-.06a1.46,1.46,0,0,0-.36.48,0.63,0.63,0,0,1-.12.3,2.22,2.22,0,0,0-.48,1.08V38.77a0.64,0.64,0,0,1-.12.3,1.26,1.26,0,0,0-.3.78,0.51,0.51,0,0,0-.18.3,1,1,0,0,0-.24.72,1.19,1.19,0,0,0-.36.78l-0.12.3a5.69,5.69,0,0,0-.78,2c-0.06.06-.06,0.18-0.12,0.24s0.12,0,.12.06h-0.12l-0.18.36a0.29,0.29,0,0,0,0,.41h0l-0.36.36a1.7,1.7,0,0,0-.24.78,0.55,0.55,0,0,0-.18.42,1.27,1.27,0,0,0-.3.78,0.64,0.64,0,0,0-.12.3,0.5,0.5,0,0,0-.18.48,1.32,1.32,0,0,0-.18.3,1.12,1.12,0,0,0-.12.42,2.25,2.25,0,0,0-.36.78,0.64,0.64,0,0,0,.06.48,1.08,1.08,0,0,0-.3.42,0.27,0.27,0,0,0,0,.3l-0.18.42c-0.06-.06-0.06-0.06-0.12,0a2.85,2.85,0,0,0-.36.9l-0.12.48a0.18,0.18,0,0,1,0,.24V53a1.88,1.88,0,0,0-.3.6,1.6,1.6,0,0,0-.12.3,0.87,0.87,0,0,0-.12.42,0.45,0.45,0,0,0-.12.24,1.12,1.12,0,0,1-.3.84,1,1,0,0,0-.24.72,11.94,11.94,0,0,0-.87,2.58,1.48,1.48,0,0,0-.3.9,3.64,3.64,0,0,1-.3.72,3.35,3.35,0,0,0-.24.72l-0.18.66a2,2,0,0,0-.3,1v0.18a2.79,2.79,0,0,0-.3.6,2.67,2.67,0,0,0-.3.9,8.32,8.32,0,0,0-.6,2,1.37,1.37,0,0,0-.36.72l-0.54,2c-0.06.12-.12,0.3-0.18,0.42a1.42,1.42,0,0,0-.12.48l-0.18.42c-0.24.78-.48,1.62-0.72,2.4a2.86,2.86,0,0,0-.36,1.08h0l-0.18.48V74.27a2.65,2.65,0,0,0-.3.9,2.45,2.45,0,0,0-.3,1.08,1.1,1.1,0,0,0-.12.42,1.16,1.16,0,0,0-.18.6,1.42,1.42,0,0,0-.12.48l-0.18.48V78.17c-0.12.54-.3,1-0.42,1.56V79.65a2.45,2.45,0,0,0-.3,1.08,2.25,2.25,0,0,0-.3,1.08,1.14,1.14,0,0,0-.3.6L137,83.65a3.52,3.52,0,0,0-.18,1.14,5.1,5.1,0,0,1-.24,1.32,1.11,1.11,0,0,1-.42.72,0.15,0.15,0,0,1-.21,0l0,0q-0.09-.18-0.18,0c-0.3.24-.3,0.24-0.54,0.06a1,1,0,0,0-.6-0.36c-0.36,0-.48-0.24-0.36-0.66,0.3-1.26.6-2.58,1-3.84,0.48-1.62.9-3.3,1.38-4.92,0.6-2,1.08-4,1.8-5.94,0.18-.66.3-1.26,0.54-1.92,0.3-1,.66-2,1-3.12s0.54-1.92.84-2.88,0.72-2.1,1-3.12l1.38-4.26c0.36-1.14.78-2.22,1.14-3.36,0.66-1.8,1.38-3.6,2-5.34,0.42-1.14.9-2.22,1.32-3.3s0.78-1.92,1.2-2.94l1.62-3.6c0.6-1.56,1.44-3.06,2.16-4.62,1-2.22,2.1-4.38,3.24-6.54l1.2-2.28c0.36-.66.24-0.78-0.42-0.72-1.32,0-2.64.12-3.9,0.18l-6.12.36c-0.9.06-1.8,0.18-2.64,0.24l-2,.18c-1.86.18-3.72,0.3-5.52,0.48-2,.24-4,0.42-5.88.66l-4,.54c-1.14.12-2.28,0.3-3.42,0.42s-2.16.3-3.24,0.48-2.4.3-3.6,0.48c-1.44.18-2.82,0.36-4.2,0.6s-2.7.24-4,.36a6.75,6.75,0,0,1-1.92-.12,1.29,1.29,0,0,1-1.14-.66V27c0.06,0,.18-0.06.24-0.06a3.39,3.39,0,0,0,1.56.12,30.14,30.14,0,0,0,3.14-.46c2-.3,4.08-0.66,6.06-1,1.2-.18,2.34-0.42,3.48-0.6,2.7-.48,5.46-0.9,8.16-1.32,1.38-.18,2.7-0.36,4.08-0.6,1.14-.18,2.34-0.3,3.48-0.42l3.36-.36c0.9-.12,1.74-0.18,2.64-0.24l4.08-.36c1.14-.12,2.22-0.18,3.3-0.24,1.62-.12,3.24-0.18,4.8-0.3h1.2l3.48-.18a0.69,0.69,0,0,0,.66-0.36,4,4,0,0,0,.54-0.84c0.36-.72.84-1.38,1.26-2.1,0.54-1,1.14-1.92,1.74-2.82s1.2-2,1.86-2.94c0.6-.78,1.08-1.62,1.62-2.4,0.84-1.2,1.68-2.34,2.58-3.54s1.92-2.46,2.94-3.66c0.54-.66,1.14-1.32,1.74-2a0.82,0.82,0,0,1,.24-0.18,0.3,0.3,0,0,1,.4-0.13h0a0.52,0.52,0,0,1,.36.54,1.42,1.42,0,0,1-.12.48,7.88,7.88,0,0,1-.6.9c-1,1.44-2,2.82-3,4.32s-1.86,2.76-2.76,4.2a8,8,0,0,0-.36.72v0.12a2.48,2.48,0,0,0-.6.78,1.9,1.9,0,0,0-.48.72,3,3,0,0,0-.6.9,7.64,7.64,0,0,0-.9,1.5,14.45,14.45,0,0,0-.78,1.26,3.33,3.33,0,0,0-.54,1,1.31,1.31,0,0,0-.18.3,0.91,0.91,0,0,0-.42.72,2.17,2.17,0,0,0-.6,1.08l-0.18.3a0.29,0.29,0,0,0-.12.3,0.32,0.32,0,0,1-.18.12v0.06c-0.06.06-.06,0.18-0.12,0.24s0.06,0.06.12,0.06a0.79,0.79,0,0,0,.6.18c1.26-.06,2.52-0.06,3.78-0.06,1.56-.06,3.06-0.12,4.62-0.12,4-.12,8-0.12,11.94-0.18,4.56,0,9.06,0,13.62.06,2,0.06,4,.18,6,0.3a21.47,21.47,0,0,1,3.84.66,4.29,4.29,0,0,1,2.1,1.44,0.64,0.64,0,0,1,.12.3A0.37,0.37,0,0,1,208.38,23.65Zm-72.3,57.84c-0.06.12-.06,0.24-0.12,0.36a0.18,0.18,0,0,0,.12.06V81.49Zm0.24-.18a1.18,1.18,0,0,1-.06-0.42,1.92,1.92,0,0,0-.18.54c0.19,0.1.25,0,.25-0.08v0Zm0.24-1.5a0.65,0.65,0,0,0-.12.48,1,1,0,0,0-.18.54h0.18V80.29a1.42,1.42,0,0,0,.13-0.44v0Zm0.18-.54a0.68,0.68,0,0,0-.18.48,1.14,1.14,0,0,0,.19-0.44v0Zm21.48-53.52A0.25,0.25,0,0,0,158,26a0.44,0.44,0,0,0-.12.36,0.25,0.25,0,0,0-.18.24,1.56,1.56,0,0,0-.42.66c-1.32,2.58-2.64,5.16-3.84,7.8-1.32,2.82-2.52,5.7-3.72,8.64-1.32,3.36-2.64,6.78-3.84,10.26s-2.46,7.14-3.6,10.74c-1.8,5.46-3.54,11-5.1,16.56a14.64,14.64,0,0,0-.48,1.74,0.79,0.79,0,0,0,0,.54,3.46,3.46,0,0,0,.36-1c0.84-3.18,1.8-6.3,2.76-9.42,0.84-2.64,1.74-5.28,2.58-7.92,1.08-3.42,2.22-6.78,3.42-10.14s2.28-6.54,3.6-9.78c1.08-2.82,2.22-5.58,3.48-8.34,0.66-1.56,1.38-3,2.1-4.5s1.44-3.12,2.22-4.62a3.83,3.83,0,0,0,.48-1.14,0.33,0.33,0,0,0,.18-0.3,0.28,0.28,0,0,0,.12-0.3,0.33,0.33,0,0,0,.19-0.28v0Zm-21.47,53.5a1.12,1.12,0,0,0,.12-0.48H137c0-.18-0.06-0.36-0.06-0.6h0.18a0.8,0.8,0,0,1,.18-0.48c0-.18-0.06-0.36-0.06-0.54a5,5,0,0,0-.3,1c-0.06.24-.06,0.42-0.12,0.6A0.72,0.72,0,0,0,136.75,79.25Zm0.6-2.16c0.06-.12.18-0.24,0.3-0.42a0.33,0.33,0,0,1,.12-0.3,0.62,0.62,0,0,0,.18-0.24h-0.06a0.86,0.86,0,0,0,.18-0.9V74.65a1,1,0,0,0-.12.6A4.84,4.84,0,0,0,137.35,77.09Zm0.72-2.52h0.18v0.08a0.1,0.1,0,0,0,.12-0.12,0.25,0.25,0,0,0,0-.42l0.18-.48a0.29,0.29,0,0,1,.12-0.3,0.72,0.72,0,0,0,.18-0.72,1.14,1.14,0,0,1,.12-0.48,0.9,0.9,0,0,1,.18-0.42v-0.6a0.65,0.65,0,0,0,.12-0.48h0.18a0.86,0.86,0,0,1,.12-0.42V70.15a0.65,0.65,0,0,1,.18-0.42,0.28,0.28,0,0,1,.12-0.3,0.29,0.29,0,0,0,.12-0.3l0.18-.42a0.36,0.36,0,0,0,0-.48,1.61,1.61,0,0,1,.18-0.48,1.12,1.12,0,0,1,.12-0.42,0.51,0.51,0,0,1,.18-0.3,0.29,0.29,0,0,0,.12-0.3,0.91,0.91,0,0,0,.18-0.42,0.67,0.67,0,0,0,0-.48,0.41,0.41,0,0,1,.18-0.3,0.36,0.36,0,0,0,.06-0.6h0.06a1.42,1.42,0,0,1,.12-0.48,0.62,0.62,0,0,1,.18-0.24,0.33,0.33,0,0,0,.12-0.3,0.65,0.65,0,0,1-.12-0.48h0.12v0.42l0.18-.42A1.1,1.1,0,0,0,142,63a0.72,0.72,0,0,1-.12-0.48H142V63a0.29,0.29,0,0,0,0-.41h0a0.54,0.54,0,0,1,.18-0.42c0.06,0.06.06,0,.12,0h-0.12a1.42,1.42,0,0,1,.12-0.48v0.42a0.9,0.9,0,0,0,.18-0.42,1.12,1.12,0,0,0,.12-0.42h-0.12a0.65,0.65,0,0,1,.12-0.48v0.42a0.89,0.89,0,0,0,.18-0.42,1.12,1.12,0,0,0,.12-0.42h-0.12a1.4,1.4,0,0,1,.12-0.48v0.42a0.89,0.89,0,0,0,.18-0.42,0.36,0.36,0,0,0,0-.42v0.42h-0.18a1.55,1.55,0,0,1,.18-0.48,0.46,0.46,0,0,1,.12-0.24,0.61,0.61,0,0,0,.3-0.6,4.22,4.22,0,0,0,.48-1.38,0.65,0.65,0,0,0,.12-0.48,0.55,0.55,0,0,0,.18-0.42,1.42,1.42,0,0,0,.12-0.48,0.54,0.54,0,0,0,.18-0.42,0.65,0.65,0,0,0,.12-0.48,1.26,1.26,0,0,0,.18-0.42A0.72,0.72,0,0,0,145,54a1.28,1.28,0,0,0,.18-0.42H145V53.05a1.4,1.4,0,0,0,.3-0.3v0.42a0.54,0.54,0,0,0,.18-0.42,1.12,1.12,0,0,0,.12-0.42,0.8,0.8,0,0,0,.18-0.48c0.18-.24.36-0.42,0.12-0.72l0.1-.48c0.06,0.12.06,0.12,0.12,0a0.65,0.65,0,0,0,.18-0.42h-0.18V49.75h0.18v0.42a1.31,1.31,0,0,0,.3-0.72,0.57,0.57,0,0,0,.12-0.42,1.26,1.26,0,0,0,.3-0.78l0.18-.42H147V47.45a0.06,0.06,0,0,0-.06.06c-0.3.66-.54,1.26-0.78,1.92-0.06.12,0,.24-0.06,0.36a0.65,0.65,0,0,0-.12.48,0.69,0.69,0,0,0-.3.42c-0.24.66-.48,1.26-0.66,1.92-0.06.12-.06,0.3-0.12,0.48a0.65,0.65,0,0,0-.12.48,0.83,0.83,0,0,0-.3.48l-2.5,7.8a1.53,1.53,0,0,0-.12.72,1,1,0,0,0-.3.9,7,7,0,0,0-.78,2.4,1.47,1.47,0,0,0-.24.54c-0.24.6-.42,1.2-0.6,1.8a1.67,1.67,0,0,1-.06.54,7.16,7.16,0,0,0-.6,1.92,0.65,0.65,0,0,0-.12.48,3.41,3.41,0,0,0-.48,1.5,3.31,3.31,0,0,0-.42,1.5A0.4,0.4,0,0,0,138.07,74.57Zm3.78-11.1h-0.18c0.06-.06.12-0.12,0.18,0h0Zm0.42-1.8c0.06-.12.12-0.3,0.18-0.42v0.4h-0.18v0Zm0.3-.9c0.06-.12.12-0.3,0.18-0.42v0.42h-0.18Zm0.72-2.28h0.06l-0.06.06V58.49Zm0.18,0.06a0.19,0.19,0,0,0-.12-0.06c0-.06,0-0.12.06-0.12S143.47,58.49,143.47,58.55ZM144,56.69v0.48a0.22,0.22,0,0,1-.18-0.06,1.29,1.29,0,0,1,.18-0.46v0Zm0.12-.42v0.38H144A0.57,0.57,0,0,1,144.07,56.27Zm0.18-.48v0.48h-0.18A1.55,1.55,0,0,1,144.25,55.79Zm0.12-.42v0.42h-0.12A0.57,0.57,0,0,1,144.37,55.37Zm0.18-.48v0.48h-0.18Zm-0.18,5.46V60.29h0.06Zm0.3-5.88v0.42h-0.12a0.57,0.57,0,0,1,.12-0.42h0Zm0.18-.48v0.48h-0.18Zm0,0V53.57H145V54h-0.16Zm0.6-1.62v0.42h-0.18a1.29,1.29,0,0,1,.18-0.42h0Zm0.12-.48v0.48h-0.12a0.65,0.65,0,0,1,.12-0.48h0Zm0.18-.42v0.42h-0.18Zm0.18,4.68-0.06-.06h0.06v0.06Zm0.08-5.5V50.23h0.12v0.42H146Zm0.6-1.62v0.42h-0.18Zm0.12,0h-0.12a0.12,0.12,0,0,1,.16,0Zm0.18-.78a0.51,0.51,0,0,1,.12-0.42v0.42h-0.12Zm0.12-.9a0.4,0.4,0,0,0,.12-0.42,0.87,0.87,0,0,0-.08.46Zm0.36,4.86a0.46,0.46,0,0,1-.24-0.06h0.06a0.22,0.22,0,0,1,.22.1Zm-0.18-5.34a1,1,0,0,0,.3-0.72c0.06-.12.18-0.18,0.24-0.3a1,1,0,0,0,.06-0.42,0.81,0.81,0,0,0-.3.72,1.1,1.1,0,0,0-.26.76Zm0.3,4.38h0.12c0,0.1,0,.1-0.08,0Zm0.3-5.88,0.24-.24c0-.18.06-0.3,0.06-0.48a0.6,0.6,0,0,1,.24-0.3,0.88,0.88,0,0,0,.06-0.42c0.12-.12.18-0.24,0.24-0.3a1.31,1.31,0,0,0,.06-0.48,1.41,1.41,0,0,1,.3-0.3c0.06,0.06.12,0.06,0.12,0H149V42.43a0.81,0.81,0,0,0-.3.72,1.26,1.26,0,0,0-.3.78,0.81,0.81,0,0,0-.3.72,1.25,1.25,0,0,0-.26.76Zm0,0.48c0.06,0.06.12,0.06,0.12,0h-0.12Zm0.78,2.58h0.12s-0.08.1-.08,0ZM149,42.37a1,1,0,0,0,.3-0.72,0.28,0.28,0,0,0,.12-0.3,0.46,0.46,0,0,0-.12.3,1.25,1.25,0,0,0-.3.76v0Zm0.42-1.08a1.59,1.59,0,0,0,.36-0.3c0-.12-0.06-0.24-0.06-0.36a1.33,1.33,0,0,0-.26.7Zm0.3-.72a0.2,0.2,0,1,1,0,.08Zm0.06,4.86-0.06-.06h0.06v0.06Zm0.12-5.16H150a2,2,0,0,1,.18-0.3V39.55h0.12v-0.3h0.18v0.3h-0.12V40a1.1,1.1,0,0,1,.12-0.42l0.12-.3h-0.12a0.46,0.46,0,0,1,.12-0.3V38.53a1,1,0,0,0-.3.72,0.45,0.45,0,0,0-.12.3,1.24,1.24,0,0,0-.26.76Zm0.3-.24v0.24c0.06-.06.06-0.18,0.12-0.24h-0.12Zm0.6-1.86,0.12-.18V37.87a0.12,0.12,0,0,0-.06.12,0.22,0.22,0,0,0,0,.22Zm0.48-1.08a0.88,0.88,0,0,0,.12-0.24,0.46,0.46,0,0,0-.08.28Zm0,4.56h0.12a0.64,0.64,0,0,0-.12.3v-0.3Zm0.12-4.86a0.31,0.31,0,0,0,.12-0.24,0.46,0.46,0,0,0-.08.28Zm0.18-.24h0.12a0,0,0,0,0-.08,0Zm0.3-.78c0.06-.06.06-0.18,0.12-0.24a0.31,0.31,0,0,0-.08.28Zm0.12-.3h0.12a1.35,1.35,0,0,0,.06-0.24,0.82,0.82,0,0,1-.18.28v0Zm0.9,2.28H153c0,0.1,0,.1-0.08,0Zm0.12,0v-0.3a0.54,0.54,0,0,1,.06.3H153Zm1-6.54,0.12-.18a0.32,0.32,0,0,0-.14.22Zm0.3,3.54h0.12a0.64,0.64,0,0,0-.12.3v-0.3Zm1.2-2.58a0.21,0.21,0,0,0,.12.06,0.46,0.46,0,0,0-.12.24v-0.3Zm0.9-1.5a0.65,0.65,0,0,0-.06-0.3h0.06v0.3Zm3.12-7.32a0.19,0.19,0,0,0-.06-0.12,6.37,6.37,0,0,1-.42.66,9.8,9.8,0,0,0-.84,1.8l0.18-.18a12.27,12.27,0,0,0,1.14-2.12v0Zm2.1-2.76V20.35h0.18Zm0.48-.72V19.65h0.12Zm2-3.42h-0.24a0.18,0.18,0,0,1,.22,0ZM164,15.35c0.06,0,.06-0.06.12-0.06V15.23c0-.06-0.06-0.06-0.06,0A0.12,0.12,0,0,1,164,15.35Z" transform="translate(0 -0.03)"/>
    <path class="cls-1" d="M179.11,58.65H179a2.45,2.45,0,0,0-1.62.18,11.29,11.29,0,0,0-1.5.66,64.38,64.38,0,0,0-6.54,3.84,8.79,8.79,0,0,0-.78.48,2.62,2.62,0,0,0-1,1l-0.12.3V65a2.57,2.57,0,0,1-.06.3,0.29,0.29,0,0,0-.18.36c0,0.06.06,0.06,0.12,0.06a0.22,0.22,0,0,0-.06.18,0.29,0.29,0,0,1-.06-0.24h0l-0.12.3a2.08,2.08,0,0,1-.3.48c-0.12.3-.3,0.6-0.42,0.9-0.06.12-.06,0.3-0.12,0.42a1.79,1.79,0,0,0-.48,1.08,0.43,0.43,0,0,0-.18.36,2.15,2.15,0,0,0-.66,1.32,1.14,1.14,0,0,0-.48.9h0a1.56,1.56,0,0,0-.36.78c0.18,0.12.12,0.18,0.06,0.3a0.46,0.46,0,0,1-.06-0.24c-0.12.12-.18,0.3-0.3,0.42h0.06l-0.36.54a1.52,1.52,0,0,1-.24.42,0.54,0.54,0,0,0-.18.42l-0.18.36a11.28,11.28,0,0,0-.66,1.14,4.63,4.63,0,0,0-.84,1.5l-0.34.54a2.14,2.14,0,0,1-.24.54,0.82,0.82,0,0,0-.3.48,1,1,0,0,0-.3.54,0.81,0.81,0,0,0-.3.54l-0.42.6a3,3,0,0,0-.18.42h0.18c-0.06.12-.06,0.18-0.12,0.3a1.38,1.38,0,0,0-.06-0.24,0.45,0.45,0,0,0-.18.6l-0.48.54h0.06v0.24c0-.06-0.06-0.12-0.06-0.18l-0.12.18a2.59,2.59,0,0,1-.24.42v0.24a0.36,0.36,0,0,1-.06-0.24,0.36,0.36,0,0,0-.06.24,1.43,1.43,0,0,0-.36.48,5.23,5.23,0,0,1-.42,1c-0.3.42-.54,0.9-0.84,1.32-0.54.78-1,1.62-1.56,2.4l-1.68,2.4-0.66.84c-0.06.12-.18,0.18-0.24,0.3a35.77,35.77,0,0,1-3.78,4.68,16.85,16.85,0,0,1-2,2.1c-0.6.6-1.2,1.14-1.86,1.74a20.27,20.27,0,0,1-2.82,2.1,6.46,6.46,0,0,1-3,1.08,3.34,3.34,0,0,1-2.34-.48l-0.36-.18a3.4,3.4,0,0,1-1.86-3.06,9.6,9.6,0,0,1,.12-1.86,16.25,16.25,0,0,1,1.32-4.08,31.84,31.84,0,0,1,1.62-3.18c0.54-1,1.2-1.92,1.8-2.88,1-1.5,2.16-2.88,3.3-4.32,0.9-1.14,1.86-2.22,2.82-3.3,1.14-1.26,2.4-2.46,3.6-3.72a53,53,0,0,1,4.26-3.9c0.84-.72,1.62-1.44,2.46-2.1l3.78-3a48.1,48.1,0,0,1,4.26-2.94l1.32-.9a3.53,3.53,0,0,0,.48-0.48l0.12-.3a21.06,21.06,0,0,0,1.26-4.32c0.06-.48.06-0.9,0.12-1.38V56.45a0.4,0.4,0,0,0-.42-0.3l-0.48.18a6.93,6.93,0,0,0-1.92,1.2l-2.34,1.86a8.88,8.88,0,0,0-.78.66,15.06,15.06,0,0,1-2.1,1.8l-1.44,1.08a11.13,11.13,0,0,1-2.22,1.14,6.51,6.51,0,0,1-1.5.24,3.1,3.1,0,0,1-2.28-.84,3.37,3.37,0,0,1-1.32-3.18,8.75,8.75,0,0,1,1.08-3.48,12.45,12.45,0,0,1,1.44-2,1.46,1.46,0,0,1,.66-0.54l0.3,0.18a0.73,0.73,0,0,1,.42.42,1,1,0,0,1,.06.72l-0.54,1.2a7.86,7.86,0,0,0-.48,1l-0.3.84a0.86,0.86,0,0,1-.12.36c0,0.06-.12.18-0.12,0.24,0,0.84-.3,1.62-0.24,2.52a0.68,0.68,0,0,0,.18.66,0.63,0.63,0,0,0,.72,0,13.22,13.22,0,0,0,3.3-2A18.87,18.87,0,0,1,158.17,59c1.08-.84,2-1.86,3.12-2.7a17.47,17.47,0,0,1,2.46-1.62,4.17,4.17,0,0,1,.78-0.3,3,3,0,0,1,2.7.54A6.07,6.07,0,0,1,168.61,56a2.11,2.11,0,0,1,.6,1.14,4.21,4.21,0,0,1,.18,1.92,6.76,6.76,0,0,1-.36,1.5,0.33,0.33,0,0,0,.12.3,0.29,0.29,0,0,0,.24.06l0.84-.48A45.94,45.94,0,0,1,175,57.95a13.44,13.44,0,0,1,1.44-.48,2.54,2.54,0,0,1,2.52.66,0.47,0.47,0,0,1,.24.24A0.16,0.16,0,0,1,179.11,58.65Zm-43.8,38.58a1,1,0,0,1-.12.3h0.12v-0.3Zm1-2c0.06-.06.06-0.18,0.12-0.24a0.82,0.82,0,0,0,.24-0.66,0.32,0.32,0,0,0,.18-0.36,0.84,0.84,0,0,0,.12-0.24,2.93,2.93,0,0,0,.6-1.32,0.68,0.68,0,0,0,.3-0.48,0.06,0.06,0,0,1,.06-0.06,0.64,0.64,0,0,1,.12-0.3,0.19,0.19,0,0,1,.06-0.12l-0.06.06a0.52,0.52,0,0,0,.24-0.54h0.06a3.38,3.38,0,0,0,.24-0.42h0.06c0.06-.12.12-0.18,0.18-0.3a0.91,0.91,0,0,0,.12-0.24,1.33,1.33,0,0,1,.06-0.48,7.15,7.15,0,0,0,1-1.5,0.42,0.42,0,0,0-.24.18l-0.84,1.26c-0.12.18-.3,0.36-0.42,0.54-0.36.72-.78,1.38-1.14,2a28.51,28.51,0,0,0-1.8,4.2l-0.12.66a1.3,1.3,0,0,0,.3-0.48,0.11,0.11,0,0,0,.15,0l0,0,0.06-.24c0-.12.06-0.18,0.06-0.3a0.65,0.65,0,0,0,.22-0.7Zm2-1.74c0.84-1.62,1.74-3.12,2.7-4.62a1.34,1.34,0,0,0,.18-0.3,0.18,0.18,0,0,0-.24.06,34.87,34.87,0,0,0-2.76,4.5,22.83,22.83,0,0,0-1.62,4,7.7,7.7,0,0,0-.36,2.1,0.19,0.19,0,0,1,.12-0.06V99a22.71,22.71,0,0,1,1.92-5.58ZM163.15,68c-0.3,0-.3,0-0.36.06l-0.72.6c-0.84.6-1.68,1.26-2.46,1.86l-3.48,2.94c-0.72.6-1.38,1.2-2.1,1.8a11.28,11.28,0,0,0-1,.9c-0.6.6-1.2,1.2-1.86,1.8-1.32,1.32-2.58,2.58-3.84,4a3.61,3.61,0,0,0-.48.48l-2.4,2.76q-0.63.72-1.26,1.56l-0.54.78-0.54.72L140.79,90a16,16,0,0,1-1.32,2.16c-0.42,1-1,1.86-1.38,2.88a2.42,2.42,0,0,1-.48,1,0.63,0.63,0,0,0-.12.3v0.3a0.86,0.86,0,0,0-.36.72,2.22,2.22,0,0,0-.24.9,1,1,0,0,1-.06.42,1.34,1.34,0,0,0-.18.84,0.66,0.66,0,0,0,.18.54V100l0.12,1.2a1.2,1.2,0,0,0,.24.48c0.12,0.24.24,0.36,0.48,0.24a3.38,3.38,0,0,0,.72-0.24,10.17,10.17,0,0,0,2.46-1.44,42.39,42.39,0,0,0,3.54-3.12c1.56-1.68,3.06-3.36,4.5-5.22,0.78-1,1.56-2.16,2.34-3.24s1.38-1.92,2-2.94c1.2-1.86,2.4-3.72,3.42-5.64l0.18-.3c0.6-1,1.26-2.1,1.86-3.12l3.42-6.24c0.36-.66.72-1.44,1.08-2.16V68.07ZM140.41,87.53c-0.06-.24.18-0.24,0-0.48C140.41,87.23,140.23,87.23,140.41,87.53Zm0.84-1.38a0.79,0.79,0,0,0,.18-0.3C141.31,85.91,141.19,86,141.25,86.15Zm0.6,1.44a2.41,2.41,0,0,0,.3-0.54A0.21,0.21,0,0,0,142,87,0.62,0.62,0,0,0,141.85,87.59Zm2.22-3.06a1.61,1.61,0,0,0,.6-0.78A2,2,0,0,0,144.07,84.53Zm0.06-2.16a0.26,0.26,0,0,0,.3-0.36A1.6,1.6,0,0,1,144.13,82.37Zm1.08-1.14a0.06,0.06,0,0,0,.06.06l0.06-.06-0.06-.06a0.06,0.06,0,0,0-.06.06h0Zm0.6-.6a1.64,1.64,0,0,0,.78-0.9,1.87,1.87,0,0,0-.78.92v0Zm1.74-.12a2.87,2.87,0,0,0-.54.66,3.84,3.84,0,0,0-1.14,1.26,0.61,0.61,0,0,0,.36-0.3,8.84,8.84,0,0,0,.84-1,3.88,3.88,0,0,0,.54-0.48c0.42-.42.84-0.9,1.2-1.32a1.77,1.77,0,0,0,.78-0.84,0.57,0.57,0,0,0,.48-0.42,0.69,0.69,0,0,0-.48.42,2.62,2.62,0,0,0-.84.78c-0.42.46-.84,0.82-1.2,1.24h0Zm-0.6-1.14a1,1,0,0,0,.54-0.54,1,1,0,0,0-.54.54h0Zm0.9-1a0.23,0.23,0,0,1,.12.12,1.56,1.56,0,0,1,.3-0.36,0.19,0.19,0,0,0-.06-0.12Zm0.72-.66a1.59,1.59,0,0,0,.66-0.54,0.52,0.52,0,0,0,.3-0.42,0.54,0.54,0,0,0-.36.36,1.16,1.16,0,0,0-.6.54v0.06Zm1.74,13.62a1.29,1.29,0,0,0-.54.72,5.71,5.71,0,0,0,.54-0.74v0Zm-0.3-15,1.08-1.08c0.24-.12.24-0.12,0.24-0.3,0,0.06-.12.06-0.12,0.12a0.47,0.47,0,0,0-.12.18,0.85,0.85,0,0,0-.54.48C150.07,76.07,150.07,76.07,150,76.37Zm1.5,0.36a2.59,2.59,0,0,0-1.2,1.08,3.4,3.4,0,0,0,1.2-1.08l0.18-.12,2.16-2c0.06,0,0-.06.06-0.24a1.63,1.63,0,0,0-.3.24l-1.92,1.74Zm-0.36,13.44a0.83,0.83,0,0,1,.18-0.24C151.15,89.93,151,90,151.15,90.17Zm0.3,1.8h-0.12a0.06,0.06,0,0,0,.06.06Zm6.48-12.3a2.59,2.59,0,0,1,.06-0.3c0-.06.06-0.06,0.06-0.12V79.19h0a0.12,0.12,0,0,0-.06.12c-0.18.3-.42,0.6-0.66,1-1.32,2.16-2.7,4.38-4,6.6l-1,1.44a1.53,1.53,0,0,0-.54,1,3.43,3.43,0,0,0,.66-1c0.3-.36.6-0.78,0.9-1.2,0.18,0.12.24,0.06,0.24-.12l0.18-.24a1.1,1.1,0,0,1,.12-0.42,0.55,0.55,0,0,0,.06.3,0.55,0.55,0,0,1,.06-0.3l0.18-.12a0.43,0.43,0,0,1,.06-0.48L154.27,86c0.18-.18.42-0.36,0.24-0.66h0.12a0.8,0.8,0,0,0,.48-0.66,0.87,0.87,0,0,0,.42-0.66,0.63,0.63,0,0,0,.3-0.54v0a0.76,0.76,0,0,0,.42-0.54,0.52,0.52,0,0,0,.24-0.54,0.19,0.19,0,0,0,.06-0.12,0.66,0.66,0,0,0,.42-0.54l0.3-.48c0.12-.18.18-0.36,0.3-0.54a1,1,0,0,0,.36-0.72c0.18-.12.18-0.18,0-0.32v0Zm-6.12-5a0.28,0.28,0,0,0,.3-0.24,0.31,0.31,0,0,0-.3.22v0Zm0.42-.48-0.12.18a0.31,0.31,0,0,0,.3-0.24,0.46,0.46,0,0,1-.18,0v0Zm8.1,3.78a0.67,0.67,0,0,0-.3.48,0.63,0.63,0,0,0-.3.54,2.26,2.26,0,0,0-.6.72c-0.24.42-.42,0.78-0.66,1.14-1.74,2.94-3.48,5.88-5.4,8.64-0.12.18-.18,0.42-0.3,0.6a0.88,0.88,0,0,0-.48.78,1,1,0,0,0,.48-0.78,4.46,4.46,0,0,0,.72-0.78c1.08-1.62,2.16-3.24,3.18-4.86s1.92-3.24,2.82-4.86a2.49,2.49,0,0,0,.24-0.6,0.63,0.63,0,0,0,.3-0.54,0.54,0.54,0,0,0,.3-0.52v0Zm-6.48-5.16h0.06V72.75a0.06,0.06,0,0,0-.06,0v0Zm0.42,1.38a0.69,0.69,0,0,0,.48-0.42,0.67,0.67,0,0,0,.48-0.42,0.79,0.79,0,0,0,.54-0.54,1.54,1.54,0,0,0-.54.54,0.83,0.83,0,0,0-.48.42,0.65,0.65,0,0,0-.48.38v0Zm0.48-2.1h0.06V72h-0.06v0.06Zm0.3,12.42c0,0.06.06,0.18,0.06,0.24H155Zm0.18-12.86V71.59C155.17,71.57,155.23,71.65,155.23,71.65Zm0.18,12.42a0.29,0.29,0,0,1,.06-0.24V84Zm0.72-13.2h0.06l-0.06-.06v0.06Zm0,11.76a0.45,0.45,0,0,1,.06.24h-0.06V82.63Zm0.12-10.26a0.06,0.06,0,0,1,.06.06l0.12-.12a0.19,0.19,0,0,1,.12-0.06V72.19h-0.06a0.19,0.19,0,0,1-.06.12,0.58,0.58,0,0,0-.18,0v0Zm0.42-1.92a0.81,0.81,0,0,0,.42-0.36,0.45,0.45,0,0,0-.42.34v0Zm0.18,11c0,0.06.06,0.12,0.06,0.18h-0.06V81.45ZM157.09,70a0.33,0.33,0,0,0,.36-0.24,0.52,0.52,0,0,0,.48-0.36,0.75,0.75,0,0,0-.48.36,0.55,0.55,0,0,0-.36.26v0Zm0,1.68a0.65,0.65,0,0,0,.6-0.48,2.34,2.34,0,0,0-.6.46v0Zm0.06,9.24a0.29,0.29,0,0,1,.06.24h-0.06V80.91Zm0.3-.54a0.46,0.46,0,0,1,.06.24h-0.12a0.29,0.29,0,0,0,.06-0.22v0Zm1.08-9.84a1.24,1.24,0,0,0-.78.66l1.56-1.32,0.72-.48a1.81,1.81,0,0,0,.84-0.66l0.3-.3a0.41,0.41,0,0,0,.36-0.24,0.6,0.6,0,0,0,.3-0.24,0.31,0.31,0,0,0-.3.24,0.4,0.4,0,0,0-.36.24,1,1,0,0,1-.42.24,1.41,1.41,0,0,0-.72.72,0.33,0.33,0,0,0-.36.24l-0.36.24a1.42,1.42,0,0,0-.78.68v0Zm-0.6,9.18v0.24a0.32,0.32,0,0,1-.18.12Zm0.66-20a1,1,0,0,0,.42-0.42,3.36,3.36,0,0,0,.48-0.36c0.18-.12.3-0.24,0.42-0.3,0.36-.24.66-0.48,1-0.72l0.24-.06h-0.24l0.36-.3a1.27,1.27,0,0,1,.24-0.36l0.42-.36c0.12-.12.24-0.18,0.36-0.3a1.05,1.05,0,0,1,.3-0.24,0.32,0.32,0,0,0,.3-0.3,0.4,0.4,0,0,0-.3.24l-0.42.24a1.41,1.41,0,0,1-.3.3l-0.48.36a12.88,12.88,0,0,0-1.92,1.68,2.79,2.79,0,0,1-.42.42,0.83,0.83,0,0,0-.48.42,0.59,0.59,0,0,0-.42.42H158v0.12l0.12-.12a0.75,0.75,0,0,0,.46-0.32v0Zm5.22-2.82a1.21,1.21,0,0,1-.48.24l-0.72.6c-1.14,1-2.34,2-3.48,3a3.45,3.45,0,0,1-.42.48c-0.06.06-.06,0-0.12,0.06v0.06h0.06c0.06,0,.06-0.06.06-0.12a0.81,0.81,0,0,0,.54-0.3c1.44-1.26,2.88-2.46,4.32-3.66a1.25,1.25,0,0,0,.24-0.32v0Zm-5.16,11.82v0.12l0.06-.06h0.06a0.12,0.12,0,0,0-.12,0v0Zm0.84,11.94a0.54,0.54,0,0,0-.06-0.3l0.3-.12Zm0.42-.66c0-.06-0.06-0.18-0.06-0.24a0.86,0.86,0,0,1,.24-0.12Zm0.3-.54a1.37,1.37,0,0,1-.06-0.24,0.89,0.89,0,0,0,.24-0.12Zm1.8-4.5a1.73,1.73,0,0,0-.6,1,0.36,0.36,0,0,0-.18.36,2.25,2.25,0,0,0-.72,1.2,2,2,0,0,0-.18.36,0.43,0.43,0,0,0,.18-0.36,1.93,1.93,0,0,0,.72-1.2,0.36,0.36,0,0,0,.18-0.36,1.62,1.62,0,0,0,.6-1v0Zm-1.5,3.78a0.19,0.19,0,0,0,.12-0.06l-0.12.3V78.73Zm0.3-.3a0.36,0.36,0,0,0-.06-0.24,0.13,0.13,0,0,1,.06.22v0Zm1.08-10.5a0.27,0.27,0,0,0,.3-0.24h0a1,1,0,0,1-.3.22v0Zm0.24,6.84a0.06,0.06,0,0,1-.06-0.06,0.22,0.22,0,0,1-.06.18,0.22,0.22,0,0,0,.12-0.14v0Zm0.06,0.9V75.61l0.06,0.06h-0.06Zm1.08-8.82a1.75,1.75,0,0,0-.78.66l0.72-.48c0.06,0,.06-0.08.06-0.2v0ZM163,56a0.19,0.19,0,0,0,.18-0.18Zm0.12,18.12h0.12a0.45,0.45,0,0,0-.06.24,0.29,0.29,0,0,1-.1-0.24h0Zm0.18-.36h0.12c0,0.06-.06.12-0.06,0.18a0.22,0.22,0,0,0-.1-0.18h0Zm0.18-1.38a0.06,0.06,0,0,0-.06-0.06v0.06h0.06Zm0.06,1.2a0.45,0.45,0,0,0-.06-0.3c0.06,0,.12.06,0.18,0.06a0.45,0.45,0,0,0-.16.24h0Zm0.3-.48V72.71a0.12,0.12,0,0,0,.12.06Zm0.3-2.1-0.06.06h0.06V71Zm3.12-5a0.06,0.06,0,0,1,.06-0.06V66h-0.06Zm0.18-.66h0.12a0.46,0.46,0,0,1-.06.24,1.35,1.35,0,0,0-.1-0.22Zm0.06-.24h0.18a0.91,0.91,0,0,0-.12.24,0.46,0.46,0,0,0-.1-0.22Zm0.12-.06V64.77a0.55,0.55,0,0,0,.06.3Z" transform="translate(0 -0.03)"/>
  </g>
</svg>
