<svg id="Слой_1" data-name="Слой 1" xmlns="http://www.w3.org/2000/svg" viewBox="0 0 162.66 43.14">
  <title>celine-logo</title>
  <g>
    <path d="M319.46,244.08a23.1,23.1,0,0,1-10.53-2.37,17.85,17.85,0,0,1-7.47-7,22.21,22.21,0,0,1-2.76-11.46,22.74,22.74,0,0,1,1.68-9.06A18.65,18.65,0,0,1,305,207.6a19.29,19.29,0,0,1,6.72-4,24.48,24.48,0,0,1,8.07-1.32,24.07,24.07,0,0,1,6.3.78,24.57,24.57,0,0,1,5.4,2.16l0.24,7.38h-0.6l-3-4.8a14.24,14.24,0,0,0-1.32-2.07,4.62,4.62,0,0,0-1.8-1.41,8.31,8.31,0,0,0-4-.84,11.34,11.34,0,0,0-6.33,1.86,12.62,12.62,0,0,0-4.56,6.15q-1.71,4.29-1.71,11.73A34,34,0,0,0,310,234.93a12.12,12.12,0,0,0,4.41,6.12,11.17,11.17,0,0,0,6.27,1.83,13.81,13.81,0,0,0,3.06-.27,11.51,11.51,0,0,0,2.28-.81,3.72,3.72,0,0,0,1.74-1.41,14.82,14.82,0,0,0,1.08-2l2.64-5.88h0.6l-0.18,8.58a27.59,27.59,0,0,1-5.64,2.16A26.28,26.28,0,0,1,319.46,244.08Z" transform="translate(-298.7 -200.94)"/>
    <path d="M349.94,213.24a13.14,13.14,0,0,1,6.66,1.59,10.86,10.86,0,0,1,4.23,4.32,12.9,12.9,0,0,1,1.47,6.21q0,0.66-.06,1.35a5.36,5.36,0,0,1-.24,1.23H344.12q0.06,6.48,2.31,9.33t6.69,2.85a10.61,10.61,0,0,0,4.86-1,11.89,11.89,0,0,0,3.48-2.82l0.6,0.54a13.8,13.8,0,0,1-5,5.16,14.11,14.11,0,0,1-7.41,1.86,15.33,15.33,0,0,1-7.56-1.83,12.91,12.91,0,0,1-5.16-5.25,16.84,16.84,0,0,1-1.86-8.16,15.47,15.47,0,0,1,2.16-8.37,14.53,14.53,0,0,1,5.55-5.25A15,15,0,0,1,349.94,213.24Zm-0.18,1.2a4.42,4.42,0,0,0-3,1.05,7.17,7.17,0,0,0-1.92,3.72,33.27,33.27,0,0,0-.75,7.53h10.26q0.6-6.54-.48-9.42A4.07,4.07,0,0,0,349.76,214.44Z" transform="translate(-298.7 -200.94)"/>
    <path d="M365.48,243v-0.6l0.72-.24a2.9,2.9,0,0,0,2.16-3v-32.1a3,3,0,0,0-.48-1.83,2.94,2.94,0,0,0-1.68-.93l-0.78-.18v-0.6l11-2.58,0.72,0.54-0.24,8.4V230.4q0,2.22,0,4.41t0,4.35a3.55,3.55,0,0,0,.48,1.95,2.84,2.84,0,0,0,1.62,1.11l0.78,0.18V243H365.48Z" transform="translate(-298.7 -200.94)"/>
    <path d="M382.58,243v-0.6l0.84-.24a2.79,2.79,0,0,0,1.65-1.08,3.58,3.58,0,0,0,.45-1.92V220.38a3.25,3.25,0,0,0-.45-1.89,2.55,2.55,0,0,0-1.65-.87l-0.84-.18v-0.6l11-3.54,0.6,0.6L394,222.42v16.8a3.59,3.59,0,0,0,.45,1.92,2.76,2.76,0,0,0,1.59,1.08l0.6,0.18V243h-14Zm7.08-32.88a4.92,4.92,0,0,1-3.45-1.29,4.53,4.53,0,0,1,0-6.57,5,5,0,0,1,3.45-1.26,4.89,4.89,0,0,1,3.42,1.26,4.6,4.6,0,0,1,0,6.57A4.82,4.82,0,0,1,389.66,210.12Z" transform="translate(-298.7 -200.94)"/>
    <path d="M399.26,243v-0.6l0.84-.24a2.74,2.74,0,0,0,2.1-2.94V220.44a3.58,3.58,0,0,0-.42-1.95,2.42,2.42,0,0,0-1.62-.87l-0.9-.24v-0.6l10.26-3.48,0.6,0.6,0.48,3.6a18.91,18.91,0,0,1,4.74-3.06,12.54,12.54,0,0,1,5.22-1.2,8.17,8.17,0,0,1,6.09,2.16q2.13,2.16,2.13,6.6v17.28a2.77,2.77,0,0,0,2.28,2.94l0.54,0.18V243H417.44v-0.6l0.78-.24a2.79,2.79,0,0,0,2.1-2.94V220.08q0-3.84-3.84-3.84-2.64,0-5.76,2.64v20.4a2.74,2.74,0,0,0,2.1,2.94l0.54,0.18V243h-14.1Z" transform="translate(-298.7 -200.94)"/>
    <path d="M449,213.24a13.14,13.14,0,0,1,6.66,1.59,10.86,10.86,0,0,1,4.23,4.32,12.9,12.9,0,0,1,1.47,6.21q0,0.66-.06,1.35a5.36,5.36,0,0,1-.24,1.23H443.18q0.06,6.48,2.31,9.33t6.69,2.85a10.61,10.61,0,0,0,4.86-1,11.89,11.89,0,0,0,3.48-2.82l0.6,0.54a13.8,13.8,0,0,1-5,5.16,14.11,14.11,0,0,1-7.41,1.86,15.33,15.33,0,0,1-7.56-1.83,12.91,12.91,0,0,1-5.16-5.25,16.84,16.84,0,0,1-1.86-8.16,15.47,15.47,0,0,1,2.16-8.37,14.53,14.53,0,0,1,5.55-5.25A15,15,0,0,1,449,213.24Zm-0.18,1.2a4.42,4.42,0,0,0-3,1.05,7.17,7.17,0,0,0-1.92,3.72,33.27,33.27,0,0,0-.75,7.53h10.26q0.6-6.54-.48-9.42A4.07,4.07,0,0,0,448.82,214.44Z" transform="translate(-298.7 -200.94)"/>
  </g>
</svg>
