<svg id="Слой_1" data-name="Слой 1" xmlns="http://www.w3.org/2000/svg" viewBox="0 0 70.73 39.39">
  <defs>
    <style>
      .cls-1 {
        fill: #fff;
      }
    </style>
  </defs>
  <title>04_clients-inversed</title>
  <path class="cls-1" d="M39.52,2a7.58,7.58,0,0,0-1.72.31,6.51,6.51,0,0,0-1.67.7A4.52,4.52,0,0,0,34.64,4.5a17.54,17.54,0,0,0-1.11,2.13Q31.7,11,28,20.18T20.48,39.36H18.21L10.61,19Q7,9.14,5.61,5.7a5.15,5.15,0,0,0-.87-1.49A6.39,6.39,0,0,0,3.29,3a5.77,5.77,0,0,0-1.64-.7A9.45,9.45,0,0,0,0,2V0.07H16V2a22.77,22.77,0,0,0-3.46.41q-1.41.3-1.41,1.07a2.8,2.8,0,0,0,.11.71c0.07,0.27.14,0.49,0.19,0.66l3.28,8.74L21.2,30.85q2.08-5.06,4.79-12t3.64-9.47a22.64,22.64,0,0,0,1-3.45,10.49,10.49,0,0,0,.15-1.56,1.28,1.28,0,0,0-.56-1.05,5.06,5.06,0,0,0-1.49-.72A12.71,12.71,0,0,0,27,2.19Q26,2.05,25.06,2V0.07H39.49V2h0Z" transform="translate(0.02 -0.03)"/>
  <path class="cls-1" d="M39.52,2a7.58,7.58,0,0,0-1.72.31,6.51,6.51,0,0,0-1.67.7A4.52,4.52,0,0,0,34.64,4.5a17.54,17.54,0,0,0-1.11,2.13Q31.7,11,28,20.18T20.48,39.36H18.21L10.61,19Q7,9.14,5.61,5.7a5.15,5.15,0,0,0-.87-1.49A6.39,6.39,0,0,0,3.29,3a5.77,5.77,0,0,0-1.64-.7A9.45,9.45,0,0,0,0,2V0.07H16V2a22.77,22.77,0,0,0-3.46.41q-1.41.3-1.41,1.07a2.8,2.8,0,0,0,.11.71c0.07,0.27.14,0.49,0.19,0.66l3.28,8.74L21.2,30.85q2.08-5.06,4.79-12t3.64-9.47a22.64,22.64,0,0,0,1-3.45,10.49,10.49,0,0,0,.15-1.56,1.28,1.28,0,0,0-.56-1.05,5.06,5.06,0,0,0-1.49-.72A12.71,12.71,0,0,0,27,2.19Q26,2.05,25.06,2V0.07H39.49V2h0Z" transform="translate(0.02 -0.03)"/>
  <path class="cls-1" d="M31.23,37.47a7.53,7.53,0,0,0,1.72-.31,6.49,6.49,0,0,0,1.67-.7A4.53,4.53,0,0,0,36.11,35a17.61,17.61,0,0,0,1.11-2.14q1.83-4.36,5.5-13.58T50.27,0h2.27l7.6,20.45q3.66,9.84,5,13.3A5.17,5.17,0,0,0,66,35.27a6.41,6.41,0,0,0,1.45,1.22,5.76,5.76,0,0,0,1.64.7,9.45,9.45,0,0,0,1.6.28v1.95h-16V37.47a22.62,22.62,0,0,0,3.46-.41q1.41-.3,1.41-1.07a2.81,2.81,0,0,0-.11-0.71c-0.07-.27-0.14-0.49-0.19-0.66q-1-2.69-3.28-8.76L49.55,8.56q-2.08,5.07-4.79,12T41.12,30a22.74,22.74,0,0,0-1,3.46,10.55,10.55,0,0,0-.15,1.56,1.28,1.28,0,0,0,.56,1.06,5,5,0,0,0,1.49.73,12.66,12.66,0,0,0,1.83.41l1.91,0.2v1.95H31.23V37.47Z" transform="translate(0.02 -0.03)"/>
</svg>
