<svg id="Слой_1" data-name="Слой 1" xmlns="http://www.w3.org/2000/svg" viewBox="0 0 191.1 49.77">
  <title>muse-logo-placeholder</title>
  <g>
    <path d="M184.7,244.07h4.83v44.59h21.56V293H184.7V244.07Z" transform="translate(-184.7 -243.65)"/>
    <path d="M254.24,247a25.23,25.23,0,0,1,9.27,9,23.63,23.63,0,0,1,3.43,12.46A24,24,0,0,1,263.52,281a25.79,25.79,0,0,1-44.24,0,24,24,0,0,1-3.43-12.53A23.62,23.62,0,0,1,219.28,256a25.22,25.22,0,0,1,9.27-9A26.47,26.47,0,0,1,254.24,247Zm-23.13,3.75a20.58,20.58,0,0,0-7.56,7.42,19.7,19.7,0,0,0-2.8,10.29,20.06,20.06,0,0,0,2.8,10.36,20.66,20.66,0,0,0,7.56,7.52,20.25,20.25,0,0,0,10.36,2.77,19.94,19.94,0,0,0,10.25-2.77,20.76,20.76,0,0,0,7.52-7.52,20.07,20.07,0,0,0,2.8-10.36,19.71,19.71,0,0,0-2.8-10.29,20.67,20.67,0,0,0-7.52-7.42A20.14,20.14,0,0,0,241.47,248,20.46,20.46,0,0,0,231.11,250.72Z" transform="translate(-184.7 -243.65)"/>
    <path d="M311,269.06h4.27V287a27,27,0,0,1-8.29,4.72,28,28,0,0,1-9.62,1.71,25.54,25.54,0,0,1-22-12.46,24,24,0,0,1-3.43-12.53A23.62,23.62,0,0,1,275.28,256a25.06,25.06,0,0,1,9.34-9,25.92,25.92,0,0,1,12.92-3.33,27.15,27.15,0,0,1,9.63,1.75,26.31,26.31,0,0,1,8.23,4.9l-2.8,3.43a21.29,21.29,0,0,0-6.93-4.31,22.48,22.48,0,0,0-8.12-1.5,20.39,20.39,0,0,0-10.43,2.77,20.86,20.86,0,0,0-7.56,7.46,19.7,19.7,0,0,0-2.8,10.29,20,20,0,0,0,2.8,10.4,20.9,20.9,0,0,0,18.06,10.25,21.89,21.89,0,0,0,7-1.16,24,24,0,0,0,6.41-3.25V269.06Z" transform="translate(-184.7 -243.65)"/>
    <path d="M363.09,247a25.24,25.24,0,0,1,9.28,9,23.63,23.63,0,0,1,3.43,12.46A24,24,0,0,1,372.37,281a25.79,25.79,0,0,1-44.24,0,24,24,0,0,1-3.43-12.53A23.62,23.62,0,0,1,328.13,256a25.22,25.22,0,0,1,9.27-9A26.47,26.47,0,0,1,363.09,247ZM340,250.72a20.59,20.59,0,0,0-7.56,7.42,19.71,19.71,0,0,0-2.8,10.29,20.07,20.07,0,0,0,2.8,10.36,20.67,20.67,0,0,0,7.56,7.52,20.25,20.25,0,0,0,10.36,2.77,19.94,19.94,0,0,0,10.26-2.77,20.77,20.77,0,0,0,7.52-7.52,20.07,20.07,0,0,0,2.8-10.36,19.71,19.71,0,0,0-2.8-10.29,20.68,20.68,0,0,0-7.52-7.42A20.15,20.15,0,0,0,350.32,248,20.46,20.46,0,0,0,340,250.72Z" transform="translate(-184.7 -243.65)"/>
  </g>
</svg>
