<svg id="_25_GG_Logos_01" data-name="25 GG Logos 01" xmlns="http://www.w3.org/2000/svg" viewBox="0 0 180.35 20.25">
  <defs>
    <style>
      .cls-1 {
        fill: #fff;
      }
    </style>
  </defs>
  <title>clients-logo-white_05</title>
  <g id="_01" data-name="01">
    <g>
      <path class="cls-1" d="M98.58,199.05a7.83,7.83,0,0,0,1.69-.16,8.25,8.25,0,0,0,1.39-.44v-3h-2a1,1,0,0,1-.68-0.23,0.77,0.77,0,0,1-.24-0.58V192.1h7v8.36a10.4,10.4,0,0,1-1.58,1,10.23,10.23,0,0,1-1.75.66,13,13,0,0,1-2,.38,19.67,19.67,0,0,1-2.26.12,10.39,10.39,0,0,1-4-.77,9.64,9.64,0,0,1-5.32-5.33,10.45,10.45,0,0,1-.77-4,11,11,0,0,1,.73-4.07,9.19,9.19,0,0,1,2.1-3.2,9.53,9.53,0,0,1,3.3-2.09,12,12,0,0,1,4.33-.75,12.6,12.6,0,0,1,2.33.2,11.39,11.39,0,0,1,2,.56,9.25,9.25,0,0,1,1.68.84A9.08,9.08,0,0,1,106,185l-1.33,2a1.47,1.47,0,0,1-.46.45,1.08,1.08,0,0,1-.58.16,1.59,1.59,0,0,1-.84-0.27q-0.54-.33-1-0.56a6.33,6.33,0,0,0-1-.39,6.5,6.5,0,0,0-1.06-.22,10.4,10.4,0,0,0-1.25-.07,5.71,5.71,0,0,0-2.33.46,5,5,0,0,0-1.76,1.29,5.81,5.81,0,0,0-1.12,2,8,8,0,0,0-.39,2.59,8.31,8.31,0,0,0,.44,2.8,6,6,0,0,0,1.2,2.07,5.11,5.11,0,0,0,1.82,1.29A5.91,5.91,0,0,0,98.58,199.05Z" transform="translate(-88.11 -182.34)"/>
      <path class="cls-1" d="M128.17,192.46a10.65,10.65,0,0,1-.74,4,9.45,9.45,0,0,1-5.33,5.36,11.83,11.83,0,0,1-8.42,0,9.45,9.45,0,0,1-5.35-5.36,11.15,11.15,0,0,1,0-8,9.51,9.51,0,0,1,2.09-3.21,9.7,9.7,0,0,1,3.26-2.14,11.09,11.09,0,0,1,4.22-.77,11,11,0,0,1,4.21.78,9.73,9.73,0,0,1,3.24,2.14,9.56,9.56,0,0,1,2.09,3.21A10.61,10.61,0,0,1,128.17,192.46Zm-4.71,0a8.57,8.57,0,0,0-.38-2.65,5.61,5.61,0,0,0-1.09-2,4.72,4.72,0,0,0-1.75-1.25,6,6,0,0,0-2.35-.44,6.1,6.1,0,0,0-2.37.44,4.72,4.72,0,0,0-1.75,1.25,5.61,5.61,0,0,0-1.09,2,9.42,9.42,0,0,0,0,5.3,5.61,5.61,0,0,0,1.09,2,4.65,4.65,0,0,0,1.75,1.24,6.19,6.19,0,0,0,2.37.43,6.1,6.1,0,0,0,2.35-.43,4.65,4.65,0,0,0,1.75-1.24,5.61,5.61,0,0,0,1.09-2A8.62,8.62,0,0,0,123.47,192.46Z" transform="translate(-88.11 -182.34)"/>
      <path class="cls-1" d="M135,198.7h7.34v3.67H130.38V182.56H135V198.7Z" transform="translate(-88.11 -182.34)"/>
      <path class="cls-1" d="M162.47,192.46a10.39,10.39,0,0,1-.74,4,9.28,9.28,0,0,1-2.09,3.14,9.46,9.46,0,0,1-3.24,2.07,11.48,11.48,0,0,1-4.21.74h-7.7V182.56h7.7a11.39,11.39,0,0,1,4.21.75,9.61,9.61,0,0,1,3.24,2.07,9.2,9.2,0,0,1,2.09,3.13A10.35,10.35,0,0,1,162.47,192.46Zm-4.71,0a8.63,8.63,0,0,0-.38-2.65,5.66,5.66,0,0,0-1.09-2,4.75,4.75,0,0,0-1.75-1.27,5.94,5.94,0,0,0-2.35-.44h-3.07v12.74h3.07a5.93,5.93,0,0,0,2.35-.44,4.75,4.75,0,0,0,1.75-1.26,5.66,5.66,0,0,0,1.09-2A8.68,8.68,0,0,0,157.77,192.46Z" transform="translate(-88.11 -182.34)"/>
      <path class="cls-1" d="M177.43,182.56v3.54H169.3v4.62h6.23v3.4H169.3v4.72h8.13v3.54H164.67V182.56h12.76Z" transform="translate(-88.11 -182.34)"/>
      <path class="cls-1" d="M183,182.58a1.29,1.29,0,0,1,.37.1,1.23,1.23,0,0,1,.31.21,3.59,3.59,0,0,1,.34.37l9.41,11.9q-0.05-.57-0.08-1.11c0-.36,0-0.7,0-1V182.56h4.05v19.82h-2.39a2.21,2.21,0,0,1-.9-0.16,1.92,1.92,0,0,1-.71-0.6L184,189.81q0,0.52.07,1t0,0.93v10.62H180V182.56h2.42A3.91,3.91,0,0,1,183,182.58Z" transform="translate(-88.11 -182.34)"/>
      <path class="cls-1" d="M210.1,201.46a14.69,14.69,0,0,0,1.81-.1,9.71,9.71,0,0,0,1.52-.31,9.5,9.5,0,0,0,1.33-.5q0.63-.29,1.27-0.66v-5.18h-3.7a0.35,0.35,0,0,1-.25-0.1,0.29,0.29,0,0,1-.1-0.22v-0.76h5.32v6.84a12.55,12.55,0,0,1-1.5.9,10,10,0,0,1-1.66.66,12.81,12.81,0,0,1-1.9.41,16.13,16.13,0,0,1-2.23.14,10,10,0,0,1-3.8-.7,8.43,8.43,0,0,1-3-2,8.94,8.94,0,0,1-1.91-3.11,12.4,12.4,0,0,1,0-8.1,8.79,8.79,0,0,1,1.93-3.1,8.51,8.51,0,0,1,3-2,10.91,10.91,0,0,1,4-.7,12.87,12.87,0,0,1,2,.15,9.47,9.47,0,0,1,1.73.44,8.17,8.17,0,0,1,1.5.72,10.14,10.14,0,0,1,1.33,1l-0.37.6a0.38,0.38,0,0,1-.34.2A0.51,0.51,0,0,1,216,186a2.9,2.9,0,0,1-.59-0.38,6.33,6.33,0,0,0-1-.63,8.76,8.76,0,0,0-1.65-.58,9.68,9.68,0,0,0-2.41-.26,9.13,9.13,0,0,0-3.39.6,7.19,7.19,0,0,0-2.58,1.71,7.59,7.59,0,0,0-1.65,2.72,10.57,10.57,0,0,0-.58,3.6,10.73,10.73,0,0,0,.58,3.66,7.83,7.83,0,0,0,1.64,2.74,7.06,7.06,0,0,0,2.53,1.72A8.58,8.58,0,0,0,210.1,201.46Z" transform="translate(-88.11 -182.34)"/>
      <path class="cls-1" d="M224,193.67v8.7H222.6V183.13h4.91a8,8,0,0,1,5,1.29,4.5,4.5,0,0,1,1.65,3.77,5.17,5.17,0,0,1-.38,2,4.72,4.72,0,0,1-1.09,1.6,5.84,5.84,0,0,1-1.72,1.13,7.64,7.64,0,0,1-2.27.58,2.21,2.21,0,0,1,.58.54l6.62,8.32h-1.21a0.8,0.8,0,0,1-.37-0.08A1,1,0,0,1,234,202l-6.16-7.81a1.37,1.37,0,0,0-.5-0.42,2.08,2.08,0,0,0-.82-0.12H224Zm0-1h3.35a7.93,7.93,0,0,0,2.29-.31,4.93,4.93,0,0,0,1.71-.88,3.78,3.78,0,0,0,1.07-1.37,4.29,4.29,0,0,0,.37-1.81,3.54,3.54,0,0,0-1.35-3,6.54,6.54,0,0,0-3.92-1H224v8.4Z" transform="translate(-88.11 -182.34)"/>
      <path class="cls-1" d="M241.25,202.37h-1.4V183.13h1.4v19.24Z" transform="translate(-88.11 -182.34)"/>
      <path class="cls-1" d="M263.68,192.74a11.39,11.39,0,0,1-.67,4,8.66,8.66,0,0,1-1.88,3,8.14,8.14,0,0,1-2.9,1.92,10.09,10.09,0,0,1-3.74.67h-7V183.13h7a10.1,10.1,0,0,1,3.74.67,8.15,8.15,0,0,1,2.9,1.92,8.67,8.67,0,0,1,1.88,3A11.35,11.35,0,0,1,263.68,192.74Zm-1.44,0a10.75,10.75,0,0,0-.56-3.59,7.54,7.54,0,0,0-1.57-2.67,6.68,6.68,0,0,0-2.44-1.66,8.45,8.45,0,0,0-3.17-.57h-5.62v17h5.62a8.45,8.45,0,0,0,3.17-.57,6.67,6.67,0,0,0,2.44-1.66,7.54,7.54,0,0,0,1.57-2.67A10.8,10.8,0,0,0,262.24,192.74Z" transform="translate(-88.11 -182.34)"/>
      <path class="cls-1" d="M265.94,201.33a1.27,1.27,0,0,1,.1-0.49,1.21,1.21,0,0,1,.26-0.4,1.33,1.33,0,0,1,.39-0.27,1.19,1.19,0,0,1,.5-0.1,1.2,1.2,0,0,1,.49.1,1.32,1.32,0,0,1,.4.27,1.29,1.29,0,0,1,.27.4,1.19,1.19,0,0,1,.1.49,1.18,1.18,0,0,1-.1.5,1.32,1.32,0,0,1-.27.39,1.22,1.22,0,0,1-.4.27,1.27,1.27,0,0,1-.49.1A1.23,1.23,0,0,1,265.94,201.33Z" transform="translate(-88.11 -182.34)"/>
    </g>
  </g>
</svg>
