<svg id="_25_GG_Logos_01" data-name="25 GG Logos 01" xmlns="http://www.w3.org/2000/svg" viewBox="0 0 166.98 43.98">
  <defs>
    <style>
      .cls-1 {
        fill: #231f20;
      }
    </style>
  </defs>
  <title>logo_02</title>
  <g id="_02" data-name="02">
    <g>
      <path class="cls-1" d="M487.88,204A13.77,13.77,0,0,1,483,201.2a3.26,3.26,0,0,1-1.25-2.46,2.62,2.62,0,0,1,.79-1.88,2.56,2.56,0,0,1,1.91-.81,2.46,2.46,0,0,1,1.58.56,13.69,13.69,0,0,0,3.63,2.23,11.38,11.38,0,0,0,4.19.7,8.37,8.37,0,0,0,4.49-1.16,3.37,3.37,0,0,0,1.88-2.88,3.7,3.7,0,0,0-1.86-3.28,15.77,15.77,0,0,0-5.91-1.79q-10.18-1.49-10.18-9.49a8.57,8.57,0,0,1,1.54-5.09,9.69,9.69,0,0,1,4.18-3.3,14.82,14.82,0,0,1,5.91-1.14,16.9,16.9,0,0,1,5.51.88,13.36,13.36,0,0,1,4.3,2.32,3.1,3.1,0,0,1,1.35,2.46,2.62,2.62,0,0,1-.79,1.88,2.51,2.51,0,0,1-1.86.81,2,2,0,0,1-1.25-.42,12.3,12.3,0,0,0-3.37-1.79,11.18,11.18,0,0,0-3.88-.81,8,8,0,0,0-4.53,1.09,3.47,3.47,0,0,0,0,5.88,15.65,15.65,0,0,0,5.19,1.67,26.92,26.92,0,0,1,6.39,1.79,8.17,8.17,0,0,1,3.6,3,9.15,9.15,0,0,1,1.21,5,8.35,8.35,0,0,1-1.65,5.14,10.61,10.61,0,0,1-4.39,3.39,14.72,14.72,0,0,1-5.91,1.19A19.43,19.43,0,0,1,487.88,204Z" transform="translate(-477.92 -171.39)"/>
      <path class="cls-1" d="M545.42,172.58a2.79,2.79,0,0,1,1,2.16,3.58,3.58,0,0,1-.14.93l-9.16,27a2.45,2.45,0,0,1-1,1.26,3,3,0,0,1-1.53.51,2.93,2.93,0,0,1-1.58-.46,3.1,3.1,0,0,1-1.16-1.35l-6.6-15-6.65,15a3.11,3.11,0,0,1-1.16,1.35,2.93,2.93,0,0,1-1.58.46,3,3,0,0,1-1.53-.51,2.45,2.45,0,0,1-1-1.26l-9.16-27a3.53,3.53,0,0,1-.14-0.93,2.79,2.79,0,0,1,1-2.16,3.09,3.09,0,0,1,2.12-.86,3,3,0,0,1,1.67.49,2.48,2.48,0,0,1,1,1.33l6.93,21,6-14.51a3.13,3.13,0,0,1,1.07-1.33,2.46,2.46,0,0,1,1.58-.44,2.37,2.37,0,0,1,1.56.44,3.21,3.21,0,0,1,1,1.33l5.72,14.37,6.88-20.88a2.45,2.45,0,0,1,1-1.33,3.1,3.1,0,0,1,1.7-.49A3,3,0,0,1,545.42,172.58Z" transform="translate(-477.92 -171.39)"/>
      <path class="cls-1" d="M566.67,199.88a2.59,2.59,0,0,1,.81,1.88,2.47,2.47,0,0,1-.81,1.91,2.88,2.88,0,0,1-2,.74H549.07a2.78,2.78,0,0,1-2.84-2.84V174.7a2.78,2.78,0,0,1,2.84-2.84h15.58a2.83,2.83,0,0,1,2,.77,2.6,2.6,0,0,1,.81,2,2.43,2.43,0,0,1-.79,1.88,2.92,2.92,0,0,1-2,.72H552v7.91h10.51a2.84,2.84,0,0,1,2,.77,2.6,2.6,0,0,1,.81,2,2.43,2.43,0,0,1-.79,1.88,2.92,2.92,0,0,1-2,.72H552v8.6h12.6A2.75,2.75,0,0,1,566.67,199.88Z" transform="translate(-477.92 -171.39)"/>
      <path class="cls-1" d="M588.9,199.88a2.59,2.59,0,0,1,.81,1.88,2.47,2.47,0,0,1-.81,1.91,2.88,2.88,0,0,1-2,.74H571.3a2.78,2.78,0,0,1-2.84-2.84V174.7a2.78,2.78,0,0,1,2.84-2.84h15.58a2.83,2.83,0,0,1,2,.77,2.6,2.6,0,0,1,.81,2,2.43,2.43,0,0,1-.79,1.88,2.92,2.92,0,0,1-2,.72h-12.6v7.91h10.51a2.84,2.84,0,0,1,2,.77,2.6,2.6,0,0,1,.81,2,2.43,2.43,0,0,1-.79,1.88,2.92,2.92,0,0,1-2,.72H574.28v8.6h12.6A2.75,2.75,0,0,1,588.9,199.88Z" transform="translate(-477.92 -171.39)"/>
      <path class="cls-1" d="M614.13,172.6a2.56,2.56,0,0,1,.79,2,2.48,2.48,0,0,1-.79,1.93,2.92,2.92,0,0,1-2,.72h-7.3v24.37a2.64,2.64,0,0,1-.88,2,3.1,3.1,0,0,1-2.19.81,2.94,2.94,0,0,1-2.14-.81,2.7,2.7,0,0,1-.84-2V177.21h-7.3a2.86,2.86,0,0,1-2-.74,2.56,2.56,0,0,1-.79-2,2.47,2.47,0,0,1,.81-1.91,2.88,2.88,0,0,1,2-.74h20.65A2.87,2.87,0,0,1,614.13,172.6Z" transform="translate(-477.92 -171.39)"/>
      <path class="cls-1" d="M638.91,176.32l-9.72,13.9v11.35a2.79,2.79,0,0,1-.79,2,2.56,2.56,0,0,1-1.91.81,2.69,2.69,0,0,1-2-.81,2.74,2.74,0,0,1-.81-2v-12L614,176.74a3.65,3.65,0,0,1-.84-2.19,2.56,2.56,0,0,1,1-2,3.07,3.07,0,0,1,2-.81,2.82,2.82,0,0,1,2.28,1.3l8.18,11.3,7.67-11.21a2.81,2.81,0,0,1,2.33-1.4,2.68,2.68,0,0,1,2,.84,2.78,2.78,0,0,1,.84,2A3.11,3.11,0,0,1,638.91,176.32Z" transform="translate(-477.92 -171.39)"/>
    </g>
    <g>
      <path class="cls-1" d="M483.76,208.81a0.71,0.71,0,0,1-.16.43,0.52,0.52,0,0,1-.43.22,0.75,0.75,0,0,1-.36-0.09,2.59,2.59,0,0,0-1.11-.24,2.55,2.55,0,0,0-1.28.31,2.1,2.1,0,0,0-.84.87,2.73,2.73,0,0,0-.29,1.29,2.48,2.48,0,0,0,.67,1.88,2.7,2.7,0,0,0,2.86.4,0.84,0.84,0,0,1,.34-0.08,0.58,0.58,0,0,1,.46.23,0.69,0.69,0,0,1,.16.43,0.57,0.57,0,0,1-.08.3,0.55,0.55,0,0,1-.24.21,3.85,3.85,0,0,1-1.74.41,4.13,4.13,0,0,1-1.89-.44,3.35,3.35,0,0,1-1.37-1.29,3.91,3.91,0,0,1-.51-2.06,3.79,3.79,0,0,1,.49-1.92,3.47,3.47,0,0,1,1.35-1.33,3.93,3.93,0,0,1,1.94-.48,3.74,3.74,0,0,1,1.73.41A0.56,0.56,0,0,1,483.76,208.81Z" transform="translate(-477.92 -171.39)"/>
      <path class="cls-1" d="M504.8,214.7a0.59,0.59,0,0,1-.18.45,0.57,0.57,0,0,1-.41.17,0.55,0.55,0,0,1-.34-0.12,0.75,0.75,0,0,1-.24-0.31l-0.55-1.27H500l-0.55,1.28a0.64,0.64,0,0,1-.23.31,0.55,0.55,0,0,1-.33.11,0.5,0.5,0,0,1-.56-0.55,0.68,0.68,0,0,1,0-.2l2.61-6.28a0.69,0.69,0,0,1,.25-0.33,0.55,0.55,0,0,1,.38-0.09,0.61,0.61,0,0,1,.35.11,0.62,0.62,0,0,1,.24.31l2.58,6.15A0.7,0.7,0,0,1,504.8,214.7Zm-4.33-2.29h2.1L501.52,210Z" transform="translate(-477.92 -171.39)"/>
      <path class="cls-1" d="M521.12,209.13V211h2.27a0.64,0.64,0,0,1,.46.17,0.59,0.59,0,0,1,.18.45,0.56,0.56,0,0,1-.18.41,0.63,0.63,0,0,1-.46.18h-2.27v2.45a0.6,0.6,0,0,1-.19.46,0.64,0.64,0,0,1-.46.18,0.65,0.65,0,0,1-.48-0.18,0.61,0.61,0,0,1-.18-0.46v-6.07a0.63,0.63,0,0,1,.64-0.64h3.41a0.64,0.64,0,0,1,.46.17,0.58,0.58,0,0,1,.18.45,0.56,0.56,0,0,1-.18.41,0.63,0.63,0,0,1-.46.18h-2.74Z" transform="translate(-477.92 -171.39)"/>
      <path class="cls-1" d="M544.44,214.25a0.59,0.59,0,0,1,.18.43,0.56,0.56,0,0,1-.18.43,0.65,0.65,0,0,1-.46.17h-3.52a0.63,0.63,0,0,1-.64-0.64v-6.07a0.63,0.63,0,0,1,.64-0.64H544a0.64,0.64,0,0,1,.46.17,0.59,0.59,0,0,1,.18.45,0.55,0.55,0,0,1-.18.43,0.66,0.66,0,0,1-.46.16h-2.85v1.79h2.37a0.64,0.64,0,0,1,.46.17,0.59,0.59,0,0,1,.18.45,0.55,0.55,0,0,1-.18.42,0.66,0.66,0,0,1-.46.16h-2.37v1.94H544A0.62,0.62,0,0,1,544.44,214.25Z" transform="translate(-477.92 -171.39)"/>
      <path class="cls-1" d="M565.23,208.09a0.58,0.58,0,0,1,.18.44,0.56,0.56,0,0,1-.18.44,0.66,0.66,0,0,1-.46.16h-1.65v5.5a0.6,0.6,0,0,1-.2.46,0.7,0.7,0,0,1-.49.18,0.66,0.66,0,0,1-.48-0.18,0.61,0.61,0,0,1-.19-0.46v-5.5h-1.65a0.65,0.65,0,0,1-.46-0.17,0.58,0.58,0,0,1-.18-0.44,0.56,0.56,0,0,1,.18-0.43,0.65,0.65,0,0,1,.46-0.17h4.66A0.65,0.65,0,0,1,565.23,208.09Z" transform="translate(-477.92 -171.39)"/>
      <path class="cls-1" d="M585.24,214.25a0.59,0.59,0,0,1,.18.43,0.56,0.56,0,0,1-.18.43,0.65,0.65,0,0,1-.46.17h-3.52a0.63,0.63,0,0,1-.64-0.64v-6.07a0.63,0.63,0,0,1,.64-0.64h3.52a0.64,0.64,0,0,1,.46.17,0.59,0.59,0,0,1,.18.45,0.55,0.55,0,0,1-.18.43,0.66,0.66,0,0,1-.46.16h-2.85v1.79h2.37a0.64,0.64,0,0,1,.46.17,0.59,0.59,0,0,1,.18.45,0.55,0.55,0,0,1-.18.42,0.66,0.66,0,0,1-.46.16h-2.37v1.94h2.85A0.62,0.62,0,0,1,585.24,214.25Z" transform="translate(-477.92 -171.39)"/>
      <path class="cls-1" d="M606.73,214.46a0.57,0.57,0,0,1,.08.28,0.54,0.54,0,0,1-.13.35,0.59,0.59,0,0,1-.48.19,0.94,0.94,0,0,1-.46-0.12,1.84,1.84,0,0,1-.76-1.75,0.76,0.76,0,0,0-.25-0.6,1,1,0,0,0-.71-0.22h-2v2a0.69,0.69,0,0,1-.15.46,0.5,0.5,0,0,1-.4.18,0.81,0.81,0,0,1-.53-0.18,0.57,0.57,0,0,1-.23-0.46v-6.07a0.63,0.63,0,0,1,.64-0.64h3a2,2,0,0,1,1,.29,2.18,2.18,0,0,1,.77.81,2.32,2.32,0,0,1,.29,1.16,2,2,0,0,1-.28,1,2.25,2.25,0,0,1-.73.79,1.61,1.61,0,0,1,.72,1.24,1.73,1.73,0,0,1,0,.33,3.22,3.22,0,0,0,.08.47,0.35,0.35,0,0,0,.19.22A0.63,0.63,0,0,1,606.73,214.46Zm-2-3.13a1.34,1.34,0,0,0,.29-0.48,1.78,1.78,0,0,0,.12-0.65,1.26,1.26,0,0,0-.12-0.54,1.1,1.1,0,0,0-.29-0.39,0.58,0.58,0,0,0-.37-0.15h-2.3v2.38h2.3A0.52,0.52,0,0,0,604.73,211.33Z" transform="translate(-477.92 -171.39)"/>
      <path class="cls-1" d="M623.19,215.09a0.66,0.66,0,0,1-.46.18,0.63,0.63,0,0,1-.47-0.18,0.62,0.62,0,0,1-.18-0.46v-6.07a0.61,0.61,0,0,1,.19-0.46,0.66,0.66,0,0,1,.48-0.18,0.62,0.62,0,0,1,.45.18,0.61,0.61,0,0,1,.19.46v6.07A0.6,0.6,0,0,1,623.19,215.09Z" transform="translate(-477.92 -171.39)"/>
      <path class="cls-1" d="M644.9,214.7a0.59,0.59,0,0,1-.18.45,0.57,0.57,0,0,1-.41.17,0.55,0.55,0,0,1-.34-0.12,0.75,0.75,0,0,1-.24-0.31l-0.55-1.27h-3.13l-0.55,1.28a0.64,0.64,0,0,1-.23.31,0.55,0.55,0,0,1-.33.11,0.5,0.5,0,0,1-.56-0.55,0.68,0.68,0,0,1,0-.2L641,208.3a0.69,0.69,0,0,1,.25-0.33,0.55,0.55,0,0,1,.38-0.09,0.61,0.61,0,0,1,.35.11,0.62,0.62,0,0,1,.24.31l2.58,6.15A0.7,0.7,0,0,1,644.9,214.7Zm-4.33-2.29h2.1L641.61,210Z" transform="translate(-477.92 -171.39)"/>
    </g>
  </g>
</svg>
