<svg id="_25_GG_Logos_01" data-name="25 GG Logos 01" xmlns="http://www.w3.org/2000/svg" viewBox="0 0 241.71 75.32">
  <defs>
    <style>
      .cls-1 {
        fill: #fff;
      }
    </style>
  </defs>
  <title>client-logo-white_03</title>
  <g id="_05" data-name="05">
    <g>
      <path class="cls-1" d="M1681.48,157.46a5.49,5.49,0,0,0-2.63-.72,5.15,5.15,0,0,0-2.73.75,5.32,5.32,0,0,0-1.94,2.07,6.42,6.42,0,0,0,0,5.86,5.31,5.31,0,0,0,1.94,2.07,5.14,5.14,0,0,0,2.73.75,6,6,0,0,0,2.55-.62,8.06,8.06,0,0,0,2.38-1.7l3,3.25a12.1,12.1,0,0,1-3.83,2.7,10.65,10.65,0,0,1-9.72-.35,9.92,9.92,0,0,1-3.74-3.71,10.31,10.31,0,0,1-1.36-5.26,9.89,9.89,0,0,1,5.19-8.86,11.28,11.28,0,0,1,9.78-.41,10.82,10.82,0,0,1,3.65,2.5l-3,3.62A7.4,7.4,0,0,0,1681.48,157.46Z" transform="translate(-1585 -152.35)"/>
      <path class="cls-1" d="M1689,152.66h5.18v15.42h8.41v4.42H1689V152.66Z" transform="translate(-1585 -152.35)"/>
      <path class="cls-1" d="M1704.94,152.66h5.18V172.5h-5.18V152.66Z" transform="translate(-1585 -152.35)"/>
      <path class="cls-1" d="M1714,152.66h5.63l5.75,11.6,5.72-11.6h5.63V172.5h-4.58l0-12.57L1727,170.52h-3.34l-5.09-10.58V172.5H1714V152.66Z" transform="translate(-1585 -152.35)"/>
      <path class="cls-1" d="M1753.86,153.27a5.72,5.72,0,0,1,2.56,1.74,4.13,4.13,0,0,1,.91,2.66,4.24,4.24,0,0,1-.92,2.72,4.61,4.61,0,0,1-2.5,1.58,4.87,4.87,0,0,1,3,1.73A5.08,5.08,0,0,1,1758,167a4.78,4.78,0,0,1-.93,2.93,5.79,5.79,0,0,1-2.66,1.92,11.23,11.23,0,0,1-4,.67h-9.79V152.66H1750A11.28,11.28,0,0,1,1753.86,153.27Zm-2.48,6.76a1.8,1.8,0,0,0,.62-1.46,1.69,1.69,0,0,0-.62-1.4,2.55,2.55,0,0,0-1.7-.47h-4v3.85h4A2.56,2.56,0,0,0,1751.38,160Zm0.45,7.88a1.84,1.84,0,0,0,.79-1.58,1.72,1.72,0,0,0-.79-1.49,3.57,3.57,0,0,0-2.15-.52h-4v4.16h4A3.63,3.63,0,0,0,1751.83,167.91Z" transform="translate(-1585 -152.35)"/>
      <path class="cls-1" d="M1667.7,180.06h17v4.27h-5.94V199.9h-5.18V184.33h-5.89v-4.27Z" transform="translate(-1585 -152.35)"/>
      <path class="cls-1" d="M1686.8,180.06H1692v8.09h8v-8.09h5.18V199.9H1700v-7.61h-8v7.61h-5.18V180.06Z" transform="translate(-1585 -152.35)"/>
      <path class="cls-1" d="M1709,180.06h15.65v4.13h-10.47v3.71h9.45V192l-9.45,0v3.74h10.75v4.13H1709V180.06Z" transform="translate(-1585 -152.35)"/>
      <path class="cls-1" d="M1669.42,207.46h5.63l5.75,11.6,5.72-11.6h5.63V227.3h-4.58l0-12.57-5.07,10.58h-3.34L1674,214.73V227.3h-4.61V207.46Z" transform="translate(-1585 -152.35)"/>
      <path class="cls-1" d="M1710.93,208.48a9.87,9.87,0,0,1,5.25,8.86,10,10,0,0,1-5.25,9,11.77,11.77,0,0,1-11,0,10,10,0,0,1-3.85-3.71,10.16,10.16,0,0,1-1.4-5.28,9.86,9.86,0,0,1,5.25-8.86A11.94,11.94,0,0,1,1710.93,208.48Zm-8.15,3.82a5.5,5.5,0,0,0-2,2.11,6.32,6.32,0,0,0,0,5.94,5.74,5.74,0,0,0,2,2.12,5,5,0,0,0,2.72.78,5,5,0,0,0,2.7-.78,5.46,5.46,0,0,0,1.94-2.12,6.59,6.59,0,0,0,0-5.94,5.36,5.36,0,0,0-1.94-2.11,5,5,0,0,0-2.7-.76A5.17,5.17,0,0,0,1702.78,212.3Z" transform="translate(-1585 -152.35)"/>
      <path class="cls-1" d="M1724.69,222.12a3.75,3.75,0,0,0,2.8,1.13,3.51,3.51,0,0,0,2.7-1.12,4.27,4.27,0,0,0,1-3V207.46h5.18v11.66a9.07,9.07,0,0,1-1.09,4.51,7.37,7.37,0,0,1-3.11,3,10.18,10.18,0,0,1-4.74,1,10.36,10.36,0,0,1-4.77-1,7.5,7.5,0,0,1-3.17-3,8.87,8.87,0,0,1-1.12-4.51V207.46h5.18v11.66A4.12,4.12,0,0,0,1724.69,222.12Z" transform="translate(-1585 -152.35)"/>
      <path class="cls-1" d="M1753.5,207.46h4.81V227.3h-4.53l-9-11.86V227.3h-4.84V207.46h4.56l9,11.94Z" transform="translate(-1585 -152.35)"/>
      <path class="cls-1" d="M1760.46,207.46h17v4.27h-5.94V227.3h-5.18V211.73h-5.89v-4.27Z" transform="translate(-1585 -152.35)"/>
      <path class="cls-1" d="M1792,227.3l-1.36-3.51h-8.58l-1.39,3.51h-5.32l8.52-19.84h5.32l8.32,19.84H1792Zm-8.38-7.47h5.49l-2.72-7.08Z" transform="translate(-1585 -152.35)"/>
      <path class="cls-1" d="M1799.32,207.46h5.18V227.3h-5.18V207.46Z" transform="translate(-1585 -152.35)"/>
      <path class="cls-1" d="M1821.9,207.46h4.81V227.3h-4.53l-9-11.86V227.3h-4.84V207.46h4.56l9,11.94Z" transform="translate(-1585 -152.35)"/>
    </g>
    <rect class="cls-1" y="0.15" width="75" height="75"/>
    <g>
      <path d="M1609.77,187.66a1.73,1.73,0,0,0-1.4.66,3,3,0,0,0,0,3.41,1.74,1.74,0,0,0,1.4.65,2,2,0,0,0,1.91-1.1l2.36,1.35a4,4,0,0,1-1.73,1.73,5.67,5.67,0,0,1-2.7.61,5.45,5.45,0,0,1-2.63-.61,4.31,4.31,0,0,1-1.75-1.73,5.24,5.24,0,0,1-.62-2.59,5.37,5.37,0,0,1,.63-2.64,4.37,4.37,0,0,1,1.77-1.76,5.89,5.89,0,0,1,5.23,0,4.34,4.34,0,0,1,1.76,1.7l-2.32,1.35A2.18,2.18,0,0,0,1609.77,187.66Z" transform="translate(-1585 -152.35)"/>
      <path d="M1621.85,194.35a4.82,4.82,0,0,1-1.24.48,6,6,0,0,1-1.42.17,3.28,3.28,0,0,1-2.33-.83,3,3,0,0,1-.89-2.29v-4.18h-1.35v-2.12H1616v-2.7h3.19v2.7h2.52v2.12h-2.52v3.67a0.84,0.84,0,0,0,.85,1,3.13,3.13,0,0,0,1.24-.32Z" transform="translate(-1585 -152.35)"/>
      <path d="M1638.92,186a3.79,3.79,0,0,1,1,2.72v6.14h-3.2v-5.22a1.87,1.87,0,0,0-.43-1.3,1.5,1.5,0,0,0-1.17-.48,1.69,1.69,0,0,0-1.34.62,2.4,2.4,0,0,0-.5,1.57v4.81H1630v-5.22a1.87,1.87,0,0,0-.43-1.3,1.5,1.5,0,0,0-1.17-.48,1.72,1.72,0,0,0-1.35.62,2.37,2.37,0,0,0-.5,1.57v4.81h-3.19v-9.74h3.19v1.6a3.44,3.44,0,0,1,1.3-1.29,3.8,3.8,0,0,1,1.86-.44,3.53,3.53,0,0,1,2,.58,3.14,3.14,0,0,1,1.21,1.6,3.5,3.5,0,0,1,1.34-1.63,3.79,3.79,0,0,1,2.06-.55A3.33,3.33,0,0,1,1638.92,186Z" transform="translate(-1585 -152.35)"/>
    </g>
  </g>
</svg>
