<svg id="_25_GG_Logos_01" data-name="25 GG Logos 01" xmlns="http://www.w3.org/2000/svg" viewBox="0 0 194.46 54.23">
  <defs>
    <style>
      .cls-1 {
        fill: #231f20;
      }

      .cls-2 {
        fill: none;
        stroke: #231f20;
        stroke-miterlimit: 10;
      }
    </style>
  </defs>
  <title>logo_07</title>
  <g id="_25" data-name="25">
    <g>
      <path class="cls-1" d="M1684.61,1682.46a5.5,5.5,0,0,0-2.63-.72,5.16,5.16,0,0,0-2.73.75,5.32,5.32,0,0,0-1.94,2.07,6.42,6.42,0,0,0,0,5.86,5.3,5.3,0,0,0,1.94,2.07,5.14,5.14,0,0,0,2.73.75,6,6,0,0,0,2.55-.62,8.06,8.06,0,0,0,2.38-1.7l3,3.25a12.09,12.09,0,0,1-3.83,2.7,10.64,10.64,0,0,1-9.72-.35,9.92,9.92,0,0,1-3.74-3.71,10.32,10.32,0,0,1-1.36-5.26,9.89,9.89,0,0,1,5.19-8.86,11.29,11.29,0,0,1,9.78-.41,10.82,10.82,0,0,1,3.65,2.5l-3,3.62A7.38,7.38,0,0,0,1684.61,1682.46Z" transform="translate(-1612 -1677.35)"/>
      <path class="cls-1" d="M1706.48,1697.5l-1.36-3.51h-8.58l-1.39,3.51h-5.32l8.52-19.84h5.32l8.32,19.84h-5.52Zm-8.38-7.47h5.49l-2.72-7.08Z" transform="translate(-1612 -1677.35)"/>
      <path class="cls-1" d="M1725.7,1697.5l-2.89-5.49H1719v5.49h-5.18v-19.84h8.91a9.19,9.19,0,0,1,6.1,1.83,6.35,6.35,0,0,1,2.17,5.14,7.82,7.82,0,0,1-.91,3.86,6.26,6.26,0,0,1-2.63,2.53l4.13,6.48h-5.86Zm-6.74-9.62h3.76a3.49,3.49,0,0,0,2.45-.79,3,3,0,0,0,.86-2.29,2.84,2.84,0,0,0-.86-2.22,3.53,3.53,0,0,0-2.45-.78H1719v6.08Z" transform="translate(-1612 -1677.35)"/>
      <path class="cls-1" d="M1748.85,1697.5l-1.36-3.51h-8.58l-1.39,3.51h-5.32l8.52-19.84H1746l8.32,19.84h-5.52Zm-8.38-7.47H1746l-2.72-7.08Z" transform="translate(-1612 -1677.35)"/>
      <path class="cls-1" d="M1672.55,1700.06h5.18v19.84h-5.18v-19.84Z" transform="translate(-1612 -1677.35)"/>
      <path class="cls-1" d="M1695.13,1700.06h4.81v19.84h-4.53l-9-11.86v11.86h-4.84v-19.84h4.56l9,11.94Z" transform="translate(-1612 -1677.35)"/>
      <path class="cls-1" d="M1717.87,1701.3a9.13,9.13,0,0,1,3.72,3.5,10.67,10.67,0,0,1,0,10.34,9.1,9.1,0,0,1-3.79,3.51,12.21,12.21,0,0,1-5.62,1.25h-8.35v-19.84h8.55A11.76,11.76,0,0,1,1717.87,1701.3Zm-2.7,13.7a4.81,4.81,0,0,0,1.81-2,6.56,6.56,0,0,0,.65-3,6.28,6.28,0,0,0-.69-3,5.07,5.07,0,0,0-1.91-2,5.34,5.34,0,0,0-2.77-.72H1709v11.43h3.51A5,5,0,0,0,1715.17,1715Z" transform="translate(-1612 -1677.35)"/>
      <path class="cls-1" d="M1740.09,1701.08a9.87,9.87,0,0,1,5.25,8.86,10,10,0,0,1-5.25,9,11.78,11.78,0,0,1-11,0,10,10,0,0,1-3.85-3.71,10.15,10.15,0,0,1-1.4-5.28,9.86,9.86,0,0,1,5.25-8.86A11.94,11.94,0,0,1,1740.09,1701.08Zm-8.15,3.82a5.49,5.49,0,0,0-2,2.11,6.32,6.32,0,0,0,0,5.94,5.74,5.74,0,0,0,2,2.12,5,5,0,0,0,2.72.78,5,5,0,0,0,2.7-.78,5.46,5.46,0,0,0,1.94-2.12,6.59,6.59,0,0,0,0-5.94,5.36,5.36,0,0,0-1.94-2.11,5,5,0,0,0-2.7-.76A5.18,5.18,0,0,0,1731.94,1704.9Z" transform="translate(-1612 -1677.35)"/>
      <path class="cls-1" d="M1762.5,1701.08a9.87,9.87,0,0,1,5.25,8.86,10,10,0,0,1-5.25,9,11.78,11.78,0,0,1-11,0,10,10,0,0,1-3.85-3.71,10.15,10.15,0,0,1-1.4-5.28,9.86,9.86,0,0,1,5.25-8.86A11.94,11.94,0,0,1,1762.5,1701.08Zm-8.15,3.82a5.49,5.49,0,0,0-2,2.11,6.32,6.32,0,0,0,0,5.94,5.74,5.74,0,0,0,2,2.12,5,5,0,0,0,2.72.78,5,5,0,0,0,2.7-.78,5.46,5.46,0,0,0,1.94-2.12,6.59,6.59,0,0,0,0-5.94,5.36,5.36,0,0,0-1.94-2.11,5,5,0,0,0-2.7-.76A5.18,5.18,0,0,0,1754.35,1704.9Z" transform="translate(-1612 -1677.35)"/>
      <path class="cls-1" d="M1782.24,1719.9l-2.89-5.49h-3.85v5.49h-5.18v-19.84h8.91a9.19,9.19,0,0,1,6.1,1.82,6.35,6.35,0,0,1,2.17,5.14,7.82,7.82,0,0,1-.91,3.86,6.26,6.26,0,0,1-2.63,2.53l4.13,6.48h-5.86Zm-6.74-9.62h3.76a3.49,3.49,0,0,0,2.45-.79,3,3,0,0,0,.86-2.29,2.84,2.84,0,0,0-.86-2.22,3.53,3.53,0,0,0-2.45-.78h-3.76v6.08Z" transform="translate(-1612 -1677.35)"/>
      <path class="cls-1" d="M1801.1,1704.5a10,10,0,0,0-3-.59,2.79,2.79,0,0,0-1.51.35,1.15,1.15,0,0,0-.55,1,1.41,1.41,0,0,0,.48,1.09,3.66,3.66,0,0,0,1.19.71q0.71,0.27,2.09.69a27.12,27.12,0,0,1,3.41,1.19,6,6,0,0,1,2.31,1.83,5.07,5.07,0,0,1,1,3.21,5.5,5.5,0,0,1-1,3.38,6.34,6.34,0,0,1-2.87,2.11,11.15,11.15,0,0,1-4.06.71,14.69,14.69,0,0,1-4.91-.86,13.41,13.41,0,0,1-4.23-2.36l2-4a12.47,12.47,0,0,0,3.55,2.18,9.69,9.69,0,0,0,3.64.85,3.37,3.37,0,0,0,1.83-.42,1.38,1.38,0,0,0,.67-1.25,1.47,1.47,0,0,0-.5-1.13,3.65,3.65,0,0,0-1.25-.72q-0.75-.27-2.11-0.64a26,26,0,0,1-3.37-1.15,6,6,0,0,1-2.28-1.75,4.83,4.83,0,0,1-.95-3.13,5.46,5.46,0,0,1,1-3.23,6.21,6.21,0,0,1,2.77-2.14,10.78,10.78,0,0,1,4.17-.75,15.16,15.16,0,0,1,4.25.61,14,14,0,0,1,3.68,1.63l-2,4.13A17.38,17.38,0,0,0,1801.1,1704.5Z" transform="translate(-1612 -1677.35)"/>
    </g>
    <g>
      <path class="cls-1" d="M1674.13,1722.86v4c0,1.51.67,2.15,1.57,2.15s1.64-.66,1.64-2.15v-4h0.88v3.93c0,2.07-1.09,2.92-2.55,2.92s-2.42-.79-2.42-2.88v-4h0.88Z" transform="translate(-1612 -1677.35)"/>
      <path class="cls-1" d="M1679.7,1726.07c0-.5,0-0.91,0-1.31h0.78l0.05,0.8h0a1.78,1.78,0,0,1,1.6-.91c0.67,0,1.71.4,1.71,2.06v2.89h-0.88v-2.79a1.18,1.18,0,0,0-1.12-1.43,1.25,1.25,0,0,0-1.18.9,1.27,1.27,0,0,0-.06.41v2.91h-0.88v-3.53Z" transform="translate(-1612 -1677.35)"/>
      <path class="cls-1" d="M1686.23,1723.4a0.54,0.54,0,0,1-1.09,0,0.54,0.54,0,0,1,.55-0.55A0.52,0.52,0,0,1,1686.23,1723.4Zm-1,6.2v-4.84h0.88v4.84h-0.88Z" transform="translate(-1612 -1677.35)"/>
      <path class="cls-1" d="M1690.89,1728.85h0a1.72,1.72,0,0,1-1.58.86,2.21,2.21,0,0,1-2-2.45,2.32,2.32,0,0,1,2.19-2.61,1.59,1.59,0,0,1,1.49.84h0l0-.73h0.83c0,0.41,0,.83,0,1.33v5.49h-0.88v-2.73Zm0-2.13a1.54,1.54,0,0,0,0-.37,1.29,1.29,0,0,0-1.26-1,1.59,1.59,0,0,0-1.46,1.86,1.55,1.55,0,0,0,1.43,1.8,1.31,1.31,0,0,0,1.26-1,1.47,1.47,0,0,0,.07-0.42v-0.91Z" transform="translate(-1612 -1677.35)"/>
      <path class="cls-1" d="M1697.27,1728.28c0,0.5,0,.94,0,1.32h-0.78l0-.79h0a1.82,1.82,0,0,1-1.6.9c-0.76,0-1.67-.42-1.67-2.12v-2.83h0.88v2.68c0,0.92.28,1.54,1.08,1.54a1.27,1.27,0,0,0,1.16-.8,1.29,1.29,0,0,0,.08-0.45v-3h0.88v3.52Z" transform="translate(-1612 -1677.35)"/>
      <path class="cls-1" d="M1699.22,1727.34a1.55,1.55,0,0,0,1.66,1.68,3.19,3.19,0,0,0,1.34-.25l0.15,0.63a3.92,3.92,0,0,1-1.61.3,2.25,2.25,0,0,1-2.38-2.44,2.35,2.35,0,0,1,2.27-2.61,2,2,0,0,1,2,2.28,3.17,3.17,0,0,1,0,.41h-3.4Zm2.58-.63a1.25,1.25,0,0,0-1.22-1.43,1.46,1.46,0,0,0-1.35,1.43h2.57Z" transform="translate(-1612 -1677.35)"/>
      <path class="cls-1" d="M1705.89,1722.86h3.63v0.73h-2.76v2.24h2.55v0.72h-2.55v3h-0.87v-6.74Z" transform="translate(-1612 -1677.35)"/>
      <path class="cls-1" d="M1714.43,1728.28c0,0.5,0,.94,0,1.32h-0.78l0-.79h0a1.82,1.82,0,0,1-1.6.9c-0.76,0-1.67-.42-1.67-2.12v-2.83h0.88v2.68c0,0.92.28,1.54,1.08,1.54a1.27,1.27,0,0,0,1.16-.8,1.29,1.29,0,0,0,.08-0.45v-3h0.88v3.52Z" transform="translate(-1612 -1677.35)"/>
      <path class="cls-1" d="M1715.89,1726.27c0-.57,0-1.06,0-1.51h0.77l0,1h0a1.45,1.45,0,0,1,1.34-1.06,0.93,0.93,0,0,1,.25,0v0.83a1.35,1.35,0,0,0-.3,0,1.23,1.23,0,0,0-1.18,1.13,2.53,2.53,0,0,0,0,.41v2.58h-0.87v-3.33Z" transform="translate(-1612 -1677.35)"/>
      <path class="cls-1" d="M1719.2,1726.07c0-.5,0-0.91,0-1.31h0.78l0.05,0.8h0a1.78,1.78,0,0,1,1.6-.91c0.67,0,1.71.4,1.71,2.06v2.89h-0.88v-2.79a1.18,1.18,0,0,0-1.12-1.43,1.25,1.25,0,0,0-1.18.9,1.27,1.27,0,0,0-.06.41v2.91h-0.88v-3.53Z" transform="translate(-1612 -1677.35)"/>
      <path class="cls-1" d="M1725.73,1723.4a0.54,0.54,0,0,1-1.09,0,0.54,0.54,0,0,1,.55-0.55A0.52,0.52,0,0,1,1725.73,1723.4Zm-1,6.2v-4.84h0.88v4.84h-0.88Z" transform="translate(-1612 -1677.35)"/>
      <path class="cls-1" d="M1728.15,1723.37v1.39h1.26v0.67h-1.26V1728c0,0.6.17,0.94,0.66,0.94a1.89,1.89,0,0,0,.51-0.06l0,0.66a2.14,2.14,0,0,1-.78.12,1.22,1.22,0,0,1-.95-0.37,1.79,1.79,0,0,1-.34-1.26v-2.64h-0.75v-0.67h0.75v-1.16Z" transform="translate(-1612 -1677.35)"/>
      <path class="cls-1" d="M1734.45,1728.28c0,0.5,0,.94,0,1.32h-0.78l0-.79h0a1.82,1.82,0,0,1-1.6.9c-0.76,0-1.67-.42-1.67-2.12v-2.83h0.88v2.68c0,0.92.28,1.54,1.08,1.54a1.27,1.27,0,0,0,1.16-.8,1.29,1.29,0,0,0,.08-0.45v-3h0.88v3.52Z" transform="translate(-1612 -1677.35)"/>
      <path class="cls-1" d="M1735.91,1726.27c0-.57,0-1.06,0-1.51h0.77l0,1h0a1.45,1.45,0,0,1,1.34-1.06,0.93,0.93,0,0,1,.25,0v0.83a1.35,1.35,0,0,0-.3,0,1.23,1.23,0,0,0-1.18,1.13,2.53,2.53,0,0,0,0,.41v2.58h-0.87v-3.33Z" transform="translate(-1612 -1677.35)"/>
      <path class="cls-1" d="M1739.57,1727.34a1.55,1.55,0,0,0,1.66,1.68,3.19,3.19,0,0,0,1.34-.25l0.15,0.63a3.92,3.92,0,0,1-1.61.3,2.25,2.25,0,0,1-2.38-2.44,2.35,2.35,0,0,1,2.27-2.61,2,2,0,0,1,2,2.28,3.17,3.17,0,0,1,0,.41h-3.4Zm2.58-.63a1.25,1.25,0,0,0-1.22-1.43,1.46,1.46,0,0,0-1.35,1.43h2.57Z" transform="translate(-1612 -1677.35)"/>
    </g>
    <rect class="cls-1" x="53" y="0.15" width="2.5" height="52.5"/>
    <circle class="cls-1" cx="6.75" cy="26.4" r="6.25"/>
    <circle class="cls-1" cx="24.25" cy="26.4" r="6.25"/>
    <circle class="cls-2" cx="6.75" cy="8.9" r="6.25"/>
    <circle class="cls-2" cx="24.25" cy="8.9" r="6.25"/>
    <circle class="cls-1" cx="24.25" cy="43.9" r="6.25"/>
    <circle class="cls-2" cx="6.75" cy="43.9" r="6.25"/>
    <circle class="cls-1" cx="41.75" cy="8.9" r="6.25"/>
    <circle class="cls-1" cx="41.75" cy="43.9" r="6.25"/>
    <circle class="cls-2" cx="41.75" cy="26.4" r="6.25"/>
  </g>
</svg>
