<svg id="Слой_1" data-name="Слой 1" xmlns="http://www.w3.org/2000/svg" viewBox="0 0 335.55 190.89">
  <title>2</title>
  <path d="M229.63,209.44c-0.1-.85-0.22-1.69-0.29-2.55a20.43,20.43,0,0,1,1.09-8.09,12.44,12.44,0,0,1,3.47-4.95l0.45-.42a0.28,0.28,0,0,0,0-.13l-15.15,2.27a8.46,8.46,0,0,1-3.88,6.24,22.56,22.56,0,0,1-10.58,4.34c-0.49.06-1,.11-1.49,0.13s-0.71-.3-0.44-0.74a5.8,5.8,0,0,1,.47-0.58,29,29,0,0,1,9.75-7.36c1-.49,2-0.93,2.95-1.4a2.07,2.07,0,0,0,.74-0.51c-0.5,0-1,.11-1.51.13-1.7.09-3.39,0.22-5.09,0.25S207,196,205.46,196a1.14,1.14,0,0,0-.78.27c-2.09,2.33-4.91,3.35-7.74,4.34a20.72,20.72,0,0,1-8.17,1.08,28.19,28.19,0,0,1-4-.73,0.82,0.82,0,0,1-.57-0.45,1,1,0,0,1,.38-0.72,14.37,14.37,0,0,1,5.13-2.59,36.23,36.23,0,0,1,9.91-1.66c-2.82-.39-6.14-0.84-9.45-1.31a4.19,4.19,0,0,1-1.36-.4,10.88,10.88,0,0,0-4.5-.9,22.44,22.44,0,0,1-15.47-7.72c-0.53-.59-1.12-1.13-1.64-1.72a3.21,3.21,0,0,1-.38-0.74,2.72,2.72,0,0,1,.71-0.32,17.39,17.39,0,0,1,11.38,1.88,24.77,24.77,0,0,1,7.55,6.55,7.37,7.37,0,0,0,5.31,2.9l8.09,1a2.14,2.14,0,0,0,.32,0c-0.26-.14-0.43-0.24-0.6-0.32a22.43,22.43,0,0,1-5.27-3.58,22.74,22.74,0,0,1-5.21-6.31,0.89,0.89,0,0,1-.13-0.24,1.06,1.06,0,0,1-.05-0.6,0.85,0.85,0,0,1,.66-0.11c1.23,0.31,2.45.67,3.67,1,0.76,0.21,1.55.36,2.3,0.62,3.19,1.1,5.34,3.41,7.06,6.18,0.72,1.15,1.33,2.37,2,3.54a0.92,0.92,0,0,0,.65.35c1.56,0.08,3.12.16,4.69,0.15a33.38,33.38,0,0,0,4.19-.32l-0.43-.16a12.09,12.09,0,0,1-5.72-3.76c-1.71-2-3.27-4.23-4.89-6.36a0.6,0.6,0,0,1-.08-0.54,0.74,0.74,0,0,1,.53-0.19,14.47,14.47,0,0,1,10.57,4,15.92,15.92,0,0,1,4.08,5.7,1,1,0,0,0,1.39.78l12.5-1.88a0.77,0.77,0,0,0,.35-0.15c-6.2-1.19-9.92-5.63-13.66-10.2a17.59,17.59,0,0,1-2.5.58,49,49,0,0,1-5.15.26c-1.95,0-3.89-.21-5.84-0.32a0.57,0.57,0,0,1-.27,0,5.55,5.55,0,0,1-.46-0.39,1.42,1.42,0,0,1,.49-0.34c0.92-.12,1.85-0.15,2.77-0.29a21.72,21.72,0,0,0,6.3-1.86c1.88-.91,3.79-1.74,5.66-2.66a23,23,0,0,1,7.8-2c1.75-.19,3.53-0.21,5.29-0.3a2.64,2.64,0,0,0,1-.21l-5.56-.68a94.29,94.29,0,0,0-15.28-.28,16.53,16.53,0,0,0-3.11.68,41.63,41.63,0,0,1-9.66.81,46.61,46.61,0,0,1-16.55-3.06c-2.42-.89-4.7-2.14-7-3.25a1.31,1.31,0,0,1-.33-0.51,1.73,1.73,0,0,1,.69-0.26c1.33,0.17,2.64.38,4,.58a59.45,59.45,0,0,0,9.13.78c3.92,0,7.84,0,11.76.12a33.71,33.71,0,0,1,8,1.57c1.59,0.44,3.12,1.07,4.69,1.6a2.35,2.35,0,0,0,.8.08l6.4-.2a18.34,18.34,0,0,1-2.2-.37,51.65,51.65,0,0,1-5.1-1.65,93.23,93.23,0,0,1-13.91-7.27,50.92,50.92,0,0,0-8-4.17,0.76,0.76,0,0,1-.31-0.13,5.18,5.18,0,0,1-.36-0.58,1.39,1.39,0,0,1,.59-0.32,23.18,23.18,0,0,1,2.9.36A112.7,112.7,0,0,1,210.66,163a60.37,60.37,0,0,1,15.79,8.82,6.93,6.93,0,0,0,3.76,1.57c1.92,0.16,3.82.48,5.73,0.73a5.66,5.66,0,0,0,.59,0c-0.2-.13-0.28-0.2-0.38-0.24a24.32,24.32,0,0,1-9-7.59c-2.54-3.39-5.13-6.75-7.73-10.1-0.59-.77-1.28-1.47-1.92-2.2a4.24,4.24,0,0,1-.53-0.61,0.64,0.64,0,0,1,0-.55,0.59,0.59,0,0,1,.52-0.18,2.84,2.84,0,0,1,.79.37,63.14,63.14,0,0,1,15.89,13.71,51.87,51.87,0,0,0,7.08,7.33,7.89,7.89,0,0,0,3.14,1.6c2,0.49,3.94,1.07,5.9,1.61a0.93,0.93,0,0,0,.48,0c-0.18-.12-0.36-0.24-0.55-0.35a30.7,30.7,0,0,1-10.69-10.73c-1.09-1.77-2.33-3.45-3.48-5.19a1.06,1.06,0,0,1-.22-0.81c0.21-.4.6-0.17,0.89,0a51.71,51.71,0,0,1,7.18,4.91A87.46,87.46,0,0,1,255,176.45c0.82,0.94,1.73,1.81,2.47,2.8a3.51,3.51,0,0,0,1.82,1.16c2.32,0.84,4.65,1.68,7,2.53a1.6,1.6,0,0,0,1.24,0c1.31-.54,2.64-1.05,3.94-1.65a19.61,19.61,0,0,1-5.91-.54,24.23,24.23,0,0,1-3.48-1.13,33.68,33.68,0,0,1-6.92-3.88,1,1,0,0,1-.44-0.67c0-.4.47-0.29,0.78-0.34,0.89-.15,1.79-0.28,2.66-0.52a16,16,0,0,1,7.53-.46,15.22,15.22,0,0,1,5.92,3.09c0.74,0.56,1.45,1.17,2.19,1.73,0.43,0.33.9,0.61,1.35,0.91l-0.19.23a2.76,2.76,0,0,0-.16-0.38,31.61,31.61,0,0,0-10.08-10.59c-1.94-1.26-3.74-2.72-5.61-4.08-0.6-.44-1.26-0.8-1.87-1.24a2,2,0,0,1-.38-0.55,1.37,1.37,0,0,1,.64-0.17,21.5,21.5,0,0,1,2.45,1,46.59,46.59,0,0,1,7.13,4.22c1.93,1.43,4,2.74,5.83,4.23a24.75,24.75,0,0,1,5.67,6l7.47-3.24a9.74,9.74,0,0,0-2.55-1.61,20,20,0,0,1-8.16-5,7.46,7.46,0,0,1-.8-0.92,0.43,0.43,0,0,1,.37-0.71c3,0.21,6.05.35,8.89,1.68a27.84,27.84,0,0,1,5.32,3.74c0.16,0.13.3,0.28,0.45,0.41a1.5,1.5,0,0,0,1.77.3,90.33,90.33,0,0,1,13.32-4.49c1.34-.33,2.72-0.49,4.08-0.73a0.9,0.9,0,0,1,1,.48,0.73,0.73,0,0,1-.47,1.24c-0.9.24-1.82,0.38-2.71,0.64-2.7.78-5.4,1.53-8.07,2.41s-5,1.79-7.48,2.69c-0.23.08-.45,0.19-0.77,0.32a2.32,2.32,0,0,0,.38.5,51,51,0,0,0,7.91,4.34,95.79,95.79,0,0,1,14,8.27,13.75,13.75,0,0,0,4.38,2.12,6.93,6.93,0,0,1,1,.46,0.77,0.77,0,0,0,.3.13c1.39-.11,2.77.24,4.18,0,3.48-.7,7-1.37,10.48-1.92a56.87,56.87,0,0,0,10.25-2.64c1.15-.41,1.45,0,2,1,0.23,0.44,0,.73-0.57.94a31,31,0,0,1-6.06,1.49c-3.83.58-7.64,1.28-11.47,1.84A79.36,79.36,0,0,1,313.07,193a2.8,2.8,0,0,0-1.41.32c-0.93.47-2,.71-2.89,1.19-2.31,1.2-4.63,2.4-6.86,3.74a41.11,41.11,0,0,1-11.24,4.87,30.9,30.9,0,0,1-9,1c-3.55-.18-7.1-0.39-10.65-0.59a3.08,3.08,0,0,1-.55-0.13v-0.24a8.88,8.88,0,0,1,1.11-.19c2.53-.11,5.07-0.17,7.6-0.31a26.12,26.12,0,0,0,9.8-2.78c2.76-1.31,5.52-2.64,8.37-3.75,2.61-1,5.32-1.8,8-2.6a29.64,29.64,0,0,1,3.5-.59c-2.48-.06-4.81-0.11-7.13-0.19a66.63,66.63,0,0,1-11.33-1.21,1.76,1.76,0,0,0-1.08.15,52.16,52.16,0,0,1-8.86,4,23.24,23.24,0,0,1-7.32.92,0.88,0.88,0,0,0-.84.42c-0.52.71-1.08,1.4-1.65,2.07a0.63,0.63,0,0,1-.5.23,0.76,0.76,0,0,1-.35-0.5,11,11,0,0,1-.15-1.55,0.46,0.46,0,0,0-.53-0.54c-1.11,0-2.22,0-3.33,0-2.27,0-4.54,0-6.79.22a31.61,31.61,0,0,0-4.29.93,0.48,0.48,0,0,0-.26.27c-1.22,3-3.28,5.52-5.18,8.12a3.94,3.94,0,0,1-.4.55,0.74,0.74,0,0,1-.49.26,0.64,0.64,0,0,1-.35-0.42,17.52,17.52,0,0,1-.59-6.93,4.73,4.73,0,0,0,0-.51l-1,.37-3.39,1.2a0.43,0.43,0,0,1-.19.05c-0.2,0-.41-0.1-0.61-0.16,0.09-.18.17-0.37,0.29-0.55a0.56,0.56,0,0,1,.23-0.14c1.59-.77,3.18-1.54,4.75-2.33a1.1,1.1,0,0,0,.44-0.53c0.38-.87.71-1.76,1.09-2.64a12.56,12.56,0,0,1,3.88-5.08c0.16-.12.3-0.26,0.42-0.37l-17.14,4a5.14,5.14,0,0,1,1.27,3.13,11.49,11.49,0,0,1-.91,5.11,17.77,17.77,0,0,1-4.27,5.91c-0.8.74-1.54,1.53-2.31,2.3h-0.27Zm20.7-20.8,0-.12-0.38,0a19.38,19.38,0,0,1-8-2.36,7.21,7.21,0,0,0-2.74-1,37,37,0,0,1-8.2-2.1,11.28,11.28,0,0,0-4.15-.92,1.28,1.28,0,0,1-.33-0.09c0-.59.45-0.5,0.78-0.49,2.74,0.09,5.48.2,8.22,0.31l1.15,0.07c-0.26-.36-0.45-0.61-0.61-0.88-0.33-.54-0.19-0.81.45-0.81,1.63,0,3.26-.06,4.89,0a13.81,13.81,0,0,1,6.76,1.8,2.06,2.06,0,0,0,.84.19c1.33,0.11,2.66.17,4,.31,3.15,0.33,6.3.7,9.45,1,0.82,0.09,1.65.09,2.47,0.12a1.19,1.19,0,0,0-.52-0.33c-1.42-.53-2.86-1-4.27-1.58a117.13,117.13,0,0,0-19.36-5.86c-1.63-.32-3.26-0.89-4.93-0.18a6.13,6.13,0,0,1-.65.21,106.55,106.55,0,0,0-12,4.47c-1.18.51-2.34,1-3.51,1.57,1,0.24,1.95.36,2.9,0.51a15,15,0,0,1,9.36,5.06c1.11,1.31,2.19,2.65,3.25,4a0.83,0.83,0,0,0,1,.33c3.43-.75,6.87-1.47,10.29-2.24C247.78,189.36,249.05,189,250.34,188.64Zm64.41,3.06,0-.22c-0.37-.09-0.74-0.19-1.11-0.27a33.35,33.35,0,0,1-13.8-6.08c-1.12-.84-2.22-1.72-3.34-2.56l-4.28-3.22c-0.47-.36-0.92-0.75-1.48-1.2a13.28,13.28,0,0,1-1.26,6.06,21.1,21.1,0,0,1-3.63,4.91,2.25,2.25,0,0,0,.32.15,55,55,0,0,0,6.34,1.47c4,0.47,8.11.78,12.18,1C308.05,191.86,311.41,191.72,314.75,191.7Zm-59.48,3.89c0.39-.06.63-0.07,0.87-0.13l13.14-3a13.05,13.05,0,0,1,2-6.74c-1-.36-1.91-0.72-2.84-1a2.32,2.32,0,0,0-1.23,0c-3,.89-6,1.84-9,2.74-1.05.31-2.13,0.54-3.31,0.83C256.18,190.68,256,193.06,255.27,195.59Zm24.26-15.79c1.84,2.61,2.58,5.69,4.58,8.19a21,21,0,0,1,4.29-11.94Zm-22.36-4.35,0,0.16c1.48,0.41,3,.8,4.44,1.23,2.6,0.76,5.19,1.57,7.8,2.3a12.77,12.77,0,0,0,4.08.48c-0.77-.64-1.41-1.2-2.07-1.73a15.74,15.74,0,0,0-5.43-3.14C262.95,173.89,260.06,174.59,257.18,175.45ZM186.29,192l0.08-.17a23.37,23.37,0,0,0-9.46-7.63,13.23,13.23,0,0,0-5.3-1.3c-0.95,0-1.89,0-3,0,1.28,0.61,2.43,1.12,3.55,1.71,2.7,1.43,5.36,2.92,8.06,4.34C182.25,190,184.28,191,186.29,192Zm17.8-7.27,0.48,0.34a95.7,95.7,0,0,1,8.69,6.63A12.8,12.8,0,0,0,217,194a1.41,1.41,0,0,0,.32,0C216,190.21,210.71,184.5,204.09,184.77ZM185.43,200.3c6-.3,11.89-1.2,17.27-4.39l-3.86.27a14.79,14.79,0,0,0-2,.17c-2.15.45-4.29,0.9-6.42,1.44A13.07,13.07,0,0,0,185.43,200.3Zm66.8-12.8c-3.42-2.25-13.29-6.35-15.16-6.29C240,185.22,248.77,188.83,252.23,187.5Zm-3.71,17.83c1.53-5.19,3.84-10,4.91-15.28C249.69,191.94,246.76,201,248.52,205.33Zm-79.8-21.53c4.12,4.71,9.15,7.65,15.51,8C179.05,189.14,174.18,185.9,168.72,183.8Zm66.45,9.91a10.83,10.83,0,0,0-3.88,4.78c-0.29.88-.56,1.77-0.84,2.65a15.46,15.46,0,0,0-.46,5.78,3.53,3.53,0,0,0,.09.47A72.71,72.71,0,0,0,235.16,193.71Zm-4.23,13.64,0.17,0.14c0.63-.67,1.3-1.32,1.9-2a13.83,13.83,0,0,0,3.65-8.23,5.3,5.3,0,0,0-.62-3.08,3.66,3.66,0,0,0-.32-0.4A79,79,0,0,1,230.93,207.35Zm39.34-9.42a1.6,1.6,0,0,0,.24-0.28,88.68,88.68,0,0,0,3-10.2c0.18-.88.17-0.88-0.68-1.17l-0.19-.07a0.61,0.61,0,0,0-1,.35A10.94,10.94,0,0,0,270,192.8C270.17,194.46,270.19,196.13,270.27,197.93Zm-79.74-13.07a143.43,143.43,0,0,1,12.41,9.05A14,14,0,0,0,190.54,184.86Zm63.84,4.49c-0.75,2.54-1.45,5.11-2.28,7.64s-1.78,5-2.68,7.53a20.37,20.37,0,0,0,1.79-2.25,22.12,22.12,0,0,0,3.63-8.14A6.66,6.66,0,0,0,254.38,189.35Zm31.45,1.23,0-.22a0.9,0.9,0,0,0-.35-0.14,3.21,3.21,0,0,1-1.11.13c-0.35-.11-0.41-0.65-0.91-0.78-1.29-.33-2.56-0.76-3.84-1.15l-3.37-1-1.15,4.25a18.26,18.26,0,0,1,5.29-1.08C282.22,190.55,284,190.58,285.83,190.58Zm-64.94-6.92c3.35,4.05,7,7.58,12.71,8.15C229.34,189,225.27,186.11,220.89,183.66Zm-16.25,21.74,0,0.08h0.26l0.4-.06a22.33,22.33,0,0,0,8.78-3.61,10.33,10.33,0,0,0,3.46-3.39c0.33-.57.57-1.2,0.88-1.88a1,1,0,0,0-.27,0c-0.6.48-1.24,0.92-1.79,1.45a32.94,32.94,0,0,1-10.58,6.88C205.41,205,205,205.22,204.64,205.39Zm0.64-19.05-0.07.07a5.91,5.91,0,0,0,.35.54c1,1.22,1.9,2.48,2.94,3.65a11.87,11.87,0,0,0,5.65,3.61,23.32,23.32,0,0,0,2.44.44c-1.28-.87-2.54-1.66-3.72-2.55-2.39-1.79-4.73-3.64-7.1-5.46A5.63,5.63,0,0,0,205.28,186.34Zm16.11-3.23,11.92,7.71C230.42,186.56,226.7,183.6,221.38,183.11ZM217,196.61c-3.36.87-11.17,6-12.14,8A33.11,33.11,0,0,0,217,196.61Zm68-8.32a43.81,43.81,0,0,0,4.21-11.54A17.07,17.07,0,0,0,284.93,188.29ZM239.11,181c4.6,1.22,8.67,3.63,12.91,5.66C247.52,182.06,245.18,180.92,239.11,181Zm-36.73,13.58c-1.45-1.64-10.2-8-11.2-8.12C194.34,190.08,197.71,193.23,202.38,194.56Zm73.39-13.11c0.18,1.46.39,2.85,0.5,4.24a0.78,0.78,0,0,0,.65.85c1.72,0.49,3.43,1,5.14,1.52,0.15,0,.32.07,0.5,0.11a30,30,0,0,1-2.83-2.38c-1.19-1.27-2.23-2.67-3.33-4C276.22,181.57,276.13,181.19,275.76,181.46Zm-3.84-1.14-13.55-3.58C262.54,179.41,267,181,271.92,180.32Zm36.37-11.63-0.06-.23c-10.15,2.19-19.58,6.42-29.12,10.47a0.63,0.63,0,0,0,.48.25,3.93,3.93,0,0,0,.75-0.31c5.29-2.32,10.56-4.67,16-6.54a98.8,98.8,0,0,1,11.3-3.45C307.89,168.84,308.09,168.76,308.29,168.69Zm-31.5-.88a103.8,103.8,0,0,0,10.8,4.45A14.87,14.87,0,0,0,276.79,167.81Zm8.74,20.65c3.22-2.87,5.6-9.12,4.26-11.21A73.34,73.34,0,0,1,285.53,188.45Zm-11.15-1.65-3,10.34a23.61,23.61,0,0,0,4.16-10Zm-71.2,9.66c-4.65,2.75-9.79,3.8-15.09,4.31C191.3,201.94,200.77,199.23,203.18,196.47Zm84.69-23.36-10.77-4.22A17.09,17.09,0,0,0,287.87,173.1ZM258.72,186l0-.1-5.95-.26-0.06.14c0.62,0.44,1.24.88,1.87,1.31a0.6,0.6,0,0,0,.44.11C256.24,186.84,257.48,186.43,258.72,186Zm14.55-3.44-0.07-.11-3.72,1.41a11,11,0,0,0,2.05.84,0.44,0.44,0,0,0,.39-0.13C272.38,183.93,272.82,183.25,273.26,182.58Zm2.27,3.49a5.38,5.38,0,0,0-.55-3.18l-0.56,2.82Zm-1.62-.54,0.45-2.62-0.13-.07-1.62,2.27Zm65,3.47c2-.19,4.58-0.94,5.08-1.51Zm-67.54-6.64,0.07,0.14c1.07-.52,2.33-0.61,3.24-1.47l-0.09-.19ZM193,173.12v0.17l4.36,0.3v-0.13Z" transform="translate(-83.6 -152.69)"/>
  <g>
    <path d="M124.76,238v42.22h-6.5V256.66L104,276.93h-0.11L89.93,257.61v22.62H83.6V238h0.06L104,266.79,124.65,238h0.11Z" transform="translate(-83.6 -152.69)"/>
    <path d="M168.1,270.66H153.26l-3.92,9.58H142.9l18-42.45h0.39l18,42.45h-7.5Zm-2.18-5.6-5.1-12.88-5.26,12.88h10.36Z" transform="translate(-83.6 -152.69)"/>
    <path d="M197.5,239.47h11.59q7.67,0,12.68,3a18.38,18.38,0,0,1,7.31,7.78,23,23,0,0,1,2.3,10.14,19.53,19.53,0,0,1-2.77,10.44,18.83,18.83,0,0,1-7.42,6.94,21.5,21.5,0,0,1-10.14,2.44H197.5V239.47ZM209.88,274a17.36,17.36,0,0,0,7.7-1.62,12.08,12.08,0,0,0,5.21-4.79,16.56,16.56,0,0,0-.17-15.62,12.52,12.52,0,0,0-5.21-4.73,15,15,0,0,0-6.52-1.51h-6.83V274h5.82Z" transform="translate(-83.6 -152.69)"/>
    <path d="M257.87,239.47v40.77h-6.55V239.47h6.55Z" transform="translate(-83.6 -152.69)"/>
    <path d="M292.31,245a7.72,7.72,0,0,0-4.79,1.34,4.39,4.39,0,0,0-1.76,3.7,4.55,4.55,0,0,0,2.21,3.84,29.23,29.23,0,0,0,6.19,3.05,25.29,25.29,0,0,1,5.18,2.44,11,11,0,0,1,3.56,3.72,11.46,11.46,0,0,1,1.4,5.94,11,11,0,0,1-1.62,5.88,11.48,11.48,0,0,1-4.7,4.2,15.85,15.85,0,0,1-7.28,1.57,23.72,23.72,0,0,1-7.28-1.15,22.65,22.65,0,0,1-6.38-3.16l2.91-5.1a18.71,18.71,0,0,0,4.9,2.6,15.28,15.28,0,0,0,5.24,1,9.48,9.48,0,0,0,5.21-1.43,4.85,4.85,0,0,0,2.24-4.4,4.9,4.9,0,0,0-1.88-3.92,18.57,18.57,0,0,0-5.24-2.86,43.92,43.92,0,0,1-5.77-2.55,12,12,0,0,1-3.95-3.53,9.4,9.4,0,0,1-1.65-5.68,10.29,10.29,0,0,1,3.39-8,13.71,13.71,0,0,1,8.93-3.28,24.5,24.5,0,0,1,7.08.92,22.79,22.79,0,0,1,5.68,2.6l-2.46,5A20.75,20.75,0,0,0,292.31,245Z" transform="translate(-83.6 -152.69)"/>
    <path d="M324.34,249.52a21.26,21.26,0,0,1,7.59-7.64,20.42,20.42,0,0,1,20.83,0,21.64,21.64,0,0,1,7.64,7.67,20.4,20.4,0,0,1,0,20.78,21.05,21.05,0,0,1-7.64,7.56,20.92,20.92,0,0,1-20.86,0,20.67,20.67,0,0,1-7.59-7.53A20.83,20.83,0,0,1,324.34,249.52Zm5.82,17.67a14.42,14.42,0,0,0,5.18,5.26,13.74,13.74,0,0,0,7.2,2,13.37,13.37,0,0,0,7.06-1.93,14.16,14.16,0,0,0,5.07-5.26,15.13,15.13,0,0,0,0-14.64,14.39,14.39,0,0,0-5.15-5.32,13.93,13.93,0,0,0-14.25,0,14.23,14.23,0,0,0-5.1,5.32,14.79,14.79,0,0,0-1.88,7.34A14.32,14.32,0,0,0,330.16,267.19Z" transform="translate(-83.6 -152.69)"/>
    <path d="M419.15,239.47v42.22H419l-29.4-28.5,0.17,27h-6.61V238.07h0.34l29.29,28.84-0.11-27.44h6.5Z" transform="translate(-83.6 -152.69)"/>
  </g>
  <g>
    <path d="M201.43,333.39a2.21,2.21,0,0,0-1.37.38,1.26,1.26,0,0,0-.5,1.06,1.3,1.3,0,0,0,.63,1.1,8.34,8.34,0,0,0,1.77.87,7.22,7.22,0,0,1,1.48.7,3.13,3.13,0,0,1,1,1.06,3.27,3.27,0,0,1,.4,1.7,3.13,3.13,0,0,1-.46,1.68,3.28,3.28,0,0,1-1.34,1.2,4.53,4.53,0,0,1-2.08.45,6.78,6.78,0,0,1-2.08-.33,6.49,6.49,0,0,1-1.82-.9l0.83-1.46a5.35,5.35,0,0,0,1.4.74,4.38,4.38,0,0,0,1.5.3,2.71,2.71,0,0,0,1.49-.41,1.38,1.38,0,0,0,.64-1.26,1.4,1.4,0,0,0-.54-1.12,5.32,5.32,0,0,0-1.5-.82,12.46,12.46,0,0,1-1.65-.73,3.41,3.41,0,0,1-1.13-1,2.68,2.68,0,0,1-.47-1.62,2.94,2.94,0,0,1,1-2.3,3.91,3.91,0,0,1,2.55-.94,7,7,0,0,1,2,.26,6.5,6.5,0,0,1,1.62.74l-0.7,1.42A5.93,5.93,0,0,0,201.43,333.39Z" transform="translate(-83.6 -152.69)"/>
    <path d="M220.62,331.81v1.79h-3v9.86h-1.86V333.6h-2.93v-1.79h7.79Z" transform="translate(-83.6 -152.69)"/>
    <path d="M227.46,341.79a1,1,0,0,1,.68-0.29,0.91,0.91,0,0,1,.65.29,1,1,0,0,1-.65,1.66,1,1,0,0,1-.68-0.27,0.91,0.91,0,0,1-.3-0.7A0.92,0.92,0,0,1,227.46,341.79Z" transform="translate(-83.6 -152.69)"/>
    <path d="M239.34,331.81v9.86h5.74v1.79h-7.62V331.81h1.87Z" transform="translate(-83.6 -152.69)"/>
    <path d="M253.77,334.68a6.07,6.07,0,0,1,2.17-2.18,5.83,5.83,0,0,1,6,0,6.19,6.19,0,0,1,2.18,2.19,5.83,5.83,0,0,1,0,5.94,6,6,0,0,1-2.18,2.16,6,6,0,0,1-6,0,5.91,5.91,0,0,1-2.17-2.15A6,6,0,0,1,253.77,334.68Zm1.66,5a4.12,4.12,0,0,0,1.48,1.5,3.93,3.93,0,0,0,2.06.56,3.82,3.82,0,0,0,2-.55,4.06,4.06,0,0,0,1.45-1.5,4.32,4.32,0,0,0,0-4.18A4.11,4.11,0,0,0,261,334a4,4,0,0,0-4.07,0,4.07,4.07,0,0,0-1.46,1.52,4.23,4.23,0,0,0-.54,2.1A4.09,4.09,0,0,0,255.43,339.73Z" transform="translate(-83.6 -152.69)"/>
    <path d="M275.8,340.51a2.61,2.61,0,0,0,1,.92,2.65,2.65,0,0,0,1.33.34,2.81,2.81,0,0,0,1.37-.34,2.52,2.52,0,0,0,1-.91,2.37,2.37,0,0,0,.35-1.26v-7.46h1.84v7.5a4.09,4.09,0,0,1-2.24,3.73,4.87,4.87,0,0,1-2.29.54,4.81,4.81,0,0,1-2.28-.54,4.09,4.09,0,0,1-2.22-3.73v-7.5h1.86v7.46A2.35,2.35,0,0,0,275.8,340.51Z" transform="translate(-83.6 -152.69)"/>
    <path d="M293.9,331.81v11.65H292V331.81h1.87Z" transform="translate(-83.6 -152.69)"/>
    <path d="M306.94,333.39a2.2,2.2,0,0,0-1.37.38,1.26,1.26,0,0,0-.5,1.06,1.3,1.3,0,0,0,.63,1.1,8.37,8.37,0,0,0,1.77.87,7.2,7.2,0,0,1,1.48.7,3.13,3.13,0,0,1,1,1.06,3.27,3.27,0,0,1,.4,1.7,3.14,3.14,0,0,1-.46,1.68,3.29,3.29,0,0,1-1.34,1.2,4.53,4.53,0,0,1-2.08.45,6.77,6.77,0,0,1-2.08-.33,6.47,6.47,0,0,1-1.82-.9l0.83-1.46a5.35,5.35,0,0,0,1.4.74,4.38,4.38,0,0,0,1.5.3,2.71,2.71,0,0,0,1.49-.41,1.38,1.38,0,0,0,.64-1.26,1.4,1.4,0,0,0-.54-1.12,5.33,5.33,0,0,0-1.5-.82,12.46,12.46,0,0,1-1.65-.73,3.41,3.41,0,0,1-1.13-1,2.68,2.68,0,0,1-.47-1.62,2.94,2.94,0,0,1,1-2.3,3.92,3.92,0,0,1,2.55-.94,7,7,0,0,1,2,.26,6.49,6.49,0,0,1,1.63.74l-0.71,1.42A5.92,5.92,0,0,0,306.94,333.39Z" transform="translate(-83.6 -152.69)"/>
  </g>
  <g>
    <path d="M147.12,305.14v11.65h-1.87V305.14h1.87Z" transform="translate(-83.6 -152.69)"/>
    <path d="M167,305.14V317.2h0l-8.4-8.14,0,7.73h-1.89v-12h0.1l8.37,8.24,0-7.84H167Z" transform="translate(-83.6 -152.69)"/>
    <path d="M184.35,305.14v1.79H178.5V310h5.22v1.79H178.5V315h6.08v1.79h-8V305.14h7.73Z" transform="translate(-83.6 -152.69)"/>
    <path d="M199.92,316.79l-2.62-4h-1.87v4h-1.87V305.14h3.28a4.69,4.69,0,0,1,3.13,1,3.4,3.4,0,0,1,1.18,2.75,4.42,4.42,0,0,1-.46,2,3.12,3.12,0,0,1-1.43,1.42l2.83,4.5h-2.16Zm-4.5-5.84h1.66a2,2,0,0,0,1.62-.62,2.13,2.13,0,0,0,.5-1.38A2.31,2.31,0,0,0,199,308a1.83,1.83,0,0,0-.66-0.78,2.06,2.06,0,0,0-1.22-.33h-1.73v4Z" transform="translate(-83.6 -152.69)"/>
    <path d="M212.54,305.14v11.65h-1.87V305.14h1.87Z" transform="translate(-83.6 -152.69)"/>
    <path d="M222.22,308a6.08,6.08,0,0,1,2.17-2.18,5.84,5.84,0,0,1,6,0,6.19,6.19,0,0,1,2.18,2.19,5.83,5.83,0,0,1,0,5.94,6,6,0,0,1-2.18,2.16,6,6,0,0,1-6,0,5.9,5.9,0,0,1-2.17-2.15A5.95,5.95,0,0,1,222.22,308Zm1.66,5a4.12,4.12,0,0,0,1.48,1.5,3.93,3.93,0,0,0,2.06.56,3.82,3.82,0,0,0,2-.55,4,4,0,0,0,1.45-1.5,4.32,4.32,0,0,0,0-4.18,4.11,4.11,0,0,0-1.47-1.52,4,4,0,0,0-4.07,0,4.07,4.07,0,0,0-1.46,1.52,4.22,4.22,0,0,0-.54,2.1A4.09,4.09,0,0,0,223.89,313.06Z" transform="translate(-83.6 -152.69)"/>
    <path d="M248.59,316.79l-2.62-4H244.1v4h-1.87V305.14h3.28a4.69,4.69,0,0,1,3.13,1,3.4,3.4,0,0,1,1.18,2.75,4.42,4.42,0,0,1-.46,2,3.12,3.12,0,0,1-1.43,1.42l2.83,4.5h-2.16Zm-4.5-5.84h1.66a2,2,0,0,0,1.62-.62,2.13,2.13,0,0,0,.5-1.38,2.31,2.31,0,0,0-.19-0.9,1.83,1.83,0,0,0-.66-0.78,2.06,2.06,0,0,0-1.22-.33H244.1v4Z" transform="translate(-83.6 -152.69)"/>
    <path d="M270.86,305.14h3.31a6.93,6.93,0,0,1,3.63.86,5.26,5.26,0,0,1,2.09,2.22,6.59,6.59,0,0,1,.66,2.9,5.58,5.58,0,0,1-.79,3,5.38,5.38,0,0,1-2.12,2,6.15,6.15,0,0,1-2.9.7h-3.87V305.14ZM274.4,315a5,5,0,0,0,2.2-.46,3.45,3.45,0,0,0,1.49-1.37,4.73,4.73,0,0,0,0-4.46,3.58,3.58,0,0,0-1.49-1.35,4.28,4.28,0,0,0-1.87-.43h-2V315h1.66Z" transform="translate(-83.6 -152.69)"/>
    <path d="M297.17,305.14v1.79h-5.86V310h5.21v1.79h-5.21V315h6.08v1.79h-8V305.14h7.73Z" transform="translate(-83.6 -152.69)"/>
    <path d="M309.81,306.72a2.21,2.21,0,0,0-1.37.38,1.25,1.25,0,0,0-.5,1.06,1.3,1.3,0,0,0,.63,1.1,8.37,8.37,0,0,0,1.77.87,7.23,7.23,0,0,1,1.48.7,3.15,3.15,0,0,1,1,1.06,3.28,3.28,0,0,1,.4,1.7,3.14,3.14,0,0,1-.46,1.68,3.29,3.29,0,0,1-1.34,1.2,4.54,4.54,0,0,1-2.08.45,6.78,6.78,0,0,1-2.08-.33,6.46,6.46,0,0,1-1.82-.9l0.83-1.46a5.34,5.34,0,0,0,1.4.74,4.37,4.37,0,0,0,1.5.3,2.71,2.71,0,0,0,1.49-.41,1.5,1.5,0,0,0,.1-2.38,5.31,5.31,0,0,0-1.5-.82,12.47,12.47,0,0,1-1.65-.73,3.43,3.43,0,0,1-1.13-1,2.68,2.68,0,0,1-.47-1.62,2.94,2.94,0,0,1,1-2.3,3.91,3.91,0,0,1,2.55-.94,7,7,0,0,1,2,.26,6.57,6.57,0,0,1,1.62.74l-0.7,1.42A5.92,5.92,0,0,0,309.81,306.72Z" transform="translate(-83.6 -152.69)"/>
    <path d="M324,305.14v11.65h-1.87V305.14H324Z" transform="translate(-83.6 -152.69)"/>
    <path d="M341.14,316.54a7.29,7.29,0,0,1-2.18.38,6.82,6.82,0,0,1-3.23-.74,5.28,5.28,0,0,1-2.14-2,5.69,5.69,0,0,1-.75-2.92,6.68,6.68,0,0,1,.81-3.38,5.36,5.36,0,0,1,2.18-2.13,6.34,6.34,0,0,1,3-.72,7.67,7.67,0,0,1,1.91.23,6.68,6.68,0,0,1,1.59.62l-0.61,1.73a5,5,0,0,0-1.27-.5,5.56,5.56,0,0,0-1.38-.21,4.36,4.36,0,0,0-3.15,1.1,4.07,4.07,0,0,0-1.15,3.09,4,4,0,0,0,.54,2.09,3.64,3.64,0,0,0,1.5,1.4,4.79,4.79,0,0,0,2.22.5,5.37,5.37,0,0,0,1.07-.1,3.1,3.1,0,0,0,.86-0.3v-1.94h-2.19v-1.79h4.06v4.78A4.5,4.5,0,0,1,341.14,316.54Z" transform="translate(-83.6 -152.69)"/>
    <path d="M362.34,305.14V317.2h0l-8.4-8.14,0,7.73H352v-12h0.1l8.37,8.24,0-7.84h1.86Z" transform="translate(-83.6 -152.69)"/>
  </g>
</svg>
