<svg id="Слой_1" data-name="Слой 1" xmlns="http://www.w3.org/2000/svg" viewBox="0 0 316.25 204.19">
  <title>3</title>
  <g>
    <path d="M91.08,285.87v-1.19h1.64a4.34,4.34,0,0,0,3.93-1.77q0.71-1.06.71-4.77V249.9q0-4.09-.9-5.12a4.73,4.73,0,0,0-3.74-1.42H91.08v-1.19h17.79q9.8,0,14.9,2.22A17.74,17.74,0,0,1,132,251.8a22.86,22.86,0,0,1,3.11,12A21.87,21.87,0,0,1,129.56,279q-6.22,6.83-18.95,6.83H91.08Zm12.47-3.16a32.91,32.91,0,0,0,6.86.9,16.3,16.3,0,0,0,12.41-5.25q4.93-5.25,4.93-14.24t-4.93-14.28a16.65,16.65,0,0,0-12.67-5.22,27.36,27.36,0,0,0-6.61.93v37.16Z" transform="translate(-91.08 -147.29)"/>
    <path d="M154.71,244.55v17.27h9.6q3.74,0,5-1.13,1.68-1.48,1.87-5.22h1.19v15.21h-1.19a16.66,16.66,0,0,0-.9-4.09,4,4,0,0,0-1.9-1.77,9.71,9.71,0,0,0-4.06-.64h-9.6v14.41a13.37,13.37,0,0,0,.26,3.53,2,2,0,0,0,.9,1,5.46,5.46,0,0,0,2.45.37h7.41a20.08,20.08,0,0,0,5.38-.52,8,8,0,0,0,3.22-2,24.81,24.81,0,0,0,4.09-6h1.29l-3.77,11H142.27v-1.19h1.55a6.13,6.13,0,0,0,2.93-.74,2.71,2.71,0,0,0,1.4-1.55,15.19,15.19,0,0,0,.37-4.22V249.77q0-4.16-.84-5.12a5,5,0,0,0-3.87-1.29h-1.55v-1.19h33.68l0.48,9.57h-1.26a15.1,15.1,0,0,0-1.5-4.74,5.15,5.15,0,0,0-2.43-2,14.6,14.6,0,0,0-4.54-.48h-12Z" transform="translate(-91.08 -147.29)"/>
    <path d="M198,244.55v17.18h8a5.68,5.68,0,0,0,4-1.21q1.27-1.21,1.69-4.79h1.19v14.79H211.7a8.64,8.64,0,0,0-.66-3.74,4.19,4.19,0,0,0-1.74-1.79,7.2,7.2,0,0,0-3.3-.6h-8v13.73a14.47,14.47,0,0,0,.42,4.38,2.88,2.88,0,0,0,1.35,1.39,6.11,6.11,0,0,0,3,.77h1.58v1.19H185.59v-1.19h1.55a4.67,4.67,0,0,0,3.93-1.58q0.77-1,.77-5V249.9a14.49,14.49,0,0,0-.42-4.38,2.91,2.91,0,0,0-1.32-1.39,6,6,0,0,0-3-.77h-1.55v-1.19h32.52l0.42,9.6H217.4a13.23,13.23,0,0,0-1.95-4.5,6.41,6.41,0,0,0-2.74-2.08,14.63,14.63,0,0,0-5-.64H198Z" transform="translate(-91.08 -147.29)"/>
    <path d="M262.37,273.78l1.06,0.23-3.74,11.86H225.86v-1.19h1.64a4.39,4.39,0,0,0,4-1.8q0.68-1,.68-4.77V249.9q0-4.09-.9-5.12a4.73,4.73,0,0,0-3.74-1.42h-1.64v-1.19h19.79v1.19a12.07,12.07,0,0,0-4.88.64,3.94,3.94,0,0,0-1.92,1.71q-0.52,1-.52,4.93V278.1a8.93,8.93,0,0,0,.52,3.67,2.3,2.3,0,0,0,1.19,1,20.91,20.91,0,0,0,5,.32h3.19a23.12,23.12,0,0,0,7.06-.74,9.2,9.2,0,0,0,3.71-2.63A21.54,21.54,0,0,0,262.37,273.78Z" transform="translate(-91.08 -147.29)"/>
    <path d="M281.94,244.55v17.27h9.6q3.74,0,5-1.13,1.68-1.48,1.87-5.22h1.19v15.21h-1.19a16.63,16.63,0,0,0-.9-4.09,4,4,0,0,0-1.9-1.77,9.71,9.71,0,0,0-4.06-.64h-9.6v14.41a13.39,13.39,0,0,0,.26,3.53,2,2,0,0,0,.9,1,5.46,5.46,0,0,0,2.45.37H293a20.08,20.08,0,0,0,5.38-.52,8,8,0,0,0,3.22-2,24.8,24.8,0,0,0,4.09-6H307l-3.77,11H269.5v-1.19h1.55a6.13,6.13,0,0,0,2.93-.74,2.71,2.71,0,0,0,1.4-1.55,15.16,15.16,0,0,0,.37-4.22V249.77q0-4.16-.84-5.12a5,5,0,0,0-3.87-1.29H269.5v-1.19h33.68l0.48,9.57h-1.26a15.07,15.07,0,0,0-1.5-4.74,5.14,5.14,0,0,0-2.43-2,14.6,14.6,0,0,0-4.54-.48h-12Z" transform="translate(-91.08 -147.29)"/>
    <path d="M343.25,243.36v-1.19h15.47v1.19h-1.64a4.44,4.44,0,0,0-4,2.16q-0.68,1-.68,4.64v17.73a31.35,31.35,0,0,1-1.3,10.2,12.8,12.8,0,0,1-5.12,6.22q-3.82,2.59-10.39,2.59-7.15,0-10.86-2.48a13.44,13.44,0,0,1-5.25-6.67q-1-2.87-1-10.76V249.9q0-4-1.11-5.29a4.58,4.58,0,0,0-3.59-1.26h-1.64v-1.19H331v1.19h-1.68a4.33,4.33,0,0,0-3.87,1.71q-0.81,1.16-.81,4.83v19a42,42,0,0,0,.47,5.83,12.41,12.41,0,0,0,1.69,5.12,9.2,9.2,0,0,0,3.53,3,12.2,12.2,0,0,0,5.66,1.19,15.6,15.6,0,0,0,7.67-1.87,10,10,0,0,0,4.63-4.79q1.24-2.92,1.24-9.88V249.9q0-4.09-.9-5.12a4.73,4.73,0,0,0-3.74-1.42h-1.64Z" transform="translate(-91.08 -147.29)"/>
    <path d="M407.33,285.87H395.66l-14.79-20.43q-1.64.06-2.67,0.06l-0.9,0-1,0v12.7q0,4.13.9,5.12a4.59,4.59,0,0,0,3.67,1.42h1.71v1.19H363.86v-1.19h1.64a4.39,4.39,0,0,0,4-1.8q0.68-1,.68-4.74V249.9q0-4.12-.9-5.12a4.73,4.73,0,0,0-3.74-1.42h-1.64v-1.19h15.92a37.82,37.82,0,0,1,10.26,1,11.74,11.74,0,0,1,5.61,3.74,9.73,9.73,0,0,1,2.3,6.49,10.21,10.21,0,0,1-2.63,7q-2.63,3-8.14,4.19l9,12.54a22.42,22.42,0,0,0,5.32,5.74,13.39,13.39,0,0,0,5.8,1.8v1.19Zm-31-22.46,1.06,0,0.74,0q6.25,0,9.43-2.71a8.67,8.67,0,0,0,3.17-6.9,9,9,0,0,0-2.56-6.65,9.16,9.16,0,0,0-6.78-2.56,28.44,28.44,0,0,0-5.06.61v18.18Z" transform="translate(-91.08 -147.29)"/>
  </g>
  <path d="M242.33,198.15c-1.66-1.37-3.38-2.66-5-4.14-1.72-1.61-3.3-3.38-4.93-5.11q-2-2.1-3.92-4.25a19.66,19.66,0,0,1-1.77-2.13,1.4,1.4,0,0,1-.12-1.24,1.64,1.64,0,0,1,1.24-.47c1.38,0.12,2.71.42,4.08,0.53A105.42,105.42,0,0,1,248,183.53c6.31,1.51,12.24,3.78,17.21,7.77a76.87,76.87,0,0,1,5.61,5.43,19.13,19.13,0,0,0,8.54,4.8,10.12,10.12,0,0,0,3.7.25c7.9-.85,15.65-3.8,23.45-6.14,1.37-.41,2.74-0.9,4.08-1.44,1.81-.73,1.82-0.75,1.82,1.43a17.53,17.53,0,0,1-1.65.84c-8.18,3.18-16.38,6.28-24.78,7.28-5.47.65-10.93,1.15-16.4,1.91a70.39,70.39,0,0,0-9.31,1.89,92.75,92.75,0,0,1-26.89,3,49,49,0,0,1-22.19-5.77c-3.84-2-7.76-3.92-11.39-6.26-4.07-2.61-7.86-5.64-11.74-8.52a2.76,2.76,0,0,1-.49-1.15,3.56,3.56,0,0,1,1.34-.67c1.29,0.1,2.52.47,3.82,0.56,4.44,0.3,8.86.7,13.35,0.72,8.94,0,17.51,1.2,25.46,4.35,3.12,1.24,6.14,2.68,9.21,4,0.47,0.21,1,.39,1.44.58ZM196,192.64l-0.08.18a5.52,5.52,0,0,0,.82.68c4.24,2.35,8.37,4.9,12.77,7a70.57,70.57,0,0,0,12.06,4.49c6.78,1.77,14.11,1.29,21.35,1a8.42,8.42,0,0,0,1.11-.19c-4-.86-7.87-1.6-11.81-2.31a150.43,150.43,0,0,1-23-6.39c-3.91-1.36-7.8-2.77-11.71-4.13A12,12,0,0,0,196,192.64Zm48.2,11.24c-13.09-5.76-35-11.26-41.38-10.38C211.93,197.84,238.35,204.47,244.23,203.88ZM197,191.39a8,8,0,0,0,1.14.3c3.84,0.45,7.67,1,11.54,1.3a74,74,0,0,1,17,3.43c6,2,11.95,4.21,18,6.22,2,0.67,4.16,1,6.24,1.47-5.94-2.26-11.77-4.64-17.43-7.37a55.79,55.79,0,0,0-13.34-4.3C212.72,191,204.87,191.35,197,191.39Zm37.6-6.69c11.3,5.45,22,11.89,33.93,16.25C261.43,193.69,245,185.81,234.63,184.7Zm31.29,17.21-17.24-8.61-17-8.55-0.26.45C241.71,192.77,252.59,199.36,265.92,201.91Zm-27.2-18c2.32,0.7,4.65,1.38,7,2.1a49.13,49.13,0,0,1,12.62,5.74c3.62,2.41,7.16,4.94,10.77,7.38,1.73,1.17,3.54,2.24,5.31,3.35l0.19-.28a31.88,31.88,0,0,1-9.47-8,9.84,9.84,0,0,0-1.49-1.39c-3.95-3.22-8.61-5.23-13.48-6.85A46.94,46.94,0,0,0,238.72,183.9Zm-26,19.51c12.63,7.17,28.3,5.83,44.31,3a29.5,29.5,0,0,0-5.26-.15c-5.13.3-10.29,0.78-15.4,0.94-4.55.14-9.15,0.26-13.43-.81C219.11,205.47,215.42,204.22,212.69,203.41Zm49.46-.63a97.93,97.93,0,0,1-25.71-12.18C243.27,197.8,251.53,202.44,262.15,202.78Z" transform="translate(-91.08 -147.29)"/>
  <g>
    <path d="M241.3,157.7h-8.66v-0.38h1.51V147.9h-1.51v-0.38H241l0.11,2.74h-0.43a3.11,3.11,0,0,0-1-1.9,3.27,3.27,0,0,0-1.9-.46h-1.75v4.37h0.41a1.72,1.72,0,0,0,1.52-.55,2.28,2.28,0,0,0,.38-1.31h0.43v4.25H238.4a2.63,2.63,0,0,0-.37-1.4,1.68,1.68,0,0,0-1.54-.61h-0.41v4.66h2a2.52,2.52,0,0,0,2.06-.72,4.6,4.6,0,0,0,.81-2.18h0.44Z" transform="translate(-91.08 -147.29)"/>
    <path d="M250.9,157a3,3,0,0,1-2.3.94,3.2,3.2,0,0,1-1.17-.2,3.24,3.24,0,0,1-1-.58l-0.73.64h-0.26v-3h0.44a4.26,4.26,0,0,0,.93,2,2.48,2.48,0,0,0,3.47.21,2,2,0,0,0,.67-1.51,1.55,1.55,0,0,0-.75-1.42,7.88,7.88,0,0,0-2-.79,4.08,4.08,0,0,1-2.07-1.11,2.89,2.89,0,0,1-.64-2,2.84,2.84,0,0,1,.78-2.06,2.71,2.71,0,0,1,2-.81,3.74,3.74,0,0,1,1.19.18,3.27,3.27,0,0,1,1,.56l0.58-.59h0.29v2.88h-0.49a3.38,3.38,0,0,0-.84-1.91,2.34,2.34,0,0,0-1.78-.75,1.92,1.92,0,0,0-1.34.52,1.62,1.62,0,0,0-.56,1.23,1.1,1.1,0,0,0,.58,1.13,9.53,9.53,0,0,0,1.72.58,5,5,0,0,1,2.45,1.2,3.18,3.18,0,0,1,.69,2.18A3.43,3.43,0,0,1,250.9,157Z" transform="translate(-91.08 -147.29)"/>
    <path d="M263.81,150.78a3.58,3.58,0,0,0-.95-2.32,2.66,2.66,0,0,0-1.72-.56h-0.4v9.42h1.6v0.38h-5.14v-0.38h1.6V147.9h-0.43a2.71,2.71,0,0,0-1.72.55,3.71,3.71,0,0,0-.94,2.33h-0.49l0.17-3.26h8.73l0.17,3.26h-0.49Z" transform="translate(-91.08 -147.29)"/>
  </g>
  <g>
    <path d="M234.7,345.61a12.94,12.94,0,0,1-1.16,1.19l-3.4,3h4a0.61,0.61,0,0,0,.59-0.29,2.65,2.65,0,0,0,.17-1.14h0.35l-0.09,2.82h-6v-1l2.58-2.41a7.73,7.73,0,0,0,.71-0.78q0.31-.4.57-0.79a3.85,3.85,0,0,0,.5-2.09,2.47,2.47,0,0,0-.5-1.6,1.6,1.6,0,0,0-1.26-.64,2,2,0,0,0-1.25.43,1.29,1.29,0,0,0-.55,1,0.2,0.2,0,0,0,.21.23h0.09a2.09,2.09,0,0,1,.43-0.08,0.72,0.72,0,0,1,.79.75v0.12a0.79,0.79,0,0,1-.94.78,0.92,0.92,0,0,1-.81-0.43,1.63,1.63,0,0,1-.24-0.87,2.19,2.19,0,0,1,.84-1.75,3.43,3.43,0,0,1,4.18,0,2.32,2.32,0,0,1,.82,1.8A2.59,2.59,0,0,1,234.7,345.61Z" transform="translate(-91.08 -147.29)"/>
    <path d="M245.4,349.92a2.82,2.82,0,0,1-2.32,1.51,2.76,2.76,0,0,1-2.3-1.51,6.78,6.78,0,0,1,0-7.06,2.83,2.83,0,0,1,2.32-1.51,2.78,2.78,0,0,1,2.29,1.51,6.23,6.23,0,0,1,1,3.54A6.31,6.31,0,0,1,245.4,349.92Zm-0.87-5.39a5.06,5.06,0,0,0-.35-2.06,1.17,1.17,0,0,0-1.1-.76,1.14,1.14,0,0,0-1.08.76,5.05,5.05,0,0,0-.35,2.06v3.73a5.06,5.06,0,0,0,.35,2.06,1.15,1.15,0,0,0,1.1.76,1.13,1.13,0,0,0,1.07-.76,4.76,4.76,0,0,0,.37-2.06v-3.73Z" transform="translate(-91.08 -147.29)"/>
    <path d="M251.36,351.19v-0.38h1.81v-8.23a1,1,0,0,0-.11-0.55,0.67,0.67,0,0,0-.49-0.12h-1.31v-0.38q1.36,0,2,0l1.51-.12v9.45h1.77v0.38h-5.23Z" transform="translate(-91.08 -147.29)"/>
    <path d="M265.94,349.66a6.34,6.34,0,0,1-4.14,1.81v-0.33a4.87,4.87,0,0,0,3.17-1.78,5.83,5.83,0,0,0,.87-2.39,2.66,2.66,0,0,1-1.86.75,2.57,2.57,0,0,1-2-.93,3.28,3.28,0,0,1-.82-2.26,2.94,2.94,0,0,1,1-2.22,3.25,3.25,0,0,1,2.32-.94,3,3,0,0,1,2.3,1.11,4.46,4.46,0,0,1,1,3.08A5.42,5.42,0,0,1,265.94,349.66Zm-0.26-7.24a1.24,1.24,0,0,0-1.33-.78,1.07,1.07,0,0,0-1.11.81,8.78,8.78,0,0,0-.26,2.47,4.5,4.5,0,0,0,.27,1.78,1,1,0,0,0,1,.62,1.84,1.84,0,0,0,1-.29,2.58,2.58,0,0,0,.7-0.69c0-.1,0-0.23,0-0.37s0-.32,0-0.51A11.77,11.77,0,0,0,265.68,342.42Z" transform="translate(-91.08 -147.29)"/>
  </g>
  <g>
    <path d="M163.63,316.11a4,4,0,0,0-1-2.21,2.94,2.94,0,0,0-1.9-.52H159v4.37h0.41a1.75,1.75,0,0,0,1.54-.55,2.29,2.29,0,0,0,.38-1.31h0.43v4.25h-0.43a2.63,2.63,0,0,0-.37-1.4,1.7,1.7,0,0,0-1.55-.61H159v4.66h1.51v0.38h-5V322.8H157v-9.42h-1.51V313H164l0.11,3.11h-0.43Z" transform="translate(-91.08 -147.29)"/>
    <path d="M169.82,323.18V322.8h1.57l-0.9-2.7h-3.31l-0.94,2.7h1.55v0.38h-3.23V322.8h1.22l3.64-10H170l3.47,10h1.2v0.38h-4.82Zm-0.93-7.71-1.54,4.25h3Z" transform="translate(-91.08 -147.29)"/>
    <path d="M184.25,322.47a3,3,0,0,1-2.3.94,3.2,3.2,0,0,1-1.17-.2,3.24,3.24,0,0,1-1-.58l-0.73.64h-0.26v-3h0.44a4.26,4.26,0,0,0,.93,2,2.48,2.48,0,0,0,3.47.21,2,2,0,0,0,.67-1.51,1.54,1.54,0,0,0-.75-1.42,7.88,7.88,0,0,0-2-.79,4.08,4.08,0,0,1-2.07-1.11,2.89,2.89,0,0,1-.64-2,2.84,2.84,0,0,1,.78-2.06,2.71,2.71,0,0,1,2-.81,3.73,3.73,0,0,1,1.19.18,3.26,3.26,0,0,1,1,.56l0.58-.59h0.29v2.88h-0.49a3.38,3.38,0,0,0-.84-1.91,2.34,2.34,0,0,0-1.78-.75,1.92,1.92,0,0,0-1.34.52,1.62,1.62,0,0,0-.56,1.23,1.1,1.1,0,0,0,.58,1.13,9.53,9.53,0,0,0,1.72.58,5,5,0,0,1,2.45,1.2,3.18,3.18,0,0,1,.69,2.18A3.44,3.44,0,0,1,184.25,322.47Z" transform="translate(-91.08 -147.29)"/>
    <path d="M194.81,323.18V322.8h1.51v-4.66h-4.1v4.66h1.51v0.38h-5V322.8h1.51v-9.42h-1.51V313h5v0.38h-1.51v4.39h4.1v-4.39h-1.51V313h5v0.38h-1.51v9.42h1.51v0.38h-5Z" transform="translate(-91.08 -147.29)"/>
    <path d="M203.72,323.18V322.8h1.51v-9.42h-1.51V313h5v0.38h-1.51v9.42h1.51v0.38h-5Z" transform="translate(-91.08 -147.29)"/>
    <path d="M219.49,321.81a4.38,4.38,0,0,1-3.32,1.6,4.31,4.31,0,0,1-3.31-1.58,5.58,5.58,0,0,1,0-7.45,4.35,4.35,0,0,1,3.32-1.6,4.39,4.39,0,0,1,3.32,1.58A5.56,5.56,0,0,1,219.49,321.81Zm-0.81-5.53a3.86,3.86,0,0,0-.61-2.33,2.3,2.3,0,0,0-1.9-.79,2.23,2.23,0,0,0-1.89.79,3.78,3.78,0,0,0-.61,2.33v3.63a3.78,3.78,0,0,0,.61,2.33,2.65,2.65,0,0,0,3.78,0,3.75,3.75,0,0,0,.63-2.33v-3.63Z" transform="translate(-91.08 -147.29)"/>
    <path d="M232.54,313.38v10h-0.46l-6.46-9.71v9.13h1.49v0.38h-3.47V322.8h1.49v-9.42h-1.49V313h3.9l4.51,6.66v-6.28h-1.46V313H234v0.38h-1.51Z" transform="translate(-91.08 -147.29)"/>
    <path d="M251.71,323.18V322.8h1.51v-9.31l-3.11,9.69h-0.52l-3.08-9.69v9.31H248v0.38h-3.49V322.8H246v-9.42h-1.51V313h3.93l2.13,7,2.21-7h3.85v0.38h-1.51v9.42h1.51v0.38h-5Z" transform="translate(-91.08 -147.29)"/>
    <path d="M265.3,323.18V322.8h1.57l-0.9-2.7h-3.31l-0.95,2.7h1.55v0.38H260V322.8h1.22l3.64-10h0.53l3.47,10h1.2v0.38H265.3Zm-0.93-7.71-1.54,4.25h3Z" transform="translate(-91.08 -147.29)"/>
    <path d="M280.67,319.86a3.41,3.41,0,0,1-1.14,2.62,4.06,4.06,0,0,1-2.74.93,4.53,4.53,0,0,1-3.49-1.49,5.26,5.26,0,0,1-1.4-3.75,5.52,5.52,0,0,1,1.42-3.81,4.4,4.4,0,0,1,3.4-1.58,4.1,4.1,0,0,1,1.42.23,3.53,3.53,0,0,1,1.05.56l0.63-.64h0.35v2.94h-0.44a3.78,3.78,0,0,0-1.23-2.12,2.78,2.78,0,0,0-1.66-.59,2.29,2.29,0,0,0-2.06.91,5,5,0,0,0-.62,2.77v2.07a6.9,6.9,0,0,0,.53,3.12,2.09,2.09,0,0,0,2,1,1.9,1.9,0,0,0,1.29-.43,1.84,1.84,0,0,0,.52-1.49v-1.25H277v-0.38h4.77v0.38h-1.07Z" transform="translate(-91.08 -147.29)"/>
    <path d="M288.37,323.18V322.8h1.57l-0.9-2.7h-3.31l-0.95,2.7h1.55v0.38h-3.23V322.8h1.22l3.64-10h0.53l3.47,10h1.2v0.38h-4.82Zm-0.93-7.71-1.54,4.25h3Z" transform="translate(-91.08 -147.29)"/>
    <path d="M304.87,323.18h-8v-0.41l5.93-9.39h-2a4,4,0,0,0-1.84.38,2.78,2.78,0,0,0-1.11,2h-0.47l0.24-2.74H305v0.44l-5.88,9.36h2.47a4,4,0,0,0,1.84-.4q0.75-.41,1.19-2.5H305Z" transform="translate(-91.08 -147.29)"/>
    <path d="M309.11,323.18V322.8h1.51v-9.42h-1.51V313h5v0.38h-1.51v9.42h1.51v0.38h-5Z" transform="translate(-91.08 -147.29)"/>
    <path d="M326.8,313.38v10h-0.46l-6.46-9.71v9.13h1.49v0.38H317.9V322.8h1.49v-9.42H317.9V313h3.9l4.51,6.66v-6.28h-1.46V313h3.46v0.38H326.8Z" transform="translate(-91.08 -147.29)"/>
    <path d="M340.85,323.18h-8.66V322.8h1.51v-9.42h-1.51V313h8.4l0.11,2.74h-0.43a3.11,3.11,0,0,0-1-1.9,3.27,3.27,0,0,0-1.9-.46h-1.75v4.37H336a1.72,1.72,0,0,0,1.52-.55,2.28,2.28,0,0,0,.38-1.31h0.43v4.25H338a2.63,2.63,0,0,0-.37-1.4,1.68,1.68,0,0,0-1.54-.61h-0.41v4.66h2a2.52,2.52,0,0,0,2.06-.72,4.6,4.6,0,0,0,.81-2.18H341Z" transform="translate(-91.08 -147.29)"/>
  </g>
</svg>
