<svg id="Слой_1" data-name="Слой 1" xmlns="http://www.w3.org/2000/svg" viewBox="0 0 320.1 210.02">
  <defs>
    <style>
      .cls-1 {
        font-size: 66px;
        font-family: Iskoola Pota;
      }

      .cls-1, .cls-2, .cls-3, .cls-6, .cls-7 {
        fill: #fff;
      }

      .cls-1, .cls-5, .cls-6 {
        letter-spacing: 3px;
      }

      .cls-3, .cls-6, .cls-7 {
        font-size: 15.24px;
        font-family: BodoniXT;
      }

      .cls-3, .cls-8 {
        letter-spacing: 2px;
      }

      .cls-4 {
        letter-spacing: 1px;
      }
    </style>
  </defs>
  <title>client-logo-white_01</title>
  <text class="cls-1" transform="translate(0 140.88)">DEFLEUR</text>
  <path class="cls-2" d="M242.33,198.15c-1.66-1.37-3.38-2.66-5-4.14-1.72-1.61-3.3-3.38-4.93-5.11q-2-2.1-3.92-4.25a19.66,19.66,0,0,1-1.77-2.13,1.4,1.4,0,0,1-.12-1.24,1.64,1.64,0,0,1,1.24-.47c1.38,0.12,2.71.42,4.08,0.53A105.42,105.42,0,0,1,248,183.53c6.31,1.51,12.24,3.78,17.21,7.77a76.87,76.87,0,0,1,5.61,5.43,19.13,19.13,0,0,0,8.54,4.8,10.12,10.12,0,0,0,3.7.25c7.9-.85,15.65-3.8,23.45-6.14,1.37-.41,2.74-0.9,4.08-1.44,1.81-.73,1.82-0.75,1.82,1.43a17.53,17.53,0,0,1-1.65.84c-8.18,3.18-16.38,6.28-24.78,7.28-5.47.65-10.93,1.15-16.4,1.91a70.39,70.39,0,0,0-9.31,1.89,92.75,92.75,0,0,1-26.89,3,49,49,0,0,1-22.19-5.77c-3.84-2-7.76-3.92-11.39-6.26-4.07-2.61-7.86-5.64-11.74-8.52a2.76,2.76,0,0,1-.49-1.15,3.56,3.56,0,0,1,1.34-.67c1.29,0.1,2.52.47,3.82,0.56,4.44,0.3,8.86.7,13.35,0.72,8.94,0,17.51,1.2,25.46,4.35,3.12,1.24,6.14,2.68,9.21,4,0.47,0.21,1,.39,1.44.58ZM196,192.64l-0.08.18a5.52,5.52,0,0,0,.82.68c4.24,2.35,8.37,4.9,12.77,7a70.57,70.57,0,0,0,12.06,4.49c6.78,1.77,14.11,1.29,21.35,1a8.42,8.42,0,0,0,1.11-.19c-4-.86-7.87-1.6-11.81-2.31a150.43,150.43,0,0,1-23-6.39c-3.91-1.36-7.8-2.77-11.71-4.13A12,12,0,0,0,196,192.64Zm48.2,11.24c-13.09-5.76-35-11.26-41.38-10.38C211.93,197.84,238.35,204.47,244.23,203.88ZM197,191.39a8,8,0,0,0,1.14.3c3.84,0.45,7.67,1,11.54,1.3a74,74,0,0,1,17,3.43c6,2,11.95,4.21,18,6.22,2,0.67,4.16,1,6.24,1.47-5.94-2.26-11.77-4.64-17.43-7.37a55.79,55.79,0,0,0-13.34-4.3C212.72,191,204.87,191.35,197,191.39Zm37.6-6.69c11.3,5.45,22,11.89,33.93,16.25C261.43,193.69,245,185.81,234.63,184.7Zm31.29,17.21-17.24-8.61-17-8.55-0.26.45C241.71,192.77,252.59,199.36,265.92,201.91Zm-27.2-18c2.32,0.7,4.65,1.38,7,2.1a49.13,49.13,0,0,1,12.62,5.74c3.62,2.41,7.16,4.94,10.77,7.38,1.73,1.17,3.54,2.24,5.31,3.35l0.19-.28a31.88,31.88,0,0,1-9.47-8,9.84,9.84,0,0,0-1.49-1.39c-3.95-3.22-8.61-5.23-13.48-6.85A46.94,46.94,0,0,0,238.72,183.9Zm-26,19.51c12.63,7.17,28.3,5.83,44.31,3a29.5,29.5,0,0,0-5.26-.15c-5.13.3-10.29,0.78-15.4,0.94-4.55.14-9.15,0.26-13.43-.81C219.11,205.47,215.42,204.22,212.69,203.41Zm49.46-.63a97.93,97.93,0,0,1-25.71-12.18C243.27,197.8,251.53,202.44,262.15,202.78Z" transform="translate(-89.95 -144.99)"/>
  <text class="cls-3" transform="translate(142.16 12.71)">E<tspan class="cls-4" x="12.27" y="0">S</tspan><tspan class="cls-5" x="22.57" y="0">T</tspan></text>
  <text class="cls-6" transform="translate(138.72 206.2)">2019</text>
  <text class="cls-7" transform="translate(65.18 178.19)">F<tspan class="cls-5" x="9.39" y="0">A</tspan><tspan class="cls-8" x="22.6" y="0">S</tspan><tspan class="cls-5" x="33.22" y="0">H</tspan><tspan class="cls-4" x="48.12" y="0">I</tspan><tspan class="cls-4" x="55.56" y="0">O</tspan><tspan class="cls-5" x="68.22" y="0">N M</tspan><tspan x="104.87" y="0">A</tspan><tspan x="115.98" y="0">G</tspan><tspan class="cls-5" x="127.94" y="0">AZINE</tspan></text>
</svg>
